<svg xmlns="http://www.w3.org/2000/svg" width="980" height="560">
  <rect x="0" y="0" width="980" height="560" fill="#ffffff"/>
  <text x="490.0" y="30" text-anchor="middle" font-size="20" font-family="Times New Roman">A.F.O Sweep: context_len vs Throughput (tokens/sec)</text>
  <line x1="110" y1="50.0" x2="940" y2="50.0" stroke="#e5e7eb" />
<line x1="110" y1="132.0" x2="940" y2="132.0" stroke="#e5e7eb" />
<line x1="110" y1="214.0" x2="940" y2="214.0" stroke="#e5e7eb" />
<line x1="110" y1="296.0" x2="940" y2="296.0" stroke="#e5e7eb" />
<line x1="110" y1="378.0" x2="940" y2="378.0" stroke="#e5e7eb" />
<line x1="110" y1="460.0" x2="940" y2="460.0" stroke="#e5e7eb" />
  <line x1="110" y1="460" x2="940" y2="460" stroke="#333" />
  <line x1="110" y1="50" x2="110" y2="460" stroke="#333" />
  <polyline fill="none" stroke="#1d4ed8" stroke-width="2.6" points="110.0,50.0 165.3,77.9 276.0,133.4 497.3,243.6 940.0,460.0" />
  <circle cx="110.0" cy="50.0" r="4.5" fill="#1d4ed8" />
<circle cx="165.3" cy="77.9" r="4.5" fill="#1d4ed8" />
<circle cx="276.0" cy="133.4" r="4.5" fill="#1d4ed8" />
<circle cx="497.3" cy="243.6" r="4.5" fill="#1d4ed8" />
<circle cx="940.0" cy="460.0" r="4.5" fill="#1d4ed8" />
  <text x="110.0" y="484.0" text-anchor="middle" font-size="12" font-family="Times New Roman">1024</text>
<text x="165.3" y="484.0" text-anchor="middle" font-size="12" font-family="Times New Roman">2048</text>
<text x="276.0" y="484.0" text-anchor="middle" font-size="12" font-family="Times New Roman">4096</text>
<text x="497.3" y="484.0" text-anchor="middle" font-size="12" font-family="Times New Roman">8192</text>
<text x="940.0" y="484.0" text-anchor="middle" font-size="12" font-family="Times New Roman">16384</text>
  <text x="525.0" y="520" text-anchor="middle" font-size="14" font-family="Times New Roman">context_len</text>
  <text x="28" y="255.0" transform="rotate(-90 28,255.0)" text-anchor="middle" font-size="14" font-family="Times New Roman">Throughput (tokens/sec)</text>
</svg>
