<svg xmlns="http://www.w3.org/2000/svg" width="1080" height="620">
  <rect x="0" y="0" width="1080" height="620" fill="#ffffff"/>
  <text x="540.0" y="36" text-anchor="middle" font-size="22" font-family="Times New Roman">A.F.O Stress Scenarios: Bridge Utilization</text>
  <line x1="130" y1="70.0" x2="1020" y2="70.0" stroke="#e5e7eb" /><line x1="130" y1="146.0" x2="1020" y2="146.0" stroke="#e5e7eb" /><line x1="130" y1="222.0" x2="1020" y2="222.0" stroke="#e5e7eb" /><line x1="130" y1="298.0" x2="1020" y2="298.0" stroke="#e5e7eb" /><line x1="130" y1="374.0" x2="1020" y2="374.0" stroke="#e5e7eb" /><line x1="130" y1="450.0" x2="1020" y2="450.0" stroke="#e5e7eb" />
  <line x1="130" y1="450" x2="1020" y2="450" stroke="#333" />
  <line x1="130" y1="70" x2="130" y2="450" stroke="#333" />
  <rect x="179.4" y="70.0" width="98.9" height="380.0" fill="#0f766e" opacity="0.88" /><text x="228.9" y="476.0" text-anchor="middle" font-size="12" font-family="Times New Roman">nominal</text><text x="228.9" y="64.0" text-anchor="middle" font-size="11" font-family="Times New Roman">0.33</text><rect x="327.8" y="269.3" width="98.9" height="180.7" fill="#0f766e" opacity="0.88" /><text x="377.2" y="476.0" text-anchor="middle" font-size="12" font-family="Times New Roman">peak_traffic</text><text x="377.2" y="263.3" text-anchor="middle" font-size="11" font-family="Times New Roman">0.16</text><rect x="476.1" y="291.0" width="98.9" height="159.0" fill="#0f766e" opacity="0.88" /><text x="525.6" y="476.0" text-anchor="middle" font-size="12" font-family="Times New Roman">bridge_saturation</text><text x="525.6" y="285.0" text-anchor="middle" font-size="11" font-family="Times New Roman">0.14</text><rect x="624.4" y="317.2" width="98.9" height="132.8" fill="#0f766e" opacity="0.88" /><text x="673.9" y="476.0" text-anchor="middle" font-size="12" font-family="Times New Roman">tsv_neck_pressure</text><text x="673.9" y="311.2" text-anchor="middle" font-size="11" font-family="Times New Roman">0.12</text><rect x="772.8" y="229.2" width="98.9" height="220.8" fill="#0f766e" opacity="0.88" /><text x="822.2" y="476.0" text-anchor="middle" font-size="12" font-family="Times New Roman">thermal_hot</text><text x="822.2" y="223.2" text-anchor="middle" font-size="11" font-family="Times New Roman">0.19</text><rect x="921.1" y="322.4" width="98.9" height="127.6" fill="#0f766e" opacity="0.88" /><text x="970.6" y="476.0" text-anchor="middle" font-size="12" font-family="Times New Roman">worst_case_tail</text><text x="970.6" y="316.4" text-anchor="middle" font-size="11" font-family="Times New Roman">0.11</text>
  <text x="575.0" y="548" text-anchor="middle" font-size="14" font-family="Times New Roman">scenario</text>
  <text x="32" y="260.0" transform="rotate(-90 32,260.0)" text-anchor="middle" font-size="14" font-family="Times New Roman">bridge_util</text>
</svg>
