mtllib afo_hardware_system_3d.mtl
o main_board
usemtl board
v 0.000000 0.000000 0.000000
v 520.000000 0.000000 0.000000
v 520.000000 330.000000 0.000000
v 0.000000 330.000000 0.000000
v 0.000000 0.000000 10.000000
v 520.000000 0.000000 10.000000
v 520.000000 330.000000 10.000000
v 0.000000 330.000000 10.000000
f 1 2 3
f 1 3 4
f 5 7 6
f 5 8 7
f 1 5 6
f 1 6 2
f 2 6 7
f 2 7 3
f 3 7 8
f 3 8 4
f 4 8 5
f 4 5 1
o chip_socket
usemtl socket
v 170.000000 100.000000 12.000000
v 350.000000 100.000000 12.000000
v 350.000000 220.000000 12.000000
v 170.000000 220.000000 12.000000
v 170.000000 100.000000 20.000000
v 350.000000 100.000000 20.000000
v 350.000000 220.000000 20.000000
v 170.000000 220.000000 20.000000
f 9 10 11
f 9 11 12
f 13 15 14
f 13 16 15
f 9 13 14
f 9 14 10
f 10 14 15
f 10 15 11
f 11 15 16
f 11 16 12
f 12 16 13
f 12 13 9
o afo_chip_pkg
usemtl chip_pkg
v 190.000000 118.000000 22.000000
v 330.000000 118.000000 22.000000
v 330.000000 203.000000 22.000000
v 190.000000 203.000000 22.000000
v 190.000000 118.000000 40.000000
v 330.000000 118.000000 40.000000
v 330.000000 203.000000 40.000000
v 190.000000 203.000000 40.000000
f 17 18 19
f 17 19 20
f 21 23 22
f 21 24 23
f 17 21 22
f 17 22 18
f 18 22 23
f 18 23 19
f 19 23 24
f 19 24 20
f 20 24 21
f 20 21 17
o heatsink_base
usemtl heatsink
v 180.000000 108.000000 42.000000
v 340.000000 108.000000 42.000000
v 340.000000 213.000000 42.000000
v 180.000000 213.000000 42.000000
v 180.000000 108.000000 50.000000
v 340.000000 108.000000 50.000000
v 340.000000 213.000000 50.000000
v 180.000000 213.000000 50.000000
f 25 26 27
f 25 27 28
f 29 31 30
f 29 32 31
f 25 29 30
f 25 30 26
f 26 30 31
f 26 31 27
f 27 31 32
f 27 32 28
f 28 32 29
f 28 29 25
o fin_0
usemtl heatsink
v 186.000000 112.000000 50.000000
v 192.000000 112.000000 50.000000
v 192.000000 208.000000 50.000000
v 186.000000 208.000000 50.000000
v 186.000000 112.000000 84.000000
v 192.000000 112.000000 84.000000
v 192.000000 208.000000 84.000000
v 186.000000 208.000000 84.000000
f 33 34 35
f 33 35 36
f 37 39 38
f 37 40 39
f 33 37 38
f 33 38 34
f 34 38 39
f 34 39 35
f 35 39 40
f 35 40 36
f 36 40 37
f 36 37 33
o fin_1
usemtl heatsink
v 200.000000 112.000000 50.000000
v 206.000000 112.000000 50.000000
v 206.000000 208.000000 50.000000
v 200.000000 208.000000 50.000000
v 200.000000 112.000000 84.000000
v 206.000000 112.000000 84.000000
v 206.000000 208.000000 84.000000
v 200.000000 208.000000 84.000000
f 41 42 43
f 41 43 44
f 45 47 46
f 45 48 47
f 41 45 46
f 41 46 42
f 42 46 47
f 42 47 43
f 43 47 48
f 43 48 44
f 44 48 45
f 44 45 41
o fin_2
usemtl heatsink
v 214.000000 112.000000 50.000000
v 220.000000 112.000000 50.000000
v 220.000000 208.000000 50.000000
v 214.000000 208.000000 50.000000
v 214.000000 112.000000 84.000000
v 220.000000 112.000000 84.000000
v 220.000000 208.000000 84.000000
v 214.000000 208.000000 84.000000
f 49 50 51
f 49 51 52
f 53 55 54
f 53 56 55
f 49 53 54
f 49 54 50
f 50 54 55
f 50 55 51
f 51 55 56
f 51 56 52
f 52 56 53
f 52 53 49
o fin_3
usemtl heatsink
v 228.000000 112.000000 50.000000
v 234.000000 112.000000 50.000000
v 234.000000 208.000000 50.000000
v 228.000000 208.000000 50.000000
v 228.000000 112.000000 84.000000
v 234.000000 112.000000 84.000000
v 234.000000 208.000000 84.000000
v 228.000000 208.000000 84.000000
f 57 58 59
f 57 59 60
f 61 63 62
f 61 64 63
f 57 61 62
f 57 62 58
f 58 62 63
f 58 63 59
f 59 63 64
f 59 64 60
f 60 64 61
f 60 61 57
o fin_4
usemtl heatsink
v 242.000000 112.000000 50.000000
v 248.000000 112.000000 50.000000
v 248.000000 208.000000 50.000000
v 242.000000 208.000000 50.000000
v 242.000000 112.000000 84.000000
v 248.000000 112.000000 84.000000
v 248.000000 208.000000 84.000000
v 242.000000 208.000000 84.000000
f 65 66 67
f 65 67 68
f 69 71 70
f 69 72 71
f 65 69 70
f 65 70 66
f 66 70 71
f 66 71 67
f 67 71 72
f 67 72 68
f 68 72 69
f 68 69 65
o fin_5
usemtl heatsink
v 256.000000 112.000000 50.000000
v 262.000000 112.000000 50.000000
v 262.000000 208.000000 50.000000
v 256.000000 208.000000 50.000000
v 256.000000 112.000000 84.000000
v 262.000000 112.000000 84.000000
v 262.000000 208.000000 84.000000
v 256.000000 208.000000 84.000000
f 73 74 75
f 73 75 76
f 77 79 78
f 77 80 79
f 73 77 78
f 73 78 74
f 74 78 79
f 74 79 75
f 75 79 80
f 75 80 76
f 76 80 77
f 76 77 73
o fin_6
usemtl heatsink
v 270.000000 112.000000 50.000000
v 276.000000 112.000000 50.000000
v 276.000000 208.000000 50.000000
v 270.000000 208.000000 50.000000
v 270.000000 112.000000 84.000000
v 276.000000 112.000000 84.000000
v 276.000000 208.000000 84.000000
v 270.000000 208.000000 84.000000
f 81 82 83
f 81 83 84
f 85 87 86
f 85 88 87
f 81 85 86
f 81 86 82
f 82 86 87
f 82 87 83
f 83 87 88
f 83 88 84
f 84 88 85
f 84 85 81
o fin_7
usemtl heatsink
v 284.000000 112.000000 50.000000
v 290.000000 112.000000 50.000000
v 290.000000 208.000000 50.000000
v 284.000000 208.000000 50.000000
v 284.000000 112.000000 84.000000
v 290.000000 112.000000 84.000000
v 290.000000 208.000000 84.000000
v 284.000000 208.000000 84.000000
f 89 90 91
f 89 91 92
f 93 95 94
f 93 96 95
f 89 93 94
f 89 94 90
f 90 94 95
f 90 95 91
f 91 95 96
f 91 96 92
f 92 96 93
f 92 93 89
o fin_8
usemtl heatsink
v 298.000000 112.000000 50.000000
v 304.000000 112.000000 50.000000
v 304.000000 208.000000 50.000000
v 298.000000 208.000000 50.000000
v 298.000000 112.000000 84.000000
v 304.000000 112.000000 84.000000
v 304.000000 208.000000 84.000000
v 298.000000 208.000000 84.000000
f 97 98 99
f 97 99 100
f 101 103 102
f 101 104 103
f 97 101 102
f 97 102 98
f 98 102 103
f 98 103 99
f 99 103 104
f 99 104 100
f 100 104 101
f 100 101 97
o fin_9
usemtl heatsink
v 312.000000 112.000000 50.000000
v 318.000000 112.000000 50.000000
v 318.000000 208.000000 50.000000
v 312.000000 208.000000 50.000000
v 312.000000 112.000000 84.000000
v 318.000000 112.000000 84.000000
v 318.000000 208.000000 84.000000
v 312.000000 208.000000 84.000000
f 105 106 107
f 105 107 108
f 109 111 110
f 109 112 111
f 105 109 110
f 105 110 106
f 106 110 111
f 106 111 107
f 107 111 112
f 107 112 108
f 108 112 109
f 108 109 105
o fan_hub
usemtl fan
v 245.000000 145.000000 86.000000
v 275.000000 145.000000 86.000000
v 275.000000 175.000000 86.000000
v 245.000000 175.000000 86.000000
v 245.000000 145.000000 94.000000
v 275.000000 145.000000 94.000000
v 275.000000 175.000000 94.000000
v 245.000000 175.000000 94.000000
f 113 114 115
f 113 115 116
f 117 119 118
f 117 120 119
f 113 117 118
f 113 118 114
f 114 118 119
f 114 119 115
f 115 119 120
f 115 120 116
f 116 120 117
f 116 117 113
o fan_frame
usemtl fan
v 220.000000 120.000000 82.000000
v 300.000000 120.000000 82.000000
v 300.000000 200.000000 82.000000
v 220.000000 200.000000 82.000000
v 220.000000 120.000000 88.000000
v 300.000000 120.000000 88.000000
v 300.000000 200.000000 88.000000
v 220.000000 200.000000 88.000000
f 121 122 123
f 121 123 124
f 125 127 126
f 125 128 127
f 121 125 126
f 121 126 122
f 122 126 127
f 122 127 123
f 123 127 128
f 123 128 124
f 124 128 125
f 124 125 121
o vrm_0
usemtl vrm
v 120.000000 70.000000 12.000000
v 134.000000 70.000000 12.000000
v 134.000000 88.000000 12.000000
v 120.000000 88.000000 12.000000
v 120.000000 70.000000 20.000000
v 134.000000 70.000000 20.000000
v 134.000000 88.000000 20.000000
v 120.000000 88.000000 20.000000
f 129 130 131
f 129 131 132
f 133 135 134
f 133 136 135
f 129 133 134
f 129 134 130
f 130 134 135
f 130 135 131
f 131 135 136
f 131 136 132
f 132 136 133
f 132 133 129
o vrm_1
usemtl vrm
v 140.000000 70.000000 12.000000
v 154.000000 70.000000 12.000000
v 154.000000 88.000000 12.000000
v 140.000000 88.000000 12.000000
v 140.000000 70.000000 20.000000
v 154.000000 70.000000 20.000000
v 154.000000 88.000000 20.000000
v 140.000000 88.000000 20.000000
f 137 138 139
f 137 139 140
f 141 143 142
f 141 144 143
f 137 141 142
f 137 142 138
f 138 142 143
f 138 143 139
f 139 143 144
f 139 144 140
f 140 144 141
f 140 141 137
o vrm_2
usemtl vrm
v 160.000000 70.000000 12.000000
v 174.000000 70.000000 12.000000
v 174.000000 88.000000 12.000000
v 160.000000 88.000000 12.000000
v 160.000000 70.000000 20.000000
v 174.000000 70.000000 20.000000
v 174.000000 88.000000 20.000000
v 160.000000 88.000000 20.000000
f 145 146 147
f 145 147 148
f 149 151 150
f 149 152 151
f 145 149 150
f 145 150 146
f 146 150 151
f 146 151 147
f 147 151 152
f 147 152 148
f 148 152 149
f 148 149 145
o vrm_3
usemtl vrm
v 180.000000 70.000000 12.000000
v 194.000000 70.000000 12.000000
v 194.000000 88.000000 12.000000
v 180.000000 88.000000 12.000000
v 180.000000 70.000000 20.000000
v 194.000000 70.000000 20.000000
v 194.000000 88.000000 20.000000
v 180.000000 88.000000 20.000000
f 153 154 155
f 153 155 156
f 157 159 158
f 157 160 159
f 153 157 158
f 153 158 154
f 154 158 159
f 154 159 155
f 155 159 160
f 155 160 156
f 156 160 157
f 156 157 153
o vrm_4
usemtl vrm
v 200.000000 70.000000 12.000000
v 214.000000 70.000000 12.000000
v 214.000000 88.000000 12.000000
v 200.000000 88.000000 12.000000
v 200.000000 70.000000 20.000000
v 214.000000 70.000000 20.000000
v 214.000000 88.000000 20.000000
v 200.000000 88.000000 20.000000
f 161 162 163
f 161 163 164
f 165 167 166
f 165 168 167
f 161 165 166
f 161 166 162
f 162 166 167
f 162 167 163
f 163 167 168
f 163 168 164
f 164 168 165
f 164 165 161
o vrm_5
usemtl vrm
v 220.000000 70.000000 12.000000
v 234.000000 70.000000 12.000000
v 234.000000 88.000000 12.000000
v 220.000000 88.000000 12.000000
v 220.000000 70.000000 20.000000
v 234.000000 70.000000 20.000000
v 234.000000 88.000000 20.000000
v 220.000000 88.000000 20.000000
f 169 170 171
f 169 171 172
f 173 175 174
f 173 176 175
f 169 173 174
f 169 174 170
f 170 174 175
f 170 175 171
f 171 175 176
f 171 176 172
f 172 176 173
f 172 173 169
o vrm_6
usemtl vrm
v 240.000000 70.000000 12.000000
v 254.000000 70.000000 12.000000
v 254.000000 88.000000 12.000000
v 240.000000 88.000000 12.000000
v 240.000000 70.000000 20.000000
v 254.000000 70.000000 20.000000
v 254.000000 88.000000 20.000000
v 240.000000 88.000000 20.000000
f 177 178 179
f 177 179 180
f 181 183 182
f 181 184 183
f 177 181 182
f 177 182 178
f 178 182 183
f 178 183 179
f 179 183 184
f 179 184 180
f 180 184 181
f 180 181 177
o vrm_7
usemtl vrm
v 260.000000 70.000000 12.000000
v 274.000000 70.000000 12.000000
v 274.000000 88.000000 12.000000
v 260.000000 88.000000 12.000000
v 260.000000 70.000000 20.000000
v 274.000000 70.000000 20.000000
v 274.000000 88.000000 20.000000
v 260.000000 88.000000 20.000000
f 185 186 187
f 185 187 188
f 189 191 190
f 189 192 191
f 185 189 190
f 185 190 186
f 186 190 191
f 186 191 187
f 187 191 192
f 187 192 188
f 188 192 189
f 188 189 185
o cxl_slot0
usemtl cxl
v 380.000000 40.000000 12.000000
v 490.000000 40.000000 12.000000
v 490.000000 56.000000 12.000000
v 380.000000 56.000000 12.000000
v 380.000000 40.000000 24.000000
v 490.000000 40.000000 24.000000
v 490.000000 56.000000 24.000000
v 380.000000 56.000000 24.000000
f 193 194 195
f 193 195 196
f 197 199 198
f 197 200 199
f 193 197 198
f 193 198 194
f 194 198 199
f 194 199 195
f 195 199 200
f 195 200 196
f 196 200 197
f 196 197 193
o cxl_slot1
usemtl cxl
v 380.000000 70.000000 12.000000
v 490.000000 70.000000 12.000000
v 490.000000 86.000000 12.000000
v 380.000000 86.000000 12.000000
v 380.000000 70.000000 24.000000
v 490.000000 70.000000 24.000000
v 490.000000 86.000000 24.000000
v 380.000000 86.000000 24.000000
f 201 202 203
f 201 203 204
f 205 207 206
f 205 208 207
f 201 205 206
f 201 206 202
f 202 206 207
f 202 207 203
f 203 207 208
f 203 208 204
f 204 208 205
f 204 205 201
o dram_mod0
usemtl dram
v 70.000000 245.000000 12.000000
v 210.000000 245.000000 12.000000
v 210.000000 261.000000 12.000000
v 70.000000 261.000000 12.000000
v 70.000000 245.000000 36.000000
v 210.000000 245.000000 36.000000
v 210.000000 261.000000 36.000000
v 70.000000 261.000000 36.000000
f 209 210 211
f 209 211 212
f 213 215 214
f 213 216 215
f 209 213 214
f 209 214 210
f 210 214 215
f 210 215 211
f 211 215 216
f 211 216 212
f 212 216 213
f 212 213 209
o dram_mod1
usemtl dram
v 70.000000 270.000000 12.000000
v 210.000000 270.000000 12.000000
v 210.000000 286.000000 12.000000
v 70.000000 286.000000 12.000000
v 70.000000 270.000000 36.000000
v 210.000000 270.000000 36.000000
v 210.000000 286.000000 36.000000
v 70.000000 286.000000 36.000000
f 217 218 219
f 217 219 220
f 221 223 222
f 221 224 223
f 217 221 222
f 217 222 218
f 218 222 223
f 218 223 219
f 219 223 224
f 219 224 220
f 220 224 221
f 220 221 217
o psu_block
usemtl psu
v 20.000000 20.000000 12.000000
v 90.000000 20.000000 12.000000
v 90.000000 65.000000 12.000000
v 20.000000 65.000000 12.000000
v 20.000000 20.000000 36.000000
v 90.000000 20.000000 36.000000
v 90.000000 65.000000 36.000000
v 20.000000 65.000000 36.000000
f 225 226 227
f 225 227 228
f 229 231 230
f 229 232 231
f 225 229 230
f 225 230 226
f 226 230 231
f 226 231 227
f 227 231 232
f 227 232 228
f 228 232 229
f 228 229 225
