mtllib afo_chip_package_3d.mtl
o substrate
usemtl substrate
v 0.000000 0.000000 0.000000
v 220.000000 0.000000 0.000000
v 220.000000 160.000000 0.000000
v 0.000000 160.000000 0.000000
v 0.000000 0.000000 8.000000
v 220.000000 0.000000 8.000000
v 220.000000 160.000000 8.000000
v 0.000000 160.000000 8.000000
f 1 2 3
f 1 3 4
f 5 7 6
f 5 8 7
f 1 5 6
f 1 6 2
f 2 6 7
f 2 7 3
f 3 7 8
f 3 8 4
f 4 8 5
f 4 5 1
o bridge
usemtl bridge
v 28.000000 23.000000 30.000000
v 192.000000 23.000000 30.000000
v 192.000000 137.000000 30.000000
v 28.000000 137.000000 30.000000
v 28.000000 23.000000 32.200000
v 192.000000 23.000000 32.200000
v 192.000000 137.000000 32.200000
v 28.000000 137.000000 32.200000
f 9 10 11
f 9 11 12
f 13 15 14
f 13 16 15
f 9 13 14
f 9 14 10
f 10 14 15
f 10 15 11
f 11 15 16
f 11 16 12
f 12 16 13
f 12 13 9
o compute_die
usemtl compute_die
v 30.000000 25.000000 34.000000
v 190.000000 25.000000 34.000000
v 190.000000 135.000000 34.000000
v 30.000000 135.000000 34.000000
v 30.000000 25.000000 43.000000
v 190.000000 25.000000 43.000000
v 190.000000 135.000000 43.000000
v 30.000000 135.000000 43.000000
f 17 18 19
f 17 19 20
f 21 23 22
f 21 24 23
f 17 21 22
f 17 22 18
f 18 22 23
f 18 23 19
f 19 23 24
f 19 24 20
f 20 24 21
f 20 21 17
o cpu_cluster
usemtl cpu_zone
v 40.000000 95.000000 43.200000
v 85.000000 95.000000 43.200000
v 85.000000 125.000000 43.200000
v 40.000000 125.000000 43.200000
v 40.000000 95.000000 45.400000
v 85.000000 95.000000 45.400000
v 85.000000 125.000000 45.400000
v 40.000000 125.000000 45.400000
f 25 26 27
f 25 27 28
f 29 31 30
f 29 32 31
f 25 29 30
f 25 30 26
f 26 30 31
f 26 31 27
f 27 31 32
f 27 32 28
f 28 32 29
f 28 29 25
o gpu_array_w
usemtl gpu_zone
v 40.000000 30.000000 43.200000
v 95.000000 30.000000 43.200000
v 95.000000 85.000000 43.200000
v 40.000000 85.000000 43.200000
v 40.000000 30.000000 45.400000
v 95.000000 30.000000 45.400000
v 95.000000 85.000000 45.400000
v 40.000000 85.000000 45.400000
f 33 34 35
f 33 35 36
f 37 39 38
f 37 40 39
f 33 37 38
f 33 38 34
f 34 38 39
f 34 39 35
f 35 39 40
f 35 40 36
f 36 40 37
f 36 37 33
o gpu_array_e
usemtl gpu_zone
v 125.000000 30.000000 43.200000
v 180.000000 30.000000 43.200000
v 180.000000 85.000000 43.200000
v 125.000000 85.000000 43.200000
v 125.000000 30.000000 45.400000
v 180.000000 30.000000 45.400000
v 180.000000 85.000000 45.400000
v 125.000000 85.000000 45.400000
f 41 42 43
f 41 43 44
f 45 47 46
f 45 48 47
f 41 45 46
f 41 46 42
f 42 46 47
f 42 47 43
f 43 47 48
f 43 48 44
f 44 48 45
f 44 45 41
o npu_matrix
usemtl npu_zone
v 98.000000 95.000000 43.200000
v 150.000000 95.000000 43.200000
v 150.000000 125.000000 43.200000
v 98.000000 125.000000 43.200000
v 98.000000 95.000000 45.400000
v 150.000000 95.000000 45.400000
v 150.000000 125.000000 45.400000
v 98.000000 125.000000 45.400000
f 49 50 51
f 49 51 52
f 53 55 54
f 53 56 55
f 49 53 54
f 49 54 50
f 50 54 55
f 50 55 51
f 51 55 56
f 51 56 52
f 52 56 53
f 52 53 49
o sram_banks
usemtl sram_zone
v 96.000000 58.000000 43.200000
v 154.000000 58.000000 43.200000
v 154.000000 86.000000 43.200000
v 96.000000 86.000000 43.200000
v 96.000000 58.000000 45.400000
v 154.000000 58.000000 45.400000
v 154.000000 86.000000 45.400000
v 96.000000 86.000000 45.400000
f 57 58 59
f 57 59 60
f 61 63 62
f 61 64 63
f 57 61 62
f 57 62 58
f 58 62 63
f 58 63 59
f 59 63 64
f 59 64 60
f 60 64 61
f 60 61 57
o hbm_ring_bottom
usemtl hbm
v 25.000000 18.000000 10.000000
v 195.000000 18.000000 10.000000
v 195.000000 32.000000 10.000000
v 25.000000 32.000000 10.000000
v 25.000000 18.000000 26.000000
v 195.000000 18.000000 26.000000
v 195.000000 32.000000 26.000000
v 25.000000 32.000000 26.000000
f 65 66 67
f 65 67 68
f 69 71 70
f 69 72 71
f 65 69 70
f 65 70 66
f 66 70 71
f 66 71 67
f 67 71 72
f 67 72 68
f 68 72 69
f 68 69 65
o hbm_ring_top
usemtl hbm
v 25.000000 128.000000 10.000000
v 195.000000 128.000000 10.000000
v 195.000000 142.000000 10.000000
v 25.000000 142.000000 10.000000
v 25.000000 128.000000 26.000000
v 195.000000 128.000000 26.000000
v 195.000000 142.000000 26.000000
v 25.000000 142.000000 26.000000
f 73 74 75
f 73 75 76
f 77 79 78
f 77 80 79
f 73 77 78
f 73 78 74
f 74 78 79
f 74 79 75
f 75 79 80
f 75 80 76
f 76 80 77
f 76 77 73
o hbm_ring_left
usemtl hbm
v 25.000000 32.000000 10.000000
v 39.000000 32.000000 10.000000
v 39.000000 128.000000 10.000000
v 25.000000 128.000000 10.000000
v 25.000000 32.000000 26.000000
v 39.000000 32.000000 26.000000
v 39.000000 128.000000 26.000000
v 25.000000 128.000000 26.000000
f 81 82 83
f 81 83 84
f 85 87 86
f 85 88 87
f 81 85 86
f 81 86 82
f 82 86 87
f 82 87 83
f 83 87 88
f 83 88 84
f 84 88 85
f 84 85 81
o hbm_ring_right
usemtl hbm
v 181.000000 32.000000 10.000000
v 195.000000 32.000000 10.000000
v 195.000000 128.000000 10.000000
v 181.000000 128.000000 10.000000
v 181.000000 32.000000 26.000000
v 195.000000 32.000000 26.000000
v 195.000000 128.000000 26.000000
v 181.000000 128.000000 26.000000
f 89 90 91
f 89 91 92
f 93 95 94
f 93 96 95
f 89 93 94
f 89 94 90
f 90 94 95
f 90 95 91
f 91 95 96
f 91 96 92
f 92 96 93
f 92 93 89
o hbf_ring_bottom
usemtl hbf
v 8.000000 2.000000 10.000000
v 212.000000 2.000000 10.000000
v 212.000000 14.000000 10.000000
v 8.000000 14.000000 10.000000
v 8.000000 2.000000 28.000000
v 212.000000 2.000000 28.000000
v 212.000000 14.000000 28.000000
v 8.000000 14.000000 28.000000
f 97 98 99
f 97 99 100
f 101 103 102
f 101 104 103
f 97 101 102
f 97 102 98
f 98 102 103
f 98 103 99
f 99 103 104
f 99 104 100
f 100 104 101
f 100 101 97
o hbf_ring_top
usemtl hbf
v 8.000000 146.000000 10.000000
v 212.000000 146.000000 10.000000
v 212.000000 158.000000 10.000000
v 8.000000 158.000000 10.000000
v 8.000000 146.000000 28.000000
v 212.000000 146.000000 28.000000
v 212.000000 158.000000 28.000000
v 8.000000 158.000000 28.000000
f 105 106 107
f 105 107 108
f 109 111 110
f 109 112 111
f 105 109 110
f 105 110 106
f 106 110 111
f 106 111 107
f 107 111 112
f 107 112 108
f 108 112 109
f 108 109 105
o hbf_ring_left
usemtl hbf
v 8.000000 14.000000 10.000000
v 20.000000 14.000000 10.000000
v 20.000000 146.000000 10.000000
v 8.000000 146.000000 10.000000
v 8.000000 14.000000 28.000000
v 20.000000 14.000000 28.000000
v 20.000000 146.000000 28.000000
v 8.000000 146.000000 28.000000
f 113 114 115
f 113 115 116
f 117 119 118
f 117 120 119
f 113 117 118
f 113 118 114
f 114 118 119
f 114 119 115
f 115 119 120
f 115 120 116
f 116 120 117
f 116 117 113
o hbf_ring_right
usemtl hbf
v 200.000000 14.000000 10.000000
v 212.000000 14.000000 10.000000
v 212.000000 146.000000 10.000000
v 200.000000 146.000000 10.000000
v 200.000000 14.000000 28.000000
v 212.000000 14.000000 28.000000
v 212.000000 146.000000 28.000000
v 200.000000 146.000000 28.000000
f 121 122 123
f 121 123 124
f 125 127 126
f 125 128 127
f 121 125 126
f 121 126 122
f 122 126 127
f 122 127 123
f 123 127 128
f 123 128 124
f 124 128 125
f 124 125 121
