solid afo_chip_package_3d
  facet normal 0.000000e+00 0.000000e+00 1.000000e+00
    outer loop
      vertex 0.000000e+00 0.000000e+00 0.000000e+00
      vertex 2.200000e+02 0.000000e+00 0.000000e+00
      vertex 2.200000e+02 1.600000e+02 0.000000e+00
    endloop
  endfacet
  facet normal 0.000000e+00 0.000000e+00 1.000000e+00
    outer loop
      vertex 0.000000e+00 0.000000e+00 0.000000e+00
      vertex 2.200000e+02 1.600000e+02 0.000000e+00
      vertex 0.000000e+00 1.600000e+02 0.000000e+00
    endloop
  endfacet
  facet normal 0.000000e+00 0.000000e+00 -1.000000e+00
    outer loop
      vertex 0.000000e+00 0.000000e+00 8.000000e+00
      vertex 2.200000e+02 1.600000e+02 8.000000e+00
      vertex 2.200000e+02 0.000000e+00 8.000000e+00
    endloop
  endfacet
  facet normal 0.000000e+00 0.000000e+00 -1.000000e+00
    outer loop
      vertex 0.000000e+00 0.000000e+00 8.000000e+00
      vertex 0.000000e+00 1.600000e+02 8.000000e+00
      vertex 2.200000e+02 1.600000e+02 8.000000e+00
    endloop
  endfacet
  facet normal 0.000000e+00 1.000000e+00 0.000000e+00
    outer loop
      vertex 0.000000e+00 0.000000e+00 0.000000e+00
      vertex 0.000000e+00 0.000000e+00 8.000000e+00
      vertex 2.200000e+02 0.000000e+00 8.000000e+00
    endloop
  endfacet
  facet normal 0.000000e+00 1.000000e+00 0.000000e+00
    outer loop
      vertex 0.000000e+00 0.000000e+00 0.000000e+00
      vertex 2.200000e+02 0.000000e+00 8.000000e+00
      vertex 2.200000e+02 0.000000e+00 0.000000e+00
    endloop
  endfacet
  facet normal -1.000000e+00 0.000000e+00 0.000000e+00
    outer loop
      vertex 2.200000e+02 0.000000e+00 0.000000e+00
      vertex 2.200000e+02 0.000000e+00 8.000000e+00
      vertex 2.200000e+02 1.600000e+02 8.000000e+00
    endloop
  endfacet
  facet normal -1.000000e+00 0.000000e+00 0.000000e+00
    outer loop
      vertex 2.200000e+02 0.000000e+00 0.000000e+00
      vertex 2.200000e+02 1.600000e+02 8.000000e+00
      vertex 2.200000e+02 1.600000e+02 0.000000e+00
    endloop
  endfacet
  facet normal 0.000000e+00 -1.000000e+00 0.000000e+00
    outer loop
      vertex 2.200000e+02 1.600000e+02 0.000000e+00
      vertex 2.200000e+02 1.600000e+02 8.000000e+00
      vertex 0.000000e+00 1.600000e+02 8.000000e+00
    endloop
  endfacet
  facet normal 0.000000e+00 -1.000000e+00 0.000000e+00
    outer loop
      vertex 2.200000e+02 1.600000e+02 0.000000e+00
      vertex 0.000000e+00 1.600000e+02 8.000000e+00
      vertex 0.000000e+00 1.600000e+02 0.000000e+00
    endloop
  endfacet
  facet normal 1.000000e+00 0.000000e+00 0.000000e+00
    outer loop
      vertex 0.000000e+00 1.600000e+02 0.000000e+00
      vertex 0.000000e+00 1.600000e+02 8.000000e+00
      vertex 0.000000e+00 0.000000e+00 8.000000e+00
    endloop
  endfacet
  facet normal 1.000000e+00 0.000000e+00 0.000000e+00
    outer loop
      vertex 0.000000e+00 1.600000e+02 0.000000e+00
      vertex 0.000000e+00 0.000000e+00 8.000000e+00
      vertex 0.000000e+00 0.000000e+00 0.000000e+00
    endloop
  endfacet
  facet normal 0.000000e+00 0.000000e+00 1.000000e+00
    outer loop
      vertex 2.800000e+01 2.300000e+01 3.000000e+01
      vertex 1.920000e+02 2.300000e+01 3.000000e+01
      vertex 1.920000e+02 1.370000e+02 3.000000e+01
    endloop
  endfacet
  facet normal 0.000000e+00 0.000000e+00 1.000000e+00
    outer loop
      vertex 2.800000e+01 2.300000e+01 3.000000e+01
      vertex 1.920000e+02 1.370000e+02 3.000000e+01
      vertex 2.800000e+01 1.370000e+02 3.000000e+01
    endloop
  endfacet
  facet normal 0.000000e+00 0.000000e+00 -1.000000e+00
    outer loop
      vertex 2.800000e+01 2.300000e+01 3.220000e+01
      vertex 1.920000e+02 1.370000e+02 3.220000e+01
      vertex 1.920000e+02 2.300000e+01 3.220000e+01
    endloop
  endfacet
  facet normal 0.000000e+00 0.000000e+00 -1.000000e+00
    outer loop
      vertex 2.800000e+01 2.300000e+01 3.220000e+01
      vertex 2.800000e+01 1.370000e+02 3.220000e+01
      vertex 1.920000e+02 1.370000e+02 3.220000e+01
    endloop
  endfacet
  facet normal 0.000000e+00 1.000000e+00 0.000000e+00
    outer loop
      vertex 2.800000e+01 2.300000e+01 3.000000e+01
      vertex 2.800000e+01 2.300000e+01 3.220000e+01
      vertex 1.920000e+02 2.300000e+01 3.220000e+01
    endloop
  endfacet
  facet normal 0.000000e+00 1.000000e+00 0.000000e+00
    outer loop
      vertex 2.800000e+01 2.300000e+01 3.000000e+01
      vertex 1.920000e+02 2.300000e+01 3.220000e+01
      vertex 1.920000e+02 2.300000e+01 3.000000e+01
    endloop
  endfacet
  facet normal -1.000000e+00 0.000000e+00 0.000000e+00
    outer loop
      vertex 1.920000e+02 2.300000e+01 3.000000e+01
      vertex 1.920000e+02 2.300000e+01 3.220000e+01
      vertex 1.920000e+02 1.370000e+02 3.220000e+01
    endloop
  endfacet
  facet normal -1.000000e+00 0.000000e+00 0.000000e+00
    outer loop
      vertex 1.920000e+02 2.300000e+01 3.000000e+01
      vertex 1.920000e+02 1.370000e+02 3.220000e+01
      vertex 1.920000e+02 1.370000e+02 3.000000e+01
    endloop
  endfacet
  facet normal 0.000000e+00 -1.000000e+00 0.000000e+00
    outer loop
      vertex 1.920000e+02 1.370000e+02 3.000000e+01
      vertex 1.920000e+02 1.370000e+02 3.220000e+01
      vertex 2.800000e+01 1.370000e+02 3.220000e+01
    endloop
  endfacet
  facet normal 0.000000e+00 -1.000000e+00 0.000000e+00
    outer loop
      vertex 1.920000e+02 1.370000e+02 3.000000e+01
      vertex 2.800000e+01 1.370000e+02 3.220000e+01
      vertex 2.800000e+01 1.370000e+02 3.000000e+01
    endloop
  endfacet
  facet normal 1.000000e+00 0.000000e+00 0.000000e+00
    outer loop
      vertex 2.800000e+01 1.370000e+02 3.000000e+01
      vertex 2.800000e+01 1.370000e+02 3.220000e+01
      vertex 2.800000e+01 2.300000e+01 3.220000e+01
    endloop
  endfacet
  facet normal 1.000000e+00 0.000000e+00 0.000000e+00
    outer loop
      vertex 2.800000e+01 1.370000e+02 3.000000e+01
      vertex 2.800000e+01 2.300000e+01 3.220000e+01
      vertex 2.800000e+01 2.300000e+01 3.000000e+01
    endloop
  endfacet
  facet normal 0.000000e+00 0.000000e+00 1.000000e+00
    outer loop
      vertex 3.000000e+01 2.500000e+01 3.400000e+01
      vertex 1.900000e+02 2.500000e+01 3.400000e+01
      vertex 1.900000e+02 1.350000e+02 3.400000e+01
    endloop
  endfacet
  facet normal 0.000000e+00 0.000000e+00 1.000000e+00
    outer loop
      vertex 3.000000e+01 2.500000e+01 3.400000e+01
      vertex 1.900000e+02 1.350000e+02 3.400000e+01
      vertex 3.000000e+01 1.350000e+02 3.400000e+01
    endloop
  endfacet
  facet normal 0.000000e+00 0.000000e+00 -1.000000e+00
    outer loop
      vertex 3.000000e+01 2.500000e+01 4.300000e+01
      vertex 1.900000e+02 1.350000e+02 4.300000e+01
      vertex 1.900000e+02 2.500000e+01 4.300000e+01
    endloop
  endfacet
  facet normal 0.000000e+00 0.000000e+00 -1.000000e+00
    outer loop
      vertex 3.000000e+01 2.500000e+01 4.300000e+01
      vertex 3.000000e+01 1.350000e+02 4.300000e+01
      vertex 1.900000e+02 1.350000e+02 4.300000e+01
    endloop
  endfacet
  facet normal 0.000000e+00 1.000000e+00 0.000000e+00
    outer loop
      vertex 3.000000e+01 2.500000e+01 3.400000e+01
      vertex 3.000000e+01 2.500000e+01 4.300000e+01
      vertex 1.900000e+02 2.500000e+01 4.300000e+01
    endloop
  endfacet
  facet normal 0.000000e+00 1.000000e+00 0.000000e+00
    outer loop
      vertex 3.000000e+01 2.500000e+01 3.400000e+01
      vertex 1.900000e+02 2.500000e+01 4.300000e+01
      vertex 1.900000e+02 2.500000e+01 3.400000e+01
    endloop
  endfacet
  facet normal -1.000000e+00 0.000000e+00 0.000000e+00
    outer loop
      vertex 1.900000e+02 2.500000e+01 3.400000e+01
      vertex 1.900000e+02 2.500000e+01 4.300000e+01
      vertex 1.900000e+02 1.350000e+02 4.300000e+01
    endloop
  endfacet
  facet normal -1.000000e+00 0.000000e+00 0.000000e+00
    outer loop
      vertex 1.900000e+02 2.500000e+01 3.400000e+01
      vertex 1.900000e+02 1.350000e+02 4.300000e+01
      vertex 1.900000e+02 1.350000e+02 3.400000e+01
    endloop
  endfacet
  facet normal 0.000000e+00 -1.000000e+00 0.000000e+00
    outer loop
      vertex 1.900000e+02 1.350000e+02 3.400000e+01
      vertex 1.900000e+02 1.350000e+02 4.300000e+01
      vertex 3.000000e+01 1.350000e+02 4.300000e+01
    endloop
  endfacet
  facet normal 0.000000e+00 -1.000000e+00 0.000000e+00
    outer loop
      vertex 1.900000e+02 1.350000e+02 3.400000e+01
      vertex 3.000000e+01 1.350000e+02 4.300000e+01
      vertex 3.000000e+01 1.350000e+02 3.400000e+01
    endloop
  endfacet
  facet normal 1.000000e+00 0.000000e+00 0.000000e+00
    outer loop
      vertex 3.000000e+01 1.350000e+02 3.400000e+01
      vertex 3.000000e+01 1.350000e+02 4.300000e+01
      vertex 3.000000e+01 2.500000e+01 4.300000e+01
    endloop
  endfacet
  facet normal 1.000000e+00 0.000000e+00 0.000000e+00
    outer loop
      vertex 3.000000e+01 1.350000e+02 3.400000e+01
      vertex 3.000000e+01 2.500000e+01 4.300000e+01
      vertex 3.000000e+01 2.500000e+01 3.400000e+01
    endloop
  endfacet
  facet normal 0.000000e+00 0.000000e+00 1.000000e+00
    outer loop
      vertex 4.000000e+01 9.500000e+01 4.320000e+01
      vertex 8.500000e+01 9.500000e+01 4.320000e+01
      vertex 8.500000e+01 1.250000e+02 4.320000e+01
    endloop
  endfacet
  facet normal 0.000000e+00 0.000000e+00 1.000000e+00
    outer loop
      vertex 4.000000e+01 9.500000e+01 4.320000e+01
      vertex 8.500000e+01 1.250000e+02 4.320000e+01
      vertex 4.000000e+01 1.250000e+02 4.320000e+01
    endloop
  endfacet
  facet normal 0.000000e+00 0.000000e+00 -1.000000e+00
    outer loop
      vertex 4.000000e+01 9.500000e+01 4.540000e+01
      vertex 8.500000e+01 1.250000e+02 4.540000e+01
      vertex 8.500000e+01 9.500000e+01 4.540000e+01
    endloop
  endfacet
  facet normal 0.000000e+00 0.000000e+00 -1.000000e+00
    outer loop
      vertex 4.000000e+01 9.500000e+01 4.540000e+01
      vertex 4.000000e+01 1.250000e+02 4.540000e+01
      vertex 8.500000e+01 1.250000e+02 4.540000e+01
    endloop
  endfacet
  facet normal 0.000000e+00 1.000000e+00 0.000000e+00
    outer loop
      vertex 4.000000e+01 9.500000e+01 4.320000e+01
      vertex 4.000000e+01 9.500000e+01 4.540000e+01
      vertex 8.500000e+01 9.500000e+01 4.540000e+01
    endloop
  endfacet
  facet normal 0.000000e+00 1.000000e+00 0.000000e+00
    outer loop
      vertex 4.000000e+01 9.500000e+01 4.320000e+01
      vertex 8.500000e+01 9.500000e+01 4.540000e+01
      vertex 8.500000e+01 9.500000e+01 4.320000e+01
    endloop
  endfacet
  facet normal -1.000000e+00 0.000000e+00 0.000000e+00
    outer loop
      vertex 8.500000e+01 9.500000e+01 4.320000e+01
      vertex 8.500000e+01 9.500000e+01 4.540000e+01
      vertex 8.500000e+01 1.250000e+02 4.540000e+01
    endloop
  endfacet
  facet normal -1.000000e+00 0.000000e+00 0.000000e+00
    outer loop
      vertex 8.500000e+01 9.500000e+01 4.320000e+01
      vertex 8.500000e+01 1.250000e+02 4.540000e+01
      vertex 8.500000e+01 1.250000e+02 4.320000e+01
    endloop
  endfacet
  facet normal 0.000000e+00 -1.000000e+00 0.000000e+00
    outer loop
      vertex 8.500000e+01 1.250000e+02 4.320000e+01
      vertex 8.500000e+01 1.250000e+02 4.540000e+01
      vertex 4.000000e+01 1.250000e+02 4.540000e+01
    endloop
  endfacet
  facet normal 0.000000e+00 -1.000000e+00 0.000000e+00
    outer loop
      vertex 8.500000e+01 1.250000e+02 4.320000e+01
      vertex 4.000000e+01 1.250000e+02 4.540000e+01
      vertex 4.000000e+01 1.250000e+02 4.320000e+01
    endloop
  endfacet
  facet normal 1.000000e+00 0.000000e+00 0.000000e+00
    outer loop
      vertex 4.000000e+01 1.250000e+02 4.320000e+01
      vertex 4.000000e+01 1.250000e+02 4.540000e+01
      vertex 4.000000e+01 9.500000e+01 4.540000e+01
    endloop
  endfacet
  facet normal 1.000000e+00 0.000000e+00 0.000000e+00
    outer loop
      vertex 4.000000e+01 1.250000e+02 4.320000e+01
      vertex 4.000000e+01 9.500000e+01 4.540000e+01
      vertex 4.000000e+01 9.500000e+01 4.320000e+01
    endloop
  endfacet
  facet normal 0.000000e+00 0.000000e+00 1.000000e+00
    outer loop
      vertex 4.000000e+01 3.000000e+01 4.320000e+01
      vertex 9.500000e+01 3.000000e+01 4.320000e+01
      vertex 9.500000e+01 8.500000e+01 4.320000e+01
    endloop
  endfacet
  facet normal 0.000000e+00 0.000000e+00 1.000000e+00
    outer loop
      vertex 4.000000e+01 3.000000e+01 4.320000e+01
      vertex 9.500000e+01 8.500000e+01 4.320000e+01
      vertex 4.000000e+01 8.500000e+01 4.320000e+01
    endloop
  endfacet
  facet normal 0.000000e+00 0.000000e+00 -1.000000e+00
    outer loop
      vertex 4.000000e+01 3.000000e+01 4.540000e+01
      vertex 9.500000e+01 8.500000e+01 4.540000e+01
      vertex 9.500000e+01 3.000000e+01 4.540000e+01
    endloop
  endfacet
  facet normal 0.000000e+00 0.000000e+00 -1.000000e+00
    outer loop
      vertex 4.000000e+01 3.000000e+01 4.540000e+01
      vertex 4.000000e+01 8.500000e+01 4.540000e+01
      vertex 9.500000e+01 8.500000e+01 4.540000e+01
    endloop
  endfacet
  facet normal 0.000000e+00 1.000000e+00 0.000000e+00
    outer loop
      vertex 4.000000e+01 3.000000e+01 4.320000e+01
      vertex 4.000000e+01 3.000000e+01 4.540000e+01
      vertex 9.500000e+01 3.000000e+01 4.540000e+01
    endloop
  endfacet
  facet normal 0.000000e+00 1.000000e+00 0.000000e+00
    outer loop
      vertex 4.000000e+01 3.000000e+01 4.320000e+01
      vertex 9.500000e+01 3.000000e+01 4.540000e+01
      vertex 9.500000e+01 3.000000e+01 4.320000e+01
    endloop
  endfacet
  facet normal -1.000000e+00 0.000000e+00 0.000000e+00
    outer loop
      vertex 9.500000e+01 3.000000e+01 4.320000e+01
      vertex 9.500000e+01 3.000000e+01 4.540000e+01
      vertex 9.500000e+01 8.500000e+01 4.540000e+01
    endloop
  endfacet
  facet normal -1.000000e+00 0.000000e+00 0.000000e+00
    outer loop
      vertex 9.500000e+01 3.000000e+01 4.320000e+01
      vertex 9.500000e+01 8.500000e+01 4.540000e+01
      vertex 9.500000e+01 8.500000e+01 4.320000e+01
    endloop
  endfacet
  facet normal 0.000000e+00 -1.000000e+00 0.000000e+00
    outer loop
      vertex 9.500000e+01 8.500000e+01 4.320000e+01
      vertex 9.500000e+01 8.500000e+01 4.540000e+01
      vertex 4.000000e+01 8.500000e+01 4.540000e+01
    endloop
  endfacet
  facet normal 0.000000e+00 -1.000000e+00 0.000000e+00
    outer loop
      vertex 9.500000e+01 8.500000e+01 4.320000e+01
      vertex 4.000000e+01 8.500000e+01 4.540000e+01
      vertex 4.000000e+01 8.500000e+01 4.320000e+01
    endloop
  endfacet
  facet normal 1.000000e+00 0.000000e+00 0.000000e+00
    outer loop
      vertex 4.000000e+01 8.500000e+01 4.320000e+01
      vertex 4.000000e+01 8.500000e+01 4.540000e+01
      vertex 4.000000e+01 3.000000e+01 4.540000e+01
    endloop
  endfacet
  facet normal 1.000000e+00 0.000000e+00 0.000000e+00
    outer loop
      vertex 4.000000e+01 8.500000e+01 4.320000e+01
      vertex 4.000000e+01 3.000000e+01 4.540000e+01
      vertex 4.000000e+01 3.000000e+01 4.320000e+01
    endloop
  endfacet
  facet normal 0.000000e+00 0.000000e+00 1.000000e+00
    outer loop
      vertex 1.250000e+02 3.000000e+01 4.320000e+01
      vertex 1.800000e+02 3.000000e+01 4.320000e+01
      vertex 1.800000e+02 8.500000e+01 4.320000e+01
    endloop
  endfacet
  facet normal 0.000000e+00 0.000000e+00 1.000000e+00
    outer loop
      vertex 1.250000e+02 3.000000e+01 4.320000e+01
      vertex 1.800000e+02 8.500000e+01 4.320000e+01
      vertex 1.250000e+02 8.500000e+01 4.320000e+01
    endloop
  endfacet
  facet normal 0.000000e+00 0.000000e+00 -1.000000e+00
    outer loop
      vertex 1.250000e+02 3.000000e+01 4.540000e+01
      vertex 1.800000e+02 8.500000e+01 4.540000e+01
      vertex 1.800000e+02 3.000000e+01 4.540000e+01
    endloop
  endfacet
  facet normal 0.000000e+00 0.000000e+00 -1.000000e+00
    outer loop
      vertex 1.250000e+02 3.000000e+01 4.540000e+01
      vertex 1.250000e+02 8.500000e+01 4.540000e+01
      vertex 1.800000e+02 8.500000e+01 4.540000e+01
    endloop
  endfacet
  facet normal 0.000000e+00 1.000000e+00 0.000000e+00
    outer loop
      vertex 1.250000e+02 3.000000e+01 4.320000e+01
      vertex 1.250000e+02 3.000000e+01 4.540000e+01
      vertex 1.800000e+02 3.000000e+01 4.540000e+01
    endloop
  endfacet
  facet normal 0.000000e+00 1.000000e+00 0.000000e+00
    outer loop
      vertex 1.250000e+02 3.000000e+01 4.320000e+01
      vertex 1.800000e+02 3.000000e+01 4.540000e+01
      vertex 1.800000e+02 3.000000e+01 4.320000e+01
    endloop
  endfacet
  facet normal -1.000000e+00 0.000000e+00 0.000000e+00
    outer loop
      vertex 1.800000e+02 3.000000e+01 4.320000e+01
      vertex 1.800000e+02 3.000000e+01 4.540000e+01
      vertex 1.800000e+02 8.500000e+01 4.540000e+01
    endloop
  endfacet
  facet normal -1.000000e+00 0.000000e+00 0.000000e+00
    outer loop
      vertex 1.800000e+02 3.000000e+01 4.320000e+01
      vertex 1.800000e+02 8.500000e+01 4.540000e+01
      vertex 1.800000e+02 8.500000e+01 4.320000e+01
    endloop
  endfacet
  facet normal 0.000000e+00 -1.000000e+00 0.000000e+00
    outer loop
      vertex 1.800000e+02 8.500000e+01 4.320000e+01
      vertex 1.800000e+02 8.500000e+01 4.540000e+01
      vertex 1.250000e+02 8.500000e+01 4.540000e+01
    endloop
  endfacet
  facet normal 0.000000e+00 -1.000000e+00 0.000000e+00
    outer loop
      vertex 1.800000e+02 8.500000e+01 4.320000e+01
      vertex 1.250000e+02 8.500000e+01 4.540000e+01
      vertex 1.250000e+02 8.500000e+01 4.320000e+01
    endloop
  endfacet
  facet normal 1.000000e+00 0.000000e+00 0.000000e+00
    outer loop
      vertex 1.250000e+02 8.500000e+01 4.320000e+01
      vertex 1.250000e+02 8.500000e+01 4.540000e+01
      vertex 1.250000e+02 3.000000e+01 4.540000e+01
    endloop
  endfacet
  facet normal 1.000000e+00 0.000000e+00 0.000000e+00
    outer loop
      vertex 1.250000e+02 8.500000e+01 4.320000e+01
      vertex 1.250000e+02 3.000000e+01 4.540000e+01
      vertex 1.250000e+02 3.000000e+01 4.320000e+01
    endloop
  endfacet
  facet normal 0.000000e+00 0.000000e+00 1.000000e+00
    outer loop
      vertex 9.800000e+01 9.500000e+01 4.320000e+01
      vertex 1.500000e+02 9.500000e+01 4.320000e+01
      vertex 1.500000e+02 1.250000e+02 4.320000e+01
    endloop
  endfacet
  facet normal 0.000000e+00 0.000000e+00 1.000000e+00
    outer loop
      vertex 9.800000e+01 9.500000e+01 4.320000e+01
      vertex 1.500000e+02 1.250000e+02 4.320000e+01
      vertex 9.800000e+01 1.250000e+02 4.320000e+01
    endloop
  endfacet
  facet normal 0.000000e+00 0.000000e+00 -1.000000e+00
    outer loop
      vertex 9.800000e+01 9.500000e+01 4.540000e+01
      vertex 1.500000e+02 1.250000e+02 4.540000e+01
      vertex 1.500000e+02 9.500000e+01 4.540000e+01
    endloop
  endfacet
  facet normal 0.000000e+00 0.000000e+00 -1.000000e+00
    outer loop
      vertex 9.800000e+01 9.500000e+01 4.540000e+01
      vertex 9.800000e+01 1.250000e+02 4.540000e+01
      vertex 1.500000e+02 1.250000e+02 4.540000e+01
    endloop
  endfacet
  facet normal 0.000000e+00 1.000000e+00 0.000000e+00
    outer loop
      vertex 9.800000e+01 9.500000e+01 4.320000e+01
      vertex 9.800000e+01 9.500000e+01 4.540000e+01
      vertex 1.500000e+02 9.500000e+01 4.540000e+01
    endloop
  endfacet
  facet normal 0.000000e+00 1.000000e+00 0.000000e+00
    outer loop
      vertex 9.800000e+01 9.500000e+01 4.320000e+01
      vertex 1.500000e+02 9.500000e+01 4.540000e+01
      vertex 1.500000e+02 9.500000e+01 4.320000e+01
    endloop
  endfacet
  facet normal -1.000000e+00 0.000000e+00 0.000000e+00
    outer loop
      vertex 1.500000e+02 9.500000e+01 4.320000e+01
      vertex 1.500000e+02 9.500000e+01 4.540000e+01
      vertex 1.500000e+02 1.250000e+02 4.540000e+01
    endloop
  endfacet
  facet normal -1.000000e+00 0.000000e+00 0.000000e+00
    outer loop
      vertex 1.500000e+02 9.500000e+01 4.320000e+01
      vertex 1.500000e+02 1.250000e+02 4.540000e+01
      vertex 1.500000e+02 1.250000e+02 4.320000e+01
    endloop
  endfacet
  facet normal 0.000000e+00 -1.000000e+00 0.000000e+00
    outer loop
      vertex 1.500000e+02 1.250000e+02 4.320000e+01
      vertex 1.500000e+02 1.250000e+02 4.540000e+01
      vertex 9.800000e+01 1.250000e+02 4.540000e+01
    endloop
  endfacet
  facet normal 0.000000e+00 -1.000000e+00 0.000000e+00
    outer loop
      vertex 1.500000e+02 1.250000e+02 4.320000e+01
      vertex 9.800000e+01 1.250000e+02 4.540000e+01
      vertex 9.800000e+01 1.250000e+02 4.320000e+01
    endloop
  endfacet
  facet normal 1.000000e+00 0.000000e+00 0.000000e+00
    outer loop
      vertex 9.800000e+01 1.250000e+02 4.320000e+01
      vertex 9.800000e+01 1.250000e+02 4.540000e+01
      vertex 9.800000e+01 9.500000e+01 4.540000e+01
    endloop
  endfacet
  facet normal 1.000000e+00 0.000000e+00 0.000000e+00
    outer loop
      vertex 9.800000e+01 1.250000e+02 4.320000e+01
      vertex 9.800000e+01 9.500000e+01 4.540000e+01
      vertex 9.800000e+01 9.500000e+01 4.320000e+01
    endloop
  endfacet
  facet normal 0.000000e+00 0.000000e+00 1.000000e+00
    outer loop
      vertex 9.600000e+01 5.800000e+01 4.320000e+01
      vertex 1.540000e+02 5.800000e+01 4.320000e+01
      vertex 1.540000e+02 8.600000e+01 4.320000e+01
    endloop
  endfacet
  facet normal 0.000000e+00 0.000000e+00 1.000000e+00
    outer loop
      vertex 9.600000e+01 5.800000e+01 4.320000e+01
      vertex 1.540000e+02 8.600000e+01 4.320000e+01
      vertex 9.600000e+01 8.600000e+01 4.320000e+01
    endloop
  endfacet
  facet normal 0.000000e+00 0.000000e+00 -1.000000e+00
    outer loop
      vertex 9.600000e+01 5.800000e+01 4.540000e+01
      vertex 1.540000e+02 8.600000e+01 4.540000e+01
      vertex 1.540000e+02 5.800000e+01 4.540000e+01
    endloop
  endfacet
  facet normal 0.000000e+00 0.000000e+00 -1.000000e+00
    outer loop
      vertex 9.600000e+01 5.800000e+01 4.540000e+01
      vertex 9.600000e+01 8.600000e+01 4.540000e+01
      vertex 1.540000e+02 8.600000e+01 4.540000e+01
    endloop
  endfacet
  facet normal 0.000000e+00 1.000000e+00 0.000000e+00
    outer loop
      vertex 9.600000e+01 5.800000e+01 4.320000e+01
      vertex 9.600000e+01 5.800000e+01 4.540000e+01
      vertex 1.540000e+02 5.800000e+01 4.540000e+01
    endloop
  endfacet
  facet normal 0.000000e+00 1.000000e+00 0.000000e+00
    outer loop
      vertex 9.600000e+01 5.800000e+01 4.320000e+01
      vertex 1.540000e+02 5.800000e+01 4.540000e+01
      vertex 1.540000e+02 5.800000e+01 4.320000e+01
    endloop
  endfacet
  facet normal -1.000000e+00 0.000000e+00 0.000000e+00
    outer loop
      vertex 1.540000e+02 5.800000e+01 4.320000e+01
      vertex 1.540000e+02 5.800000e+01 4.540000e+01
      vertex 1.540000e+02 8.600000e+01 4.540000e+01
    endloop
  endfacet
  facet normal -1.000000e+00 0.000000e+00 0.000000e+00
    outer loop
      vertex 1.540000e+02 5.800000e+01 4.320000e+01
      vertex 1.540000e+02 8.600000e+01 4.540000e+01
      vertex 1.540000e+02 8.600000e+01 4.320000e+01
    endloop
  endfacet
  facet normal 0.000000e+00 -1.000000e+00 0.000000e+00
    outer loop
      vertex 1.540000e+02 8.600000e+01 4.320000e+01
      vertex 1.540000e+02 8.600000e+01 4.540000e+01
      vertex 9.600000e+01 8.600000e+01 4.540000e+01
    endloop
  endfacet
  facet normal 0.000000e+00 -1.000000e+00 0.000000e+00
    outer loop
      vertex 1.540000e+02 8.600000e+01 4.320000e+01
      vertex 9.600000e+01 8.600000e+01 4.540000e+01
      vertex 9.600000e+01 8.600000e+01 4.320000e+01
    endloop
  endfacet
  facet normal 1.000000e+00 0.000000e+00 0.000000e+00
    outer loop
      vertex 9.600000e+01 8.600000e+01 4.320000e+01
      vertex 9.600000e+01 8.600000e+01 4.540000e+01
      vertex 9.600000e+01 5.800000e+01 4.540000e+01
    endloop
  endfacet
  facet normal 1.000000e+00 0.000000e+00 0.000000e+00
    outer loop
      vertex 9.600000e+01 8.600000e+01 4.320000e+01
      vertex 9.600000e+01 5.800000e+01 4.540000e+01
      vertex 9.600000e+01 5.800000e+01 4.320000e+01
    endloop
  endfacet
  facet normal 0.000000e+00 0.000000e+00 1.000000e+00
    outer loop
      vertex 2.500000e+01 1.800000e+01 1.000000e+01
      vertex 1.950000e+02 1.800000e+01 1.000000e+01
      vertex 1.950000e+02 3.200000e+01 1.000000e+01
    endloop
  endfacet
  facet normal 0.000000e+00 0.000000e+00 1.000000e+00
    outer loop
      vertex 2.500000e+01 1.800000e+01 1.000000e+01
      vertex 1.950000e+02 3.200000e+01 1.000000e+01
      vertex 2.500000e+01 3.200000e+01 1.000000e+01
    endloop
  endfacet
  facet normal 0.000000e+00 0.000000e+00 -1.000000e+00
    outer loop
      vertex 2.500000e+01 1.800000e+01 2.600000e+01
      vertex 1.950000e+02 3.200000e+01 2.600000e+01
      vertex 1.950000e+02 1.800000e+01 2.600000e+01
    endloop
  endfacet
  facet normal 0.000000e+00 0.000000e+00 -1.000000e+00
    outer loop
      vertex 2.500000e+01 1.800000e+01 2.600000e+01
      vertex 2.500000e+01 3.200000e+01 2.600000e+01
      vertex 1.950000e+02 3.200000e+01 2.600000e+01
    endloop
  endfacet
  facet normal 0.000000e+00 1.000000e+00 0.000000e+00
    outer loop
      vertex 2.500000e+01 1.800000e+01 1.000000e+01
      vertex 2.500000e+01 1.800000e+01 2.600000e+01
      vertex 1.950000e+02 1.800000e+01 2.600000e+01
    endloop
  endfacet
  facet normal 0.000000e+00 1.000000e+00 0.000000e+00
    outer loop
      vertex 2.500000e+01 1.800000e+01 1.000000e+01
      vertex 1.950000e+02 1.800000e+01 2.600000e+01
      vertex 1.950000e+02 1.800000e+01 1.000000e+01
    endloop
  endfacet
  facet normal -1.000000e+00 0.000000e+00 0.000000e+00
    outer loop
      vertex 1.950000e+02 1.800000e+01 1.000000e+01
      vertex 1.950000e+02 1.800000e+01 2.600000e+01
      vertex 1.950000e+02 3.200000e+01 2.600000e+01
    endloop
  endfacet
  facet normal -1.000000e+00 0.000000e+00 0.000000e+00
    outer loop
      vertex 1.950000e+02 1.800000e+01 1.000000e+01
      vertex 1.950000e+02 3.200000e+01 2.600000e+01
      vertex 1.950000e+02 3.200000e+01 1.000000e+01
    endloop
  endfacet
  facet normal 0.000000e+00 -1.000000e+00 0.000000e+00
    outer loop
      vertex 1.950000e+02 3.200000e+01 1.000000e+01
      vertex 1.950000e+02 3.200000e+01 2.600000e+01
      vertex 2.500000e+01 3.200000e+01 2.600000e+01
    endloop
  endfacet
  facet normal 0.000000e+00 -1.000000e+00 0.000000e+00
    outer loop
      vertex 1.950000e+02 3.200000e+01 1.000000e+01
      vertex 2.500000e+01 3.200000e+01 2.600000e+01
      vertex 2.500000e+01 3.200000e+01 1.000000e+01
    endloop
  endfacet
  facet normal 1.000000e+00 0.000000e+00 0.000000e+00
    outer loop
      vertex 2.500000e+01 3.200000e+01 1.000000e+01
      vertex 2.500000e+01 3.200000e+01 2.600000e+01
      vertex 2.500000e+01 1.800000e+01 2.600000e+01
    endloop
  endfacet
  facet normal 1.000000e+00 0.000000e+00 0.000000e+00
    outer loop
      vertex 2.500000e+01 3.200000e+01 1.000000e+01
      vertex 2.500000e+01 1.800000e+01 2.600000e+01
      vertex 2.500000e+01 1.800000e+01 1.000000e+01
    endloop
  endfacet
  facet normal 0.000000e+00 0.000000e+00 1.000000e+00
    outer loop
      vertex 2.500000e+01 1.280000e+02 1.000000e+01
      vertex 1.950000e+02 1.280000e+02 1.000000e+01
      vertex 1.950000e+02 1.420000e+02 1.000000e+01
    endloop
  endfacet
  facet normal 0.000000e+00 0.000000e+00 1.000000e+00
    outer loop
      vertex 2.500000e+01 1.280000e+02 1.000000e+01
      vertex 1.950000e+02 1.420000e+02 1.000000e+01
      vertex 2.500000e+01 1.420000e+02 1.000000e+01
    endloop
  endfacet
  facet normal 0.000000e+00 0.000000e+00 -1.000000e+00
    outer loop
      vertex 2.500000e+01 1.280000e+02 2.600000e+01
      vertex 1.950000e+02 1.420000e+02 2.600000e+01
      vertex 1.950000e+02 1.280000e+02 2.600000e+01
    endloop
  endfacet
  facet normal 0.000000e+00 0.000000e+00 -1.000000e+00
    outer loop
      vertex 2.500000e+01 1.280000e+02 2.600000e+01
      vertex 2.500000e+01 1.420000e+02 2.600000e+01
      vertex 1.950000e+02 1.420000e+02 2.600000e+01
    endloop
  endfacet
  facet normal 0.000000e+00 1.000000e+00 0.000000e+00
    outer loop
      vertex 2.500000e+01 1.280000e+02 1.000000e+01
      vertex 2.500000e+01 1.280000e+02 2.600000e+01
      vertex 1.950000e+02 1.280000e+02 2.600000e+01
    endloop
  endfacet
  facet normal 0.000000e+00 1.000000e+00 0.000000e+00
    outer loop
      vertex 2.500000e+01 1.280000e+02 1.000000e+01
      vertex 1.950000e+02 1.280000e+02 2.600000e+01
      vertex 1.950000e+02 1.280000e+02 1.000000e+01
    endloop
  endfacet
  facet normal -1.000000e+00 0.000000e+00 0.000000e+00
    outer loop
      vertex 1.950000e+02 1.280000e+02 1.000000e+01
      vertex 1.950000e+02 1.280000e+02 2.600000e+01
      vertex 1.950000e+02 1.420000e+02 2.600000e+01
    endloop
  endfacet
  facet normal -1.000000e+00 0.000000e+00 0.000000e+00
    outer loop
      vertex 1.950000e+02 1.280000e+02 1.000000e+01
      vertex 1.950000e+02 1.420000e+02 2.600000e+01
      vertex 1.950000e+02 1.420000e+02 1.000000e+01
    endloop
  endfacet
  facet normal 0.000000e+00 -1.000000e+00 0.000000e+00
    outer loop
      vertex 1.950000e+02 1.420000e+02 1.000000e+01
      vertex 1.950000e+02 1.420000e+02 2.600000e+01
      vertex 2.500000e+01 1.420000e+02 2.600000e+01
    endloop
  endfacet
  facet normal 0.000000e+00 -1.000000e+00 0.000000e+00
    outer loop
      vertex 1.950000e+02 1.420000e+02 1.000000e+01
      vertex 2.500000e+01 1.420000e+02 2.600000e+01
      vertex 2.500000e+01 1.420000e+02 1.000000e+01
    endloop
  endfacet
  facet normal 1.000000e+00 0.000000e+00 0.000000e+00
    outer loop
      vertex 2.500000e+01 1.420000e+02 1.000000e+01
      vertex 2.500000e+01 1.420000e+02 2.600000e+01
      vertex 2.500000e+01 1.280000e+02 2.600000e+01
    endloop
  endfacet
  facet normal 1.000000e+00 0.000000e+00 0.000000e+00
    outer loop
      vertex 2.500000e+01 1.420000e+02 1.000000e+01
      vertex 2.500000e+01 1.280000e+02 2.600000e+01
      vertex 2.500000e+01 1.280000e+02 1.000000e+01
    endloop
  endfacet
  facet normal 0.000000e+00 0.000000e+00 1.000000e+00
    outer loop
      vertex 2.500000e+01 3.200000e+01 1.000000e+01
      vertex 3.900000e+01 3.200000e+01 1.000000e+01
      vertex 3.900000e+01 1.280000e+02 1.000000e+01
    endloop
  endfacet
  facet normal 0.000000e+00 0.000000e+00 1.000000e+00
    outer loop
      vertex 2.500000e+01 3.200000e+01 1.000000e+01
      vertex 3.900000e+01 1.280000e+02 1.000000e+01
      vertex 2.500000e+01 1.280000e+02 1.000000e+01
    endloop
  endfacet
  facet normal 0.000000e+00 0.000000e+00 -1.000000e+00
    outer loop
      vertex 2.500000e+01 3.200000e+01 2.600000e+01
      vertex 3.900000e+01 1.280000e+02 2.600000e+01
      vertex 3.900000e+01 3.200000e+01 2.600000e+01
    endloop
  endfacet
  facet normal 0.000000e+00 0.000000e+00 -1.000000e+00
    outer loop
      vertex 2.500000e+01 3.200000e+01 2.600000e+01
      vertex 2.500000e+01 1.280000e+02 2.600000e+01
      vertex 3.900000e+01 1.280000e+02 2.600000e+01
    endloop
  endfacet
  facet normal 0.000000e+00 1.000000e+00 0.000000e+00
    outer loop
      vertex 2.500000e+01 3.200000e+01 1.000000e+01
      vertex 2.500000e+01 3.200000e+01 2.600000e+01
      vertex 3.900000e+01 3.200000e+01 2.600000e+01
    endloop
  endfacet
  facet normal 0.000000e+00 1.000000e+00 0.000000e+00
    outer loop
      vertex 2.500000e+01 3.200000e+01 1.000000e+01
      vertex 3.900000e+01 3.200000e+01 2.600000e+01
      vertex 3.900000e+01 3.200000e+01 1.000000e+01
    endloop
  endfacet
  facet normal -1.000000e+00 0.000000e+00 0.000000e+00
    outer loop
      vertex 3.900000e+01 3.200000e+01 1.000000e+01
      vertex 3.900000e+01 3.200000e+01 2.600000e+01
      vertex 3.900000e+01 1.280000e+02 2.600000e+01
    endloop
  endfacet
  facet normal -1.000000e+00 0.000000e+00 0.000000e+00
    outer loop
      vertex 3.900000e+01 3.200000e+01 1.000000e+01
      vertex 3.900000e+01 1.280000e+02 2.600000e+01
      vertex 3.900000e+01 1.280000e+02 1.000000e+01
    endloop
  endfacet
  facet normal 0.000000e+00 -1.000000e+00 0.000000e+00
    outer loop
      vertex 3.900000e+01 1.280000e+02 1.000000e+01
      vertex 3.900000e+01 1.280000e+02 2.600000e+01
      vertex 2.500000e+01 1.280000e+02 2.600000e+01
    endloop
  endfacet
  facet normal 0.000000e+00 -1.000000e+00 0.000000e+00
    outer loop
      vertex 3.900000e+01 1.280000e+02 1.000000e+01
      vertex 2.500000e+01 1.280000e+02 2.600000e+01
      vertex 2.500000e+01 1.280000e+02 1.000000e+01
    endloop
  endfacet
  facet normal 1.000000e+00 0.000000e+00 0.000000e+00
    outer loop
      vertex 2.500000e+01 1.280000e+02 1.000000e+01
      vertex 2.500000e+01 1.280000e+02 2.600000e+01
      vertex 2.500000e+01 3.200000e+01 2.600000e+01
    endloop
  endfacet
  facet normal 1.000000e+00 0.000000e+00 0.000000e+00
    outer loop
      vertex 2.500000e+01 1.280000e+02 1.000000e+01
      vertex 2.500000e+01 3.200000e+01 2.600000e+01
      vertex 2.500000e+01 3.200000e+01 1.000000e+01
    endloop
  endfacet
  facet normal 0.000000e+00 0.000000e+00 1.000000e+00
    outer loop
      vertex 1.810000e+02 3.200000e+01 1.000000e+01
      vertex 1.950000e+02 3.200000e+01 1.000000e+01
      vertex 1.950000e+02 1.280000e+02 1.000000e+01
    endloop
  endfacet
  facet normal 0.000000e+00 0.000000e+00 1.000000e+00
    outer loop
      vertex 1.810000e+02 3.200000e+01 1.000000e+01
      vertex 1.950000e+02 1.280000e+02 1.000000e+01
      vertex 1.810000e+02 1.280000e+02 1.000000e+01
    endloop
  endfacet
  facet normal 0.000000e+00 0.000000e+00 -1.000000e+00
    outer loop
      vertex 1.810000e+02 3.200000e+01 2.600000e+01
      vertex 1.950000e+02 1.280000e+02 2.600000e+01
      vertex 1.950000e+02 3.200000e+01 2.600000e+01
    endloop
  endfacet
  facet normal 0.000000e+00 0.000000e+00 -1.000000e+00
    outer loop
      vertex 1.810000e+02 3.200000e+01 2.600000e+01
      vertex 1.810000e+02 1.280000e+02 2.600000e+01
      vertex 1.950000e+02 1.280000e+02 2.600000e+01
    endloop
  endfacet
  facet normal 0.000000e+00 1.000000e+00 0.000000e+00
    outer loop
      vertex 1.810000e+02 3.200000e+01 1.000000e+01
      vertex 1.810000e+02 3.200000e+01 2.600000e+01
      vertex 1.950000e+02 3.200000e+01 2.600000e+01
    endloop
  endfacet
  facet normal 0.000000e+00 1.000000e+00 0.000000e+00
    outer loop
      vertex 1.810000e+02 3.200000e+01 1.000000e+01
      vertex 1.950000e+02 3.200000e+01 2.600000e+01
      vertex 1.950000e+02 3.200000e+01 1.000000e+01
    endloop
  endfacet
  facet normal -1.000000e+00 0.000000e+00 0.000000e+00
    outer loop
      vertex 1.950000e+02 3.200000e+01 1.000000e+01
      vertex 1.950000e+02 3.200000e+01 2.600000e+01
      vertex 1.950000e+02 1.280000e+02 2.600000e+01
    endloop
  endfacet
  facet normal -1.000000e+00 0.000000e+00 0.000000e+00
    outer loop
      vertex 1.950000e+02 3.200000e+01 1.000000e+01
      vertex 1.950000e+02 1.280000e+02 2.600000e+01
      vertex 1.950000e+02 1.280000e+02 1.000000e+01
    endloop
  endfacet
  facet normal 0.000000e+00 -1.000000e+00 0.000000e+00
    outer loop
      vertex 1.950000e+02 1.280000e+02 1.000000e+01
      vertex 1.950000e+02 1.280000e+02 2.600000e+01
      vertex 1.810000e+02 1.280000e+02 2.600000e+01
    endloop
  endfacet
  facet normal 0.000000e+00 -1.000000e+00 0.000000e+00
    outer loop
      vertex 1.950000e+02 1.280000e+02 1.000000e+01
      vertex 1.810000e+02 1.280000e+02 2.600000e+01
      vertex 1.810000e+02 1.280000e+02 1.000000e+01
    endloop
  endfacet
  facet normal 1.000000e+00 0.000000e+00 0.000000e+00
    outer loop
      vertex 1.810000e+02 1.280000e+02 1.000000e+01
      vertex 1.810000e+02 1.280000e+02 2.600000e+01
      vertex 1.810000e+02 3.200000e+01 2.600000e+01
    endloop
  endfacet
  facet normal 1.000000e+00 0.000000e+00 0.000000e+00
    outer loop
      vertex 1.810000e+02 1.280000e+02 1.000000e+01
      vertex 1.810000e+02 3.200000e+01 2.600000e+01
      vertex 1.810000e+02 3.200000e+01 1.000000e+01
    endloop
  endfacet
  facet normal 0.000000e+00 0.000000e+00 1.000000e+00
    outer loop
      vertex 8.000000e+00 2.000000e+00 1.000000e+01
      vertex 2.120000e+02 2.000000e+00 1.000000e+01
      vertex 2.120000e+02 1.400000e+01 1.000000e+01
    endloop
  endfacet
  facet normal 0.000000e+00 0.000000e+00 1.000000e+00
    outer loop
      vertex 8.000000e+00 2.000000e+00 1.000000e+01
      vertex 2.120000e+02 1.400000e+01 1.000000e+01
      vertex 8.000000e+00 1.400000e+01 1.000000e+01
    endloop
  endfacet
  facet normal 0.000000e+00 0.000000e+00 -1.000000e+00
    outer loop
      vertex 8.000000e+00 2.000000e+00 2.800000e+01
      vertex 2.120000e+02 1.400000e+01 2.800000e+01
      vertex 2.120000e+02 2.000000e+00 2.800000e+01
    endloop
  endfacet
  facet normal 0.000000e+00 0.000000e+00 -1.000000e+00
    outer loop
      vertex 8.000000e+00 2.000000e+00 2.800000e+01
      vertex 8.000000e+00 1.400000e+01 2.800000e+01
      vertex 2.120000e+02 1.400000e+01 2.800000e+01
    endloop
  endfacet
  facet normal 0.000000e+00 1.000000e+00 0.000000e+00
    outer loop
      vertex 8.000000e+00 2.000000e+00 1.000000e+01
      vertex 8.000000e+00 2.000000e+00 2.800000e+01
      vertex 2.120000e+02 2.000000e+00 2.800000e+01
    endloop
  endfacet
  facet normal 0.000000e+00 1.000000e+00 0.000000e+00
    outer loop
      vertex 8.000000e+00 2.000000e+00 1.000000e+01
      vertex 2.120000e+02 2.000000e+00 2.800000e+01
      vertex 2.120000e+02 2.000000e+00 1.000000e+01
    endloop
  endfacet
  facet normal -1.000000e+00 0.000000e+00 0.000000e+00
    outer loop
      vertex 2.120000e+02 2.000000e+00 1.000000e+01
      vertex 2.120000e+02 2.000000e+00 2.800000e+01
      vertex 2.120000e+02 1.400000e+01 2.800000e+01
    endloop
  endfacet
  facet normal -1.000000e+00 0.000000e+00 0.000000e+00
    outer loop
      vertex 2.120000e+02 2.000000e+00 1.000000e+01
      vertex 2.120000e+02 1.400000e+01 2.800000e+01
      vertex 2.120000e+02 1.400000e+01 1.000000e+01
    endloop
  endfacet
  facet normal 0.000000e+00 -1.000000e+00 0.000000e+00
    outer loop
      vertex 2.120000e+02 1.400000e+01 1.000000e+01
      vertex 2.120000e+02 1.400000e+01 2.800000e+01
      vertex 8.000000e+00 1.400000e+01 2.800000e+01
    endloop
  endfacet
  facet normal 0.000000e+00 -1.000000e+00 0.000000e+00
    outer loop
      vertex 2.120000e+02 1.400000e+01 1.000000e+01
      vertex 8.000000e+00 1.400000e+01 2.800000e+01
      vertex 8.000000e+00 1.400000e+01 1.000000e+01
    endloop
  endfacet
  facet normal 1.000000e+00 0.000000e+00 0.000000e+00
    outer loop
      vertex 8.000000e+00 1.400000e+01 1.000000e+01
      vertex 8.000000e+00 1.400000e+01 2.800000e+01
      vertex 8.000000e+00 2.000000e+00 2.800000e+01
    endloop
  endfacet
  facet normal 1.000000e+00 0.000000e+00 0.000000e+00
    outer loop
      vertex 8.000000e+00 1.400000e+01 1.000000e+01
      vertex 8.000000e+00 2.000000e+00 2.800000e+01
      vertex 8.000000e+00 2.000000e+00 1.000000e+01
    endloop
  endfacet
  facet normal 0.000000e+00 0.000000e+00 1.000000e+00
    outer loop
      vertex 8.000000e+00 1.460000e+02 1.000000e+01
      vertex 2.120000e+02 1.460000e+02 1.000000e+01
      vertex 2.120000e+02 1.580000e+02 1.000000e+01
    endloop
  endfacet
  facet normal 0.000000e+00 0.000000e+00 1.000000e+00
    outer loop
      vertex 8.000000e+00 1.460000e+02 1.000000e+01
      vertex 2.120000e+02 1.580000e+02 1.000000e+01
      vertex 8.000000e+00 1.580000e+02 1.000000e+01
    endloop
  endfacet
  facet normal 0.000000e+00 0.000000e+00 -1.000000e+00
    outer loop
      vertex 8.000000e+00 1.460000e+02 2.800000e+01
      vertex 2.120000e+02 1.580000e+02 2.800000e+01
      vertex 2.120000e+02 1.460000e+02 2.800000e+01
    endloop
  endfacet
  facet normal 0.000000e+00 0.000000e+00 -1.000000e+00
    outer loop
      vertex 8.000000e+00 1.460000e+02 2.800000e+01
      vertex 8.000000e+00 1.580000e+02 2.800000e+01
      vertex 2.120000e+02 1.580000e+02 2.800000e+01
    endloop
  endfacet
  facet normal 0.000000e+00 1.000000e+00 0.000000e+00
    outer loop
      vertex 8.000000e+00 1.460000e+02 1.000000e+01
      vertex 8.000000e+00 1.460000e+02 2.800000e+01
      vertex 2.120000e+02 1.460000e+02 2.800000e+01
    endloop
  endfacet
  facet normal 0.000000e+00 1.000000e+00 0.000000e+00
    outer loop
      vertex 8.000000e+00 1.460000e+02 1.000000e+01
      vertex 2.120000e+02 1.460000e+02 2.800000e+01
      vertex 2.120000e+02 1.460000e+02 1.000000e+01
    endloop
  endfacet
  facet normal -1.000000e+00 0.000000e+00 0.000000e+00
    outer loop
      vertex 2.120000e+02 1.460000e+02 1.000000e+01
      vertex 2.120000e+02 1.460000e+02 2.800000e+01
      vertex 2.120000e+02 1.580000e+02 2.800000e+01
    endloop
  endfacet
  facet normal -1.000000e+00 0.000000e+00 0.000000e+00
    outer loop
      vertex 2.120000e+02 1.460000e+02 1.000000e+01
      vertex 2.120000e+02 1.580000e+02 2.800000e+01
      vertex 2.120000e+02 1.580000e+02 1.000000e+01
    endloop
  endfacet
  facet normal 0.000000e+00 -1.000000e+00 0.000000e+00
    outer loop
      vertex 2.120000e+02 1.580000e+02 1.000000e+01
      vertex 2.120000e+02 1.580000e+02 2.800000e+01
      vertex 8.000000e+00 1.580000e+02 2.800000e+01
    endloop
  endfacet
  facet normal 0.000000e+00 -1.000000e+00 0.000000e+00
    outer loop
      vertex 2.120000e+02 1.580000e+02 1.000000e+01
      vertex 8.000000e+00 1.580000e+02 2.800000e+01
      vertex 8.000000e+00 1.580000e+02 1.000000e+01
    endloop
  endfacet
  facet normal 1.000000e+00 0.000000e+00 0.000000e+00
    outer loop
      vertex 8.000000e+00 1.580000e+02 1.000000e+01
      vertex 8.000000e+00 1.580000e+02 2.800000e+01
      vertex 8.000000e+00 1.460000e+02 2.800000e+01
    endloop
  endfacet
  facet normal 1.000000e+00 0.000000e+00 0.000000e+00
    outer loop
      vertex 8.000000e+00 1.580000e+02 1.000000e+01
      vertex 8.000000e+00 1.460000e+02 2.800000e+01
      vertex 8.000000e+00 1.460000e+02 1.000000e+01
    endloop
  endfacet
  facet normal 0.000000e+00 0.000000e+00 1.000000e+00
    outer loop
      vertex 8.000000e+00 1.400000e+01 1.000000e+01
      vertex 2.000000e+01 1.400000e+01 1.000000e+01
      vertex 2.000000e+01 1.460000e+02 1.000000e+01
    endloop
  endfacet
  facet normal 0.000000e+00 0.000000e+00 1.000000e+00
    outer loop
      vertex 8.000000e+00 1.400000e+01 1.000000e+01
      vertex 2.000000e+01 1.460000e+02 1.000000e+01
      vertex 8.000000e+00 1.460000e+02 1.000000e+01
    endloop
  endfacet
  facet normal 0.000000e+00 0.000000e+00 -1.000000e+00
    outer loop
      vertex 8.000000e+00 1.400000e+01 2.800000e+01
      vertex 2.000000e+01 1.460000e+02 2.800000e+01
      vertex 2.000000e+01 1.400000e+01 2.800000e+01
    endloop
  endfacet
  facet normal 0.000000e+00 0.000000e+00 -1.000000e+00
    outer loop
      vertex 8.000000e+00 1.400000e+01 2.800000e+01
      vertex 8.000000e+00 1.460000e+02 2.800000e+01
      vertex 2.000000e+01 1.460000e+02 2.800000e+01
    endloop
  endfacet
  facet normal 0.000000e+00 1.000000e+00 0.000000e+00
    outer loop
      vertex 8.000000e+00 1.400000e+01 1.000000e+01
      vertex 8.000000e+00 1.400000e+01 2.800000e+01
      vertex 2.000000e+01 1.400000e+01 2.800000e+01
    endloop
  endfacet
  facet normal 0.000000e+00 1.000000e+00 0.000000e+00
    outer loop
      vertex 8.000000e+00 1.400000e+01 1.000000e+01
      vertex 2.000000e+01 1.400000e+01 2.800000e+01
      vertex 2.000000e+01 1.400000e+01 1.000000e+01
    endloop
  endfacet
  facet normal -1.000000e+00 0.000000e+00 0.000000e+00
    outer loop
      vertex 2.000000e+01 1.400000e+01 1.000000e+01
      vertex 2.000000e+01 1.400000e+01 2.800000e+01
      vertex 2.000000e+01 1.460000e+02 2.800000e+01
    endloop
  endfacet
  facet normal -1.000000e+00 0.000000e+00 0.000000e+00
    outer loop
      vertex 2.000000e+01 1.400000e+01 1.000000e+01
      vertex 2.000000e+01 1.460000e+02 2.800000e+01
      vertex 2.000000e+01 1.460000e+02 1.000000e+01
    endloop
  endfacet
  facet normal 0.000000e+00 -1.000000e+00 0.000000e+00
    outer loop
      vertex 2.000000e+01 1.460000e+02 1.000000e+01
      vertex 2.000000e+01 1.460000e+02 2.800000e+01
      vertex 8.000000e+00 1.460000e+02 2.800000e+01
    endloop
  endfacet
  facet normal 0.000000e+00 -1.000000e+00 0.000000e+00
    outer loop
      vertex 2.000000e+01 1.460000e+02 1.000000e+01
      vertex 8.000000e+00 1.460000e+02 2.800000e+01
      vertex 8.000000e+00 1.460000e+02 1.000000e+01
    endloop
  endfacet
  facet normal 1.000000e+00 0.000000e+00 0.000000e+00
    outer loop
      vertex 8.000000e+00 1.460000e+02 1.000000e+01
      vertex 8.000000e+00 1.460000e+02 2.800000e+01
      vertex 8.000000e+00 1.400000e+01 2.800000e+01
    endloop
  endfacet
  facet normal 1.000000e+00 0.000000e+00 0.000000e+00
    outer loop
      vertex 8.000000e+00 1.460000e+02 1.000000e+01
      vertex 8.000000e+00 1.400000e+01 2.800000e+01
      vertex 8.000000e+00 1.400000e+01 1.000000e+01
    endloop
  endfacet
  facet normal 0.000000e+00 0.000000e+00 1.000000e+00
    outer loop
      vertex 2.000000e+02 1.400000e+01 1.000000e+01
      vertex 2.120000e+02 1.400000e+01 1.000000e+01
      vertex 2.120000e+02 1.460000e+02 1.000000e+01
    endloop
  endfacet
  facet normal 0.000000e+00 0.000000e+00 1.000000e+00
    outer loop
      vertex 2.000000e+02 1.400000e+01 1.000000e+01
      vertex 2.120000e+02 1.460000e+02 1.000000e+01
      vertex 2.000000e+02 1.460000e+02 1.000000e+01
    endloop
  endfacet
  facet normal 0.000000e+00 0.000000e+00 -1.000000e+00
    outer loop
      vertex 2.000000e+02 1.400000e+01 2.800000e+01
      vertex 2.120000e+02 1.460000e+02 2.800000e+01
      vertex 2.120000e+02 1.400000e+01 2.800000e+01
    endloop
  endfacet
  facet normal 0.000000e+00 0.000000e+00 -1.000000e+00
    outer loop
      vertex 2.000000e+02 1.400000e+01 2.800000e+01
      vertex 2.000000e+02 1.460000e+02 2.800000e+01
      vertex 2.120000e+02 1.460000e+02 2.800000e+01
    endloop
  endfacet
  facet normal 0.000000e+00 1.000000e+00 0.000000e+00
    outer loop
      vertex 2.000000e+02 1.400000e+01 1.000000e+01
      vertex 2.000000e+02 1.400000e+01 2.800000e+01
      vertex 2.120000e+02 1.400000e+01 2.800000e+01
    endloop
  endfacet
  facet normal 0.000000e+00 1.000000e+00 0.000000e+00
    outer loop
      vertex 2.000000e+02 1.400000e+01 1.000000e+01
      vertex 2.120000e+02 1.400000e+01 2.800000e+01
      vertex 2.120000e+02 1.400000e+01 1.000000e+01
    endloop
  endfacet
  facet normal -1.000000e+00 0.000000e+00 0.000000e+00
    outer loop
      vertex 2.120000e+02 1.400000e+01 1.000000e+01
      vertex 2.120000e+02 1.400000e+01 2.800000e+01
      vertex 2.120000e+02 1.460000e+02 2.800000e+01
    endloop
  endfacet
  facet normal -1.000000e+00 0.000000e+00 0.000000e+00
    outer loop
      vertex 2.120000e+02 1.400000e+01 1.000000e+01
      vertex 2.120000e+02 1.460000e+02 2.800000e+01
      vertex 2.120000e+02 1.460000e+02 1.000000e+01
    endloop
  endfacet
  facet normal 0.000000e+00 -1.000000e+00 0.000000e+00
    outer loop
      vertex 2.120000e+02 1.460000e+02 1.000000e+01
      vertex 2.120000e+02 1.460000e+02 2.800000e+01
      vertex 2.000000e+02 1.460000e+02 2.800000e+01
    endloop
  endfacet
  facet normal 0.000000e+00 -1.000000e+00 0.000000e+00
    outer loop
      vertex 2.120000e+02 1.460000e+02 1.000000e+01
      vertex 2.000000e+02 1.460000e+02 2.800000e+01
      vertex 2.000000e+02 1.460000e+02 1.000000e+01
    endloop
  endfacet
  facet normal 1.000000e+00 0.000000e+00 0.000000e+00
    outer loop
      vertex 2.000000e+02 1.460000e+02 1.000000e+01
      vertex 2.000000e+02 1.460000e+02 2.800000e+01
      vertex 2.000000e+02 1.400000e+01 2.800000e+01
    endloop
  endfacet
  facet normal 1.000000e+00 0.000000e+00 0.000000e+00
    outer loop
      vertex 2.000000e+02 1.460000e+02 1.000000e+01
      vertex 2.000000e+02 1.400000e+01 2.800000e+01
      vertex 2.000000e+02 1.400000e+01 1.000000e+01
    endloop
  endfacet
endsolid afo_chip_package_3d
