solid afo_hardware_system_3d
  facet normal 0.000000e+00 0.000000e+00 1.000000e+00
    outer loop
      vertex 0.000000e+00 0.000000e+00 0.000000e+00
      vertex 5.200000e+02 0.000000e+00 0.000000e+00
      vertex 5.200000e+02 3.300000e+02 0.000000e+00
    endloop
  endfacet
  facet normal 0.000000e+00 0.000000e+00 1.000000e+00
    outer loop
      vertex 0.000000e+00 0.000000e+00 0.000000e+00
      vertex 5.200000e+02 3.300000e+02 0.000000e+00
      vertex 0.000000e+00 3.300000e+02 0.000000e+00
    endloop
  endfacet
  facet normal 0.000000e+00 0.000000e+00 -1.000000e+00
    outer loop
      vertex 0.000000e+00 0.000000e+00 1.000000e+01
      vertex 5.200000e+02 3.300000e+02 1.000000e+01
      vertex 5.200000e+02 0.000000e+00 1.000000e+01
    endloop
  endfacet
  facet normal 0.000000e+00 0.000000e+00 -1.000000e+00
    outer loop
      vertex 0.000000e+00 0.000000e+00 1.000000e+01
      vertex 0.000000e+00 3.300000e+02 1.000000e+01
      vertex 5.200000e+02 3.300000e+02 1.000000e+01
    endloop
  endfacet
  facet normal 0.000000e+00 1.000000e+00 0.000000e+00
    outer loop
      vertex 0.000000e+00 0.000000e+00 0.000000e+00
      vertex 0.000000e+00 0.000000e+00 1.000000e+01
      vertex 5.200000e+02 0.000000e+00 1.000000e+01
    endloop
  endfacet
  facet normal 0.000000e+00 1.000000e+00 0.000000e+00
    outer loop
      vertex 0.000000e+00 0.000000e+00 0.000000e+00
      vertex 5.200000e+02 0.000000e+00 1.000000e+01
      vertex 5.200000e+02 0.000000e+00 0.000000e+00
    endloop
  endfacet
  facet normal -1.000000e+00 0.000000e+00 0.000000e+00
    outer loop
      vertex 5.200000e+02 0.000000e+00 0.000000e+00
      vertex 5.200000e+02 0.000000e+00 1.000000e+01
      vertex 5.200000e+02 3.300000e+02 1.000000e+01
    endloop
  endfacet
  facet normal -1.000000e+00 0.000000e+00 0.000000e+00
    outer loop
      vertex 5.200000e+02 0.000000e+00 0.000000e+00
      vertex 5.200000e+02 3.300000e+02 1.000000e+01
      vertex 5.200000e+02 3.300000e+02 0.000000e+00
    endloop
  endfacet
  facet normal 0.000000e+00 -1.000000e+00 0.000000e+00
    outer loop
      vertex 5.200000e+02 3.300000e+02 0.000000e+00
      vertex 5.200000e+02 3.300000e+02 1.000000e+01
      vertex 0.000000e+00 3.300000e+02 1.000000e+01
    endloop
  endfacet
  facet normal 0.000000e+00 -1.000000e+00 0.000000e+00
    outer loop
      vertex 5.200000e+02 3.300000e+02 0.000000e+00
      vertex 0.000000e+00 3.300000e+02 1.000000e+01
      vertex 0.000000e+00 3.300000e+02 0.000000e+00
    endloop
  endfacet
  facet normal 1.000000e+00 0.000000e+00 0.000000e+00
    outer loop
      vertex 0.000000e+00 3.300000e+02 0.000000e+00
      vertex 0.000000e+00 3.300000e+02 1.000000e+01
      vertex 0.000000e+00 0.000000e+00 1.000000e+01
    endloop
  endfacet
  facet normal 1.000000e+00 0.000000e+00 0.000000e+00
    outer loop
      vertex 0.000000e+00 3.300000e+02 0.000000e+00
      vertex 0.000000e+00 0.000000e+00 1.000000e+01
      vertex 0.000000e+00 0.000000e+00 0.000000e+00
    endloop
  endfacet
  facet normal 0.000000e+00 0.000000e+00 1.000000e+00
    outer loop
      vertex 1.700000e+02 1.000000e+02 1.200000e+01
      vertex 3.500000e+02 1.000000e+02 1.200000e+01
      vertex 3.500000e+02 2.200000e+02 1.200000e+01
    endloop
  endfacet
  facet normal 0.000000e+00 0.000000e+00 1.000000e+00
    outer loop
      vertex 1.700000e+02 1.000000e+02 1.200000e+01
      vertex 3.500000e+02 2.200000e+02 1.200000e+01
      vertex 1.700000e+02 2.200000e+02 1.200000e+01
    endloop
  endfacet
  facet normal 0.000000e+00 0.000000e+00 -1.000000e+00
    outer loop
      vertex 1.700000e+02 1.000000e+02 2.000000e+01
      vertex 3.500000e+02 2.200000e+02 2.000000e+01
      vertex 3.500000e+02 1.000000e+02 2.000000e+01
    endloop
  endfacet
  facet normal 0.000000e+00 0.000000e+00 -1.000000e+00
    outer loop
      vertex 1.700000e+02 1.000000e+02 2.000000e+01
      vertex 1.700000e+02 2.200000e+02 2.000000e+01
      vertex 3.500000e+02 2.200000e+02 2.000000e+01
    endloop
  endfacet
  facet normal 0.000000e+00 1.000000e+00 0.000000e+00
    outer loop
      vertex 1.700000e+02 1.000000e+02 1.200000e+01
      vertex 1.700000e+02 1.000000e+02 2.000000e+01
      vertex 3.500000e+02 1.000000e+02 2.000000e+01
    endloop
  endfacet
  facet normal 0.000000e+00 1.000000e+00 0.000000e+00
    outer loop
      vertex 1.700000e+02 1.000000e+02 1.200000e+01
      vertex 3.500000e+02 1.000000e+02 2.000000e+01
      vertex 3.500000e+02 1.000000e+02 1.200000e+01
    endloop
  endfacet
  facet normal -1.000000e+00 0.000000e+00 0.000000e+00
    outer loop
      vertex 3.500000e+02 1.000000e+02 1.200000e+01
      vertex 3.500000e+02 1.000000e+02 2.000000e+01
      vertex 3.500000e+02 2.200000e+02 2.000000e+01
    endloop
  endfacet
  facet normal -1.000000e+00 0.000000e+00 0.000000e+00
    outer loop
      vertex 3.500000e+02 1.000000e+02 1.200000e+01
      vertex 3.500000e+02 2.200000e+02 2.000000e+01
      vertex 3.500000e+02 2.200000e+02 1.200000e+01
    endloop
  endfacet
  facet normal 0.000000e+00 -1.000000e+00 0.000000e+00
    outer loop
      vertex 3.500000e+02 2.200000e+02 1.200000e+01
      vertex 3.500000e+02 2.200000e+02 2.000000e+01
      vertex 1.700000e+02 2.200000e+02 2.000000e+01
    endloop
  endfacet
  facet normal 0.000000e+00 -1.000000e+00 0.000000e+00
    outer loop
      vertex 3.500000e+02 2.200000e+02 1.200000e+01
      vertex 1.700000e+02 2.200000e+02 2.000000e+01
      vertex 1.700000e+02 2.200000e+02 1.200000e+01
    endloop
  endfacet
  facet normal 1.000000e+00 0.000000e+00 0.000000e+00
    outer loop
      vertex 1.700000e+02 2.200000e+02 1.200000e+01
      vertex 1.700000e+02 2.200000e+02 2.000000e+01
      vertex 1.700000e+02 1.000000e+02 2.000000e+01
    endloop
  endfacet
  facet normal 1.000000e+00 0.000000e+00 0.000000e+00
    outer loop
      vertex 1.700000e+02 2.200000e+02 1.200000e+01
      vertex 1.700000e+02 1.000000e+02 2.000000e+01
      vertex 1.700000e+02 1.000000e+02 1.200000e+01
    endloop
  endfacet
  facet normal 0.000000e+00 0.000000e+00 1.000000e+00
    outer loop
      vertex 1.900000e+02 1.180000e+02 2.200000e+01
      vertex 3.300000e+02 1.180000e+02 2.200000e+01
      vertex 3.300000e+02 2.030000e+02 2.200000e+01
    endloop
  endfacet
  facet normal 0.000000e+00 0.000000e+00 1.000000e+00
    outer loop
      vertex 1.900000e+02 1.180000e+02 2.200000e+01
      vertex 3.300000e+02 2.030000e+02 2.200000e+01
      vertex 1.900000e+02 2.030000e+02 2.200000e+01
    endloop
  endfacet
  facet normal 0.000000e+00 0.000000e+00 -1.000000e+00
    outer loop
      vertex 1.900000e+02 1.180000e+02 4.000000e+01
      vertex 3.300000e+02 2.030000e+02 4.000000e+01
      vertex 3.300000e+02 1.180000e+02 4.000000e+01
    endloop
  endfacet
  facet normal 0.000000e+00 0.000000e+00 -1.000000e+00
    outer loop
      vertex 1.900000e+02 1.180000e+02 4.000000e+01
      vertex 1.900000e+02 2.030000e+02 4.000000e+01
      vertex 3.300000e+02 2.030000e+02 4.000000e+01
    endloop
  endfacet
  facet normal 0.000000e+00 1.000000e+00 0.000000e+00
    outer loop
      vertex 1.900000e+02 1.180000e+02 2.200000e+01
      vertex 1.900000e+02 1.180000e+02 4.000000e+01
      vertex 3.300000e+02 1.180000e+02 4.000000e+01
    endloop
  endfacet
  facet normal 0.000000e+00 1.000000e+00 0.000000e+00
    outer loop
      vertex 1.900000e+02 1.180000e+02 2.200000e+01
      vertex 3.300000e+02 1.180000e+02 4.000000e+01
      vertex 3.300000e+02 1.180000e+02 2.200000e+01
    endloop
  endfacet
  facet normal -1.000000e+00 0.000000e+00 0.000000e+00
    outer loop
      vertex 3.300000e+02 1.180000e+02 2.200000e+01
      vertex 3.300000e+02 1.180000e+02 4.000000e+01
      vertex 3.300000e+02 2.030000e+02 4.000000e+01
    endloop
  endfacet
  facet normal -1.000000e+00 0.000000e+00 0.000000e+00
    outer loop
      vertex 3.300000e+02 1.180000e+02 2.200000e+01
      vertex 3.300000e+02 2.030000e+02 4.000000e+01
      vertex 3.300000e+02 2.030000e+02 2.200000e+01
    endloop
  endfacet
  facet normal 0.000000e+00 -1.000000e+00 0.000000e+00
    outer loop
      vertex 3.300000e+02 2.030000e+02 2.200000e+01
      vertex 3.300000e+02 2.030000e+02 4.000000e+01
      vertex 1.900000e+02 2.030000e+02 4.000000e+01
    endloop
  endfacet
  facet normal 0.000000e+00 -1.000000e+00 0.000000e+00
    outer loop
      vertex 3.300000e+02 2.030000e+02 2.200000e+01
      vertex 1.900000e+02 2.030000e+02 4.000000e+01
      vertex 1.900000e+02 2.030000e+02 2.200000e+01
    endloop
  endfacet
  facet normal 1.000000e+00 0.000000e+00 0.000000e+00
    outer loop
      vertex 1.900000e+02 2.030000e+02 2.200000e+01
      vertex 1.900000e+02 2.030000e+02 4.000000e+01
      vertex 1.900000e+02 1.180000e+02 4.000000e+01
    endloop
  endfacet
  facet normal 1.000000e+00 0.000000e+00 0.000000e+00
    outer loop
      vertex 1.900000e+02 2.030000e+02 2.200000e+01
      vertex 1.900000e+02 1.180000e+02 4.000000e+01
      vertex 1.900000e+02 1.180000e+02 2.200000e+01
    endloop
  endfacet
  facet normal 0.000000e+00 0.000000e+00 1.000000e+00
    outer loop
      vertex 1.800000e+02 1.080000e+02 4.200000e+01
      vertex 3.400000e+02 1.080000e+02 4.200000e+01
      vertex 3.400000e+02 2.130000e+02 4.200000e+01
    endloop
  endfacet
  facet normal 0.000000e+00 0.000000e+00 1.000000e+00
    outer loop
      vertex 1.800000e+02 1.080000e+02 4.200000e+01
      vertex 3.400000e+02 2.130000e+02 4.200000e+01
      vertex 1.800000e+02 2.130000e+02 4.200000e+01
    endloop
  endfacet
  facet normal 0.000000e+00 0.000000e+00 -1.000000e+00
    outer loop
      vertex 1.800000e+02 1.080000e+02 5.000000e+01
      vertex 3.400000e+02 2.130000e+02 5.000000e+01
      vertex 3.400000e+02 1.080000e+02 5.000000e+01
    endloop
  endfacet
  facet normal 0.000000e+00 0.000000e+00 -1.000000e+00
    outer loop
      vertex 1.800000e+02 1.080000e+02 5.000000e+01
      vertex 1.800000e+02 2.130000e+02 5.000000e+01
      vertex 3.400000e+02 2.130000e+02 5.000000e+01
    endloop
  endfacet
  facet normal 0.000000e+00 1.000000e+00 0.000000e+00
    outer loop
      vertex 1.800000e+02 1.080000e+02 4.200000e+01
      vertex 1.800000e+02 1.080000e+02 5.000000e+01
      vertex 3.400000e+02 1.080000e+02 5.000000e+01
    endloop
  endfacet
  facet normal 0.000000e+00 1.000000e+00 0.000000e+00
    outer loop
      vertex 1.800000e+02 1.080000e+02 4.200000e+01
      vertex 3.400000e+02 1.080000e+02 5.000000e+01
      vertex 3.400000e+02 1.080000e+02 4.200000e+01
    endloop
  endfacet
  facet normal -1.000000e+00 0.000000e+00 0.000000e+00
    outer loop
      vertex 3.400000e+02 1.080000e+02 4.200000e+01
      vertex 3.400000e+02 1.080000e+02 5.000000e+01
      vertex 3.400000e+02 2.130000e+02 5.000000e+01
    endloop
  endfacet
  facet normal -1.000000e+00 0.000000e+00 0.000000e+00
    outer loop
      vertex 3.400000e+02 1.080000e+02 4.200000e+01
      vertex 3.400000e+02 2.130000e+02 5.000000e+01
      vertex 3.400000e+02 2.130000e+02 4.200000e+01
    endloop
  endfacet
  facet normal 0.000000e+00 -1.000000e+00 0.000000e+00
    outer loop
      vertex 3.400000e+02 2.130000e+02 4.200000e+01
      vertex 3.400000e+02 2.130000e+02 5.000000e+01
      vertex 1.800000e+02 2.130000e+02 5.000000e+01
    endloop
  endfacet
  facet normal 0.000000e+00 -1.000000e+00 0.000000e+00
    outer loop
      vertex 3.400000e+02 2.130000e+02 4.200000e+01
      vertex 1.800000e+02 2.130000e+02 5.000000e+01
      vertex 1.800000e+02 2.130000e+02 4.200000e+01
    endloop
  endfacet
  facet normal 1.000000e+00 0.000000e+00 0.000000e+00
    outer loop
      vertex 1.800000e+02 2.130000e+02 4.200000e+01
      vertex 1.800000e+02 2.130000e+02 5.000000e+01
      vertex 1.800000e+02 1.080000e+02 5.000000e+01
    endloop
  endfacet
  facet normal 1.000000e+00 0.000000e+00 0.000000e+00
    outer loop
      vertex 1.800000e+02 2.130000e+02 4.200000e+01
      vertex 1.800000e+02 1.080000e+02 5.000000e+01
      vertex 1.800000e+02 1.080000e+02 4.200000e+01
    endloop
  endfacet
  facet normal 0.000000e+00 0.000000e+00 1.000000e+00
    outer loop
      vertex 1.860000e+02 1.120000e+02 5.000000e+01
      vertex 1.920000e+02 1.120000e+02 5.000000e+01
      vertex 1.920000e+02 2.080000e+02 5.000000e+01
    endloop
  endfacet
  facet normal 0.000000e+00 0.000000e+00 1.000000e+00
    outer loop
      vertex 1.860000e+02 1.120000e+02 5.000000e+01
      vertex 1.920000e+02 2.080000e+02 5.000000e+01
      vertex 1.860000e+02 2.080000e+02 5.000000e+01
    endloop
  endfacet
  facet normal 0.000000e+00 0.000000e+00 -1.000000e+00
    outer loop
      vertex 1.860000e+02 1.120000e+02 8.400000e+01
      vertex 1.920000e+02 2.080000e+02 8.400000e+01
      vertex 1.920000e+02 1.120000e+02 8.400000e+01
    endloop
  endfacet
  facet normal 0.000000e+00 0.000000e+00 -1.000000e+00
    outer loop
      vertex 1.860000e+02 1.120000e+02 8.400000e+01
      vertex 1.860000e+02 2.080000e+02 8.400000e+01
      vertex 1.920000e+02 2.080000e+02 8.400000e+01
    endloop
  endfacet
  facet normal 0.000000e+00 1.000000e+00 0.000000e+00
    outer loop
      vertex 1.860000e+02 1.120000e+02 5.000000e+01
      vertex 1.860000e+02 1.120000e+02 8.400000e+01
      vertex 1.920000e+02 1.120000e+02 8.400000e+01
    endloop
  endfacet
  facet normal 0.000000e+00 1.000000e+00 0.000000e+00
    outer loop
      vertex 1.860000e+02 1.120000e+02 5.000000e+01
      vertex 1.920000e+02 1.120000e+02 8.400000e+01
      vertex 1.920000e+02 1.120000e+02 5.000000e+01
    endloop
  endfacet
  facet normal -1.000000e+00 0.000000e+00 0.000000e+00
    outer loop
      vertex 1.920000e+02 1.120000e+02 5.000000e+01
      vertex 1.920000e+02 1.120000e+02 8.400000e+01
      vertex 1.920000e+02 2.080000e+02 8.400000e+01
    endloop
  endfacet
  facet normal -1.000000e+00 0.000000e+00 0.000000e+00
    outer loop
      vertex 1.920000e+02 1.120000e+02 5.000000e+01
      vertex 1.920000e+02 2.080000e+02 8.400000e+01
      vertex 1.920000e+02 2.080000e+02 5.000000e+01
    endloop
  endfacet
  facet normal 0.000000e+00 -1.000000e+00 0.000000e+00
    outer loop
      vertex 1.920000e+02 2.080000e+02 5.000000e+01
      vertex 1.920000e+02 2.080000e+02 8.400000e+01
      vertex 1.860000e+02 2.080000e+02 8.400000e+01
    endloop
  endfacet
  facet normal 0.000000e+00 -1.000000e+00 0.000000e+00
    outer loop
      vertex 1.920000e+02 2.080000e+02 5.000000e+01
      vertex 1.860000e+02 2.080000e+02 8.400000e+01
      vertex 1.860000e+02 2.080000e+02 5.000000e+01
    endloop
  endfacet
  facet normal 1.000000e+00 0.000000e+00 0.000000e+00
    outer loop
      vertex 1.860000e+02 2.080000e+02 5.000000e+01
      vertex 1.860000e+02 2.080000e+02 8.400000e+01
      vertex 1.860000e+02 1.120000e+02 8.400000e+01
    endloop
  endfacet
  facet normal 1.000000e+00 0.000000e+00 0.000000e+00
    outer loop
      vertex 1.860000e+02 2.080000e+02 5.000000e+01
      vertex 1.860000e+02 1.120000e+02 8.400000e+01
      vertex 1.860000e+02 1.120000e+02 5.000000e+01
    endloop
  endfacet
  facet normal 0.000000e+00 0.000000e+00 1.000000e+00
    outer loop
      vertex 2.000000e+02 1.120000e+02 5.000000e+01
      vertex 2.060000e+02 1.120000e+02 5.000000e+01
      vertex 2.060000e+02 2.080000e+02 5.000000e+01
    endloop
  endfacet
  facet normal 0.000000e+00 0.000000e+00 1.000000e+00
    outer loop
      vertex 2.000000e+02 1.120000e+02 5.000000e+01
      vertex 2.060000e+02 2.080000e+02 5.000000e+01
      vertex 2.000000e+02 2.080000e+02 5.000000e+01
    endloop
  endfacet
  facet normal 0.000000e+00 0.000000e+00 -1.000000e+00
    outer loop
      vertex 2.000000e+02 1.120000e+02 8.400000e+01
      vertex 2.060000e+02 2.080000e+02 8.400000e+01
      vertex 2.060000e+02 1.120000e+02 8.400000e+01
    endloop
  endfacet
  facet normal 0.000000e+00 0.000000e+00 -1.000000e+00
    outer loop
      vertex 2.000000e+02 1.120000e+02 8.400000e+01
      vertex 2.000000e+02 2.080000e+02 8.400000e+01
      vertex 2.060000e+02 2.080000e+02 8.400000e+01
    endloop
  endfacet
  facet normal 0.000000e+00 1.000000e+00 0.000000e+00
    outer loop
      vertex 2.000000e+02 1.120000e+02 5.000000e+01
      vertex 2.000000e+02 1.120000e+02 8.400000e+01
      vertex 2.060000e+02 1.120000e+02 8.400000e+01
    endloop
  endfacet
  facet normal 0.000000e+00 1.000000e+00 0.000000e+00
    outer loop
      vertex 2.000000e+02 1.120000e+02 5.000000e+01
      vertex 2.060000e+02 1.120000e+02 8.400000e+01
      vertex 2.060000e+02 1.120000e+02 5.000000e+01
    endloop
  endfacet
  facet normal -1.000000e+00 0.000000e+00 0.000000e+00
    outer loop
      vertex 2.060000e+02 1.120000e+02 5.000000e+01
      vertex 2.060000e+02 1.120000e+02 8.400000e+01
      vertex 2.060000e+02 2.080000e+02 8.400000e+01
    endloop
  endfacet
  facet normal -1.000000e+00 0.000000e+00 0.000000e+00
    outer loop
      vertex 2.060000e+02 1.120000e+02 5.000000e+01
      vertex 2.060000e+02 2.080000e+02 8.400000e+01
      vertex 2.060000e+02 2.080000e+02 5.000000e+01
    endloop
  endfacet
  facet normal 0.000000e+00 -1.000000e+00 0.000000e+00
    outer loop
      vertex 2.060000e+02 2.080000e+02 5.000000e+01
      vertex 2.060000e+02 2.080000e+02 8.400000e+01
      vertex 2.000000e+02 2.080000e+02 8.400000e+01
    endloop
  endfacet
  facet normal 0.000000e+00 -1.000000e+00 0.000000e+00
    outer loop
      vertex 2.060000e+02 2.080000e+02 5.000000e+01
      vertex 2.000000e+02 2.080000e+02 8.400000e+01
      vertex 2.000000e+02 2.080000e+02 5.000000e+01
    endloop
  endfacet
  facet normal 1.000000e+00 0.000000e+00 0.000000e+00
    outer loop
      vertex 2.000000e+02 2.080000e+02 5.000000e+01
      vertex 2.000000e+02 2.080000e+02 8.400000e+01
      vertex 2.000000e+02 1.120000e+02 8.400000e+01
    endloop
  endfacet
  facet normal 1.000000e+00 0.000000e+00 0.000000e+00
    outer loop
      vertex 2.000000e+02 2.080000e+02 5.000000e+01
      vertex 2.000000e+02 1.120000e+02 8.400000e+01
      vertex 2.000000e+02 1.120000e+02 5.000000e+01
    endloop
  endfacet
  facet normal 0.000000e+00 0.000000e+00 1.000000e+00
    outer loop
      vertex 2.140000e+02 1.120000e+02 5.000000e+01
      vertex 2.200000e+02 1.120000e+02 5.000000e+01
      vertex 2.200000e+02 2.080000e+02 5.000000e+01
    endloop
  endfacet
  facet normal 0.000000e+00 0.000000e+00 1.000000e+00
    outer loop
      vertex 2.140000e+02 1.120000e+02 5.000000e+01
      vertex 2.200000e+02 2.080000e+02 5.000000e+01
      vertex 2.140000e+02 2.080000e+02 5.000000e+01
    endloop
  endfacet
  facet normal 0.000000e+00 0.000000e+00 -1.000000e+00
    outer loop
      vertex 2.140000e+02 1.120000e+02 8.400000e+01
      vertex 2.200000e+02 2.080000e+02 8.400000e+01
      vertex 2.200000e+02 1.120000e+02 8.400000e+01
    endloop
  endfacet
  facet normal 0.000000e+00 0.000000e+00 -1.000000e+00
    outer loop
      vertex 2.140000e+02 1.120000e+02 8.400000e+01
      vertex 2.140000e+02 2.080000e+02 8.400000e+01
      vertex 2.200000e+02 2.080000e+02 8.400000e+01
    endloop
  endfacet
  facet normal 0.000000e+00 1.000000e+00 0.000000e+00
    outer loop
      vertex 2.140000e+02 1.120000e+02 5.000000e+01
      vertex 2.140000e+02 1.120000e+02 8.400000e+01
      vertex 2.200000e+02 1.120000e+02 8.400000e+01
    endloop
  endfacet
  facet normal 0.000000e+00 1.000000e+00 0.000000e+00
    outer loop
      vertex 2.140000e+02 1.120000e+02 5.000000e+01
      vertex 2.200000e+02 1.120000e+02 8.400000e+01
      vertex 2.200000e+02 1.120000e+02 5.000000e+01
    endloop
  endfacet
  facet normal -1.000000e+00 0.000000e+00 0.000000e+00
    outer loop
      vertex 2.200000e+02 1.120000e+02 5.000000e+01
      vertex 2.200000e+02 1.120000e+02 8.400000e+01
      vertex 2.200000e+02 2.080000e+02 8.400000e+01
    endloop
  endfacet
  facet normal -1.000000e+00 0.000000e+00 0.000000e+00
    outer loop
      vertex 2.200000e+02 1.120000e+02 5.000000e+01
      vertex 2.200000e+02 2.080000e+02 8.400000e+01
      vertex 2.200000e+02 2.080000e+02 5.000000e+01
    endloop
  endfacet
  facet normal 0.000000e+00 -1.000000e+00 0.000000e+00
    outer loop
      vertex 2.200000e+02 2.080000e+02 5.000000e+01
      vertex 2.200000e+02 2.080000e+02 8.400000e+01
      vertex 2.140000e+02 2.080000e+02 8.400000e+01
    endloop
  endfacet
  facet normal 0.000000e+00 -1.000000e+00 0.000000e+00
    outer loop
      vertex 2.200000e+02 2.080000e+02 5.000000e+01
      vertex 2.140000e+02 2.080000e+02 8.400000e+01
      vertex 2.140000e+02 2.080000e+02 5.000000e+01
    endloop
  endfacet
  facet normal 1.000000e+00 0.000000e+00 0.000000e+00
    outer loop
      vertex 2.140000e+02 2.080000e+02 5.000000e+01
      vertex 2.140000e+02 2.080000e+02 8.400000e+01
      vertex 2.140000e+02 1.120000e+02 8.400000e+01
    endloop
  endfacet
  facet normal 1.000000e+00 0.000000e+00 0.000000e+00
    outer loop
      vertex 2.140000e+02 2.080000e+02 5.000000e+01
      vertex 2.140000e+02 1.120000e+02 8.400000e+01
      vertex 2.140000e+02 1.120000e+02 5.000000e+01
    endloop
  endfacet
  facet normal 0.000000e+00 0.000000e+00 1.000000e+00
    outer loop
      vertex 2.280000e+02 1.120000e+02 5.000000e+01
      vertex 2.340000e+02 1.120000e+02 5.000000e+01
      vertex 2.340000e+02 2.080000e+02 5.000000e+01
    endloop
  endfacet
  facet normal 0.000000e+00 0.000000e+00 1.000000e+00
    outer loop
      vertex 2.280000e+02 1.120000e+02 5.000000e+01
      vertex 2.340000e+02 2.080000e+02 5.000000e+01
      vertex 2.280000e+02 2.080000e+02 5.000000e+01
    endloop
  endfacet
  facet normal 0.000000e+00 0.000000e+00 -1.000000e+00
    outer loop
      vertex 2.280000e+02 1.120000e+02 8.400000e+01
      vertex 2.340000e+02 2.080000e+02 8.400000e+01
      vertex 2.340000e+02 1.120000e+02 8.400000e+01
    endloop
  endfacet
  facet normal 0.000000e+00 0.000000e+00 -1.000000e+00
    outer loop
      vertex 2.280000e+02 1.120000e+02 8.400000e+01
      vertex 2.280000e+02 2.080000e+02 8.400000e+01
      vertex 2.340000e+02 2.080000e+02 8.400000e+01
    endloop
  endfacet
  facet normal 0.000000e+00 1.000000e+00 0.000000e+00
    outer loop
      vertex 2.280000e+02 1.120000e+02 5.000000e+01
      vertex 2.280000e+02 1.120000e+02 8.400000e+01
      vertex 2.340000e+02 1.120000e+02 8.400000e+01
    endloop
  endfacet
  facet normal 0.000000e+00 1.000000e+00 0.000000e+00
    outer loop
      vertex 2.280000e+02 1.120000e+02 5.000000e+01
      vertex 2.340000e+02 1.120000e+02 8.400000e+01
      vertex 2.340000e+02 1.120000e+02 5.000000e+01
    endloop
  endfacet
  facet normal -1.000000e+00 0.000000e+00 0.000000e+00
    outer loop
      vertex 2.340000e+02 1.120000e+02 5.000000e+01
      vertex 2.340000e+02 1.120000e+02 8.400000e+01
      vertex 2.340000e+02 2.080000e+02 8.400000e+01
    endloop
  endfacet
  facet normal -1.000000e+00 0.000000e+00 0.000000e+00
    outer loop
      vertex 2.340000e+02 1.120000e+02 5.000000e+01
      vertex 2.340000e+02 2.080000e+02 8.400000e+01
      vertex 2.340000e+02 2.080000e+02 5.000000e+01
    endloop
  endfacet
  facet normal 0.000000e+00 -1.000000e+00 0.000000e+00
    outer loop
      vertex 2.340000e+02 2.080000e+02 5.000000e+01
      vertex 2.340000e+02 2.080000e+02 8.400000e+01
      vertex 2.280000e+02 2.080000e+02 8.400000e+01
    endloop
  endfacet
  facet normal 0.000000e+00 -1.000000e+00 0.000000e+00
    outer loop
      vertex 2.340000e+02 2.080000e+02 5.000000e+01
      vertex 2.280000e+02 2.080000e+02 8.400000e+01
      vertex 2.280000e+02 2.080000e+02 5.000000e+01
    endloop
  endfacet
  facet normal 1.000000e+00 0.000000e+00 0.000000e+00
    outer loop
      vertex 2.280000e+02 2.080000e+02 5.000000e+01
      vertex 2.280000e+02 2.080000e+02 8.400000e+01
      vertex 2.280000e+02 1.120000e+02 8.400000e+01
    endloop
  endfacet
  facet normal 1.000000e+00 0.000000e+00 0.000000e+00
    outer loop
      vertex 2.280000e+02 2.080000e+02 5.000000e+01
      vertex 2.280000e+02 1.120000e+02 8.400000e+01
      vertex 2.280000e+02 1.120000e+02 5.000000e+01
    endloop
  endfacet
  facet normal 0.000000e+00 0.000000e+00 1.000000e+00
    outer loop
      vertex 2.420000e+02 1.120000e+02 5.000000e+01
      vertex 2.480000e+02 1.120000e+02 5.000000e+01
      vertex 2.480000e+02 2.080000e+02 5.000000e+01
    endloop
  endfacet
  facet normal 0.000000e+00 0.000000e+00 1.000000e+00
    outer loop
      vertex 2.420000e+02 1.120000e+02 5.000000e+01
      vertex 2.480000e+02 2.080000e+02 5.000000e+01
      vertex 2.420000e+02 2.080000e+02 5.000000e+01
    endloop
  endfacet
  facet normal 0.000000e+00 0.000000e+00 -1.000000e+00
    outer loop
      vertex 2.420000e+02 1.120000e+02 8.400000e+01
      vertex 2.480000e+02 2.080000e+02 8.400000e+01
      vertex 2.480000e+02 1.120000e+02 8.400000e+01
    endloop
  endfacet
  facet normal 0.000000e+00 0.000000e+00 -1.000000e+00
    outer loop
      vertex 2.420000e+02 1.120000e+02 8.400000e+01
      vertex 2.420000e+02 2.080000e+02 8.400000e+01
      vertex 2.480000e+02 2.080000e+02 8.400000e+01
    endloop
  endfacet
  facet normal 0.000000e+00 1.000000e+00 0.000000e+00
    outer loop
      vertex 2.420000e+02 1.120000e+02 5.000000e+01
      vertex 2.420000e+02 1.120000e+02 8.400000e+01
      vertex 2.480000e+02 1.120000e+02 8.400000e+01
    endloop
  endfacet
  facet normal 0.000000e+00 1.000000e+00 0.000000e+00
    outer loop
      vertex 2.420000e+02 1.120000e+02 5.000000e+01
      vertex 2.480000e+02 1.120000e+02 8.400000e+01
      vertex 2.480000e+02 1.120000e+02 5.000000e+01
    endloop
  endfacet
  facet normal -1.000000e+00 0.000000e+00 0.000000e+00
    outer loop
      vertex 2.480000e+02 1.120000e+02 5.000000e+01
      vertex 2.480000e+02 1.120000e+02 8.400000e+01
      vertex 2.480000e+02 2.080000e+02 8.400000e+01
    endloop
  endfacet
  facet normal -1.000000e+00 0.000000e+00 0.000000e+00
    outer loop
      vertex 2.480000e+02 1.120000e+02 5.000000e+01
      vertex 2.480000e+02 2.080000e+02 8.400000e+01
      vertex 2.480000e+02 2.080000e+02 5.000000e+01
    endloop
  endfacet
  facet normal 0.000000e+00 -1.000000e+00 0.000000e+00
    outer loop
      vertex 2.480000e+02 2.080000e+02 5.000000e+01
      vertex 2.480000e+02 2.080000e+02 8.400000e+01
      vertex 2.420000e+02 2.080000e+02 8.400000e+01
    endloop
  endfacet
  facet normal 0.000000e+00 -1.000000e+00 0.000000e+00
    outer loop
      vertex 2.480000e+02 2.080000e+02 5.000000e+01
      vertex 2.420000e+02 2.080000e+02 8.400000e+01
      vertex 2.420000e+02 2.080000e+02 5.000000e+01
    endloop
  endfacet
  facet normal 1.000000e+00 0.000000e+00 0.000000e+00
    outer loop
      vertex 2.420000e+02 2.080000e+02 5.000000e+01
      vertex 2.420000e+02 2.080000e+02 8.400000e+01
      vertex 2.420000e+02 1.120000e+02 8.400000e+01
    endloop
  endfacet
  facet normal 1.000000e+00 0.000000e+00 0.000000e+00
    outer loop
      vertex 2.420000e+02 2.080000e+02 5.000000e+01
      vertex 2.420000e+02 1.120000e+02 8.400000e+01
      vertex 2.420000e+02 1.120000e+02 5.000000e+01
    endloop
  endfacet
  facet normal 0.000000e+00 0.000000e+00 1.000000e+00
    outer loop
      vertex 2.560000e+02 1.120000e+02 5.000000e+01
      vertex 2.620000e+02 1.120000e+02 5.000000e+01
      vertex 2.620000e+02 2.080000e+02 5.000000e+01
    endloop
  endfacet
  facet normal 0.000000e+00 0.000000e+00 1.000000e+00
    outer loop
      vertex 2.560000e+02 1.120000e+02 5.000000e+01
      vertex 2.620000e+02 2.080000e+02 5.000000e+01
      vertex 2.560000e+02 2.080000e+02 5.000000e+01
    endloop
  endfacet
  facet normal 0.000000e+00 0.000000e+00 -1.000000e+00
    outer loop
      vertex 2.560000e+02 1.120000e+02 8.400000e+01
      vertex 2.620000e+02 2.080000e+02 8.400000e+01
      vertex 2.620000e+02 1.120000e+02 8.400000e+01
    endloop
  endfacet
  facet normal 0.000000e+00 0.000000e+00 -1.000000e+00
    outer loop
      vertex 2.560000e+02 1.120000e+02 8.400000e+01
      vertex 2.560000e+02 2.080000e+02 8.400000e+01
      vertex 2.620000e+02 2.080000e+02 8.400000e+01
    endloop
  endfacet
  facet normal 0.000000e+00 1.000000e+00 0.000000e+00
    outer loop
      vertex 2.560000e+02 1.120000e+02 5.000000e+01
      vertex 2.560000e+02 1.120000e+02 8.400000e+01
      vertex 2.620000e+02 1.120000e+02 8.400000e+01
    endloop
  endfacet
  facet normal 0.000000e+00 1.000000e+00 0.000000e+00
    outer loop
      vertex 2.560000e+02 1.120000e+02 5.000000e+01
      vertex 2.620000e+02 1.120000e+02 8.400000e+01
      vertex 2.620000e+02 1.120000e+02 5.000000e+01
    endloop
  endfacet
  facet normal -1.000000e+00 0.000000e+00 0.000000e+00
    outer loop
      vertex 2.620000e+02 1.120000e+02 5.000000e+01
      vertex 2.620000e+02 1.120000e+02 8.400000e+01
      vertex 2.620000e+02 2.080000e+02 8.400000e+01
    endloop
  endfacet
  facet normal -1.000000e+00 0.000000e+00 0.000000e+00
    outer loop
      vertex 2.620000e+02 1.120000e+02 5.000000e+01
      vertex 2.620000e+02 2.080000e+02 8.400000e+01
      vertex 2.620000e+02 2.080000e+02 5.000000e+01
    endloop
  endfacet
  facet normal 0.000000e+00 -1.000000e+00 0.000000e+00
    outer loop
      vertex 2.620000e+02 2.080000e+02 5.000000e+01
      vertex 2.620000e+02 2.080000e+02 8.400000e+01
      vertex 2.560000e+02 2.080000e+02 8.400000e+01
    endloop
  endfacet
  facet normal 0.000000e+00 -1.000000e+00 0.000000e+00
    outer loop
      vertex 2.620000e+02 2.080000e+02 5.000000e+01
      vertex 2.560000e+02 2.080000e+02 8.400000e+01
      vertex 2.560000e+02 2.080000e+02 5.000000e+01
    endloop
  endfacet
  facet normal 1.000000e+00 0.000000e+00 0.000000e+00
    outer loop
      vertex 2.560000e+02 2.080000e+02 5.000000e+01
      vertex 2.560000e+02 2.080000e+02 8.400000e+01
      vertex 2.560000e+02 1.120000e+02 8.400000e+01
    endloop
  endfacet
  facet normal 1.000000e+00 0.000000e+00 0.000000e+00
    outer loop
      vertex 2.560000e+02 2.080000e+02 5.000000e+01
      vertex 2.560000e+02 1.120000e+02 8.400000e+01
      vertex 2.560000e+02 1.120000e+02 5.000000e+01
    endloop
  endfacet
  facet normal 0.000000e+00 0.000000e+00 1.000000e+00
    outer loop
      vertex 2.700000e+02 1.120000e+02 5.000000e+01
      vertex 2.760000e+02 1.120000e+02 5.000000e+01
      vertex 2.760000e+02 2.080000e+02 5.000000e+01
    endloop
  endfacet
  facet normal 0.000000e+00 0.000000e+00 1.000000e+00
    outer loop
      vertex 2.700000e+02 1.120000e+02 5.000000e+01
      vertex 2.760000e+02 2.080000e+02 5.000000e+01
      vertex 2.700000e+02 2.080000e+02 5.000000e+01
    endloop
  endfacet
  facet normal 0.000000e+00 0.000000e+00 -1.000000e+00
    outer loop
      vertex 2.700000e+02 1.120000e+02 8.400000e+01
      vertex 2.760000e+02 2.080000e+02 8.400000e+01
      vertex 2.760000e+02 1.120000e+02 8.400000e+01
    endloop
  endfacet
  facet normal 0.000000e+00 0.000000e+00 -1.000000e+00
    outer loop
      vertex 2.700000e+02 1.120000e+02 8.400000e+01
      vertex 2.700000e+02 2.080000e+02 8.400000e+01
      vertex 2.760000e+02 2.080000e+02 8.400000e+01
    endloop
  endfacet
  facet normal 0.000000e+00 1.000000e+00 0.000000e+00
    outer loop
      vertex 2.700000e+02 1.120000e+02 5.000000e+01
      vertex 2.700000e+02 1.120000e+02 8.400000e+01
      vertex 2.760000e+02 1.120000e+02 8.400000e+01
    endloop
  endfacet
  facet normal 0.000000e+00 1.000000e+00 0.000000e+00
    outer loop
      vertex 2.700000e+02 1.120000e+02 5.000000e+01
      vertex 2.760000e+02 1.120000e+02 8.400000e+01
      vertex 2.760000e+02 1.120000e+02 5.000000e+01
    endloop
  endfacet
  facet normal -1.000000e+00 0.000000e+00 0.000000e+00
    outer loop
      vertex 2.760000e+02 1.120000e+02 5.000000e+01
      vertex 2.760000e+02 1.120000e+02 8.400000e+01
      vertex 2.760000e+02 2.080000e+02 8.400000e+01
    endloop
  endfacet
  facet normal -1.000000e+00 0.000000e+00 0.000000e+00
    outer loop
      vertex 2.760000e+02 1.120000e+02 5.000000e+01
      vertex 2.760000e+02 2.080000e+02 8.400000e+01
      vertex 2.760000e+02 2.080000e+02 5.000000e+01
    endloop
  endfacet
  facet normal 0.000000e+00 -1.000000e+00 0.000000e+00
    outer loop
      vertex 2.760000e+02 2.080000e+02 5.000000e+01
      vertex 2.760000e+02 2.080000e+02 8.400000e+01
      vertex 2.700000e+02 2.080000e+02 8.400000e+01
    endloop
  endfacet
  facet normal 0.000000e+00 -1.000000e+00 0.000000e+00
    outer loop
      vertex 2.760000e+02 2.080000e+02 5.000000e+01
      vertex 2.700000e+02 2.080000e+02 8.400000e+01
      vertex 2.700000e+02 2.080000e+02 5.000000e+01
    endloop
  endfacet
  facet normal 1.000000e+00 0.000000e+00 0.000000e+00
    outer loop
      vertex 2.700000e+02 2.080000e+02 5.000000e+01
      vertex 2.700000e+02 2.080000e+02 8.400000e+01
      vertex 2.700000e+02 1.120000e+02 8.400000e+01
    endloop
  endfacet
  facet normal 1.000000e+00 0.000000e+00 0.000000e+00
    outer loop
      vertex 2.700000e+02 2.080000e+02 5.000000e+01
      vertex 2.700000e+02 1.120000e+02 8.400000e+01
      vertex 2.700000e+02 1.120000e+02 5.000000e+01
    endloop
  endfacet
  facet normal 0.000000e+00 0.000000e+00 1.000000e+00
    outer loop
      vertex 2.840000e+02 1.120000e+02 5.000000e+01
      vertex 2.900000e+02 1.120000e+02 5.000000e+01
      vertex 2.900000e+02 2.080000e+02 5.000000e+01
    endloop
  endfacet
  facet normal 0.000000e+00 0.000000e+00 1.000000e+00
    outer loop
      vertex 2.840000e+02 1.120000e+02 5.000000e+01
      vertex 2.900000e+02 2.080000e+02 5.000000e+01
      vertex 2.840000e+02 2.080000e+02 5.000000e+01
    endloop
  endfacet
  facet normal 0.000000e+00 0.000000e+00 -1.000000e+00
    outer loop
      vertex 2.840000e+02 1.120000e+02 8.400000e+01
      vertex 2.900000e+02 2.080000e+02 8.400000e+01
      vertex 2.900000e+02 1.120000e+02 8.400000e+01
    endloop
  endfacet
  facet normal 0.000000e+00 0.000000e+00 -1.000000e+00
    outer loop
      vertex 2.840000e+02 1.120000e+02 8.400000e+01
      vertex 2.840000e+02 2.080000e+02 8.400000e+01
      vertex 2.900000e+02 2.080000e+02 8.400000e+01
    endloop
  endfacet
  facet normal 0.000000e+00 1.000000e+00 0.000000e+00
    outer loop
      vertex 2.840000e+02 1.120000e+02 5.000000e+01
      vertex 2.840000e+02 1.120000e+02 8.400000e+01
      vertex 2.900000e+02 1.120000e+02 8.400000e+01
    endloop
  endfacet
  facet normal 0.000000e+00 1.000000e+00 0.000000e+00
    outer loop
      vertex 2.840000e+02 1.120000e+02 5.000000e+01
      vertex 2.900000e+02 1.120000e+02 8.400000e+01
      vertex 2.900000e+02 1.120000e+02 5.000000e+01
    endloop
  endfacet
  facet normal -1.000000e+00 0.000000e+00 0.000000e+00
    outer loop
      vertex 2.900000e+02 1.120000e+02 5.000000e+01
      vertex 2.900000e+02 1.120000e+02 8.400000e+01
      vertex 2.900000e+02 2.080000e+02 8.400000e+01
    endloop
  endfacet
  facet normal -1.000000e+00 0.000000e+00 0.000000e+00
    outer loop
      vertex 2.900000e+02 1.120000e+02 5.000000e+01
      vertex 2.900000e+02 2.080000e+02 8.400000e+01
      vertex 2.900000e+02 2.080000e+02 5.000000e+01
    endloop
  endfacet
  facet normal 0.000000e+00 -1.000000e+00 0.000000e+00
    outer loop
      vertex 2.900000e+02 2.080000e+02 5.000000e+01
      vertex 2.900000e+02 2.080000e+02 8.400000e+01
      vertex 2.840000e+02 2.080000e+02 8.400000e+01
    endloop
  endfacet
  facet normal 0.000000e+00 -1.000000e+00 0.000000e+00
    outer loop
      vertex 2.900000e+02 2.080000e+02 5.000000e+01
      vertex 2.840000e+02 2.080000e+02 8.400000e+01
      vertex 2.840000e+02 2.080000e+02 5.000000e+01
    endloop
  endfacet
  facet normal 1.000000e+00 0.000000e+00 0.000000e+00
    outer loop
      vertex 2.840000e+02 2.080000e+02 5.000000e+01
      vertex 2.840000e+02 2.080000e+02 8.400000e+01
      vertex 2.840000e+02 1.120000e+02 8.400000e+01
    endloop
  endfacet
  facet normal 1.000000e+00 0.000000e+00 0.000000e+00
    outer loop
      vertex 2.840000e+02 2.080000e+02 5.000000e+01
      vertex 2.840000e+02 1.120000e+02 8.400000e+01
      vertex 2.840000e+02 1.120000e+02 5.000000e+01
    endloop
  endfacet
  facet normal 0.000000e+00 0.000000e+00 1.000000e+00
    outer loop
      vertex 2.980000e+02 1.120000e+02 5.000000e+01
      vertex 3.040000e+02 1.120000e+02 5.000000e+01
      vertex 3.040000e+02 2.080000e+02 5.000000e+01
    endloop
  endfacet
  facet normal 0.000000e+00 0.000000e+00 1.000000e+00
    outer loop
      vertex 2.980000e+02 1.120000e+02 5.000000e+01
      vertex 3.040000e+02 2.080000e+02 5.000000e+01
      vertex 2.980000e+02 2.080000e+02 5.000000e+01
    endloop
  endfacet
  facet normal 0.000000e+00 0.000000e+00 -1.000000e+00
    outer loop
      vertex 2.980000e+02 1.120000e+02 8.400000e+01
      vertex 3.040000e+02 2.080000e+02 8.400000e+01
      vertex 3.040000e+02 1.120000e+02 8.400000e+01
    endloop
  endfacet
  facet normal 0.000000e+00 0.000000e+00 -1.000000e+00
    outer loop
      vertex 2.980000e+02 1.120000e+02 8.400000e+01
      vertex 2.980000e+02 2.080000e+02 8.400000e+01
      vertex 3.040000e+02 2.080000e+02 8.400000e+01
    endloop
  endfacet
  facet normal 0.000000e+00 1.000000e+00 0.000000e+00
    outer loop
      vertex 2.980000e+02 1.120000e+02 5.000000e+01
      vertex 2.980000e+02 1.120000e+02 8.400000e+01
      vertex 3.040000e+02 1.120000e+02 8.400000e+01
    endloop
  endfacet
  facet normal 0.000000e+00 1.000000e+00 0.000000e+00
    outer loop
      vertex 2.980000e+02 1.120000e+02 5.000000e+01
      vertex 3.040000e+02 1.120000e+02 8.400000e+01
      vertex 3.040000e+02 1.120000e+02 5.000000e+01
    endloop
  endfacet
  facet normal -1.000000e+00 0.000000e+00 0.000000e+00
    outer loop
      vertex 3.040000e+02 1.120000e+02 5.000000e+01
      vertex 3.040000e+02 1.120000e+02 8.400000e+01
      vertex 3.040000e+02 2.080000e+02 8.400000e+01
    endloop
  endfacet
  facet normal -1.000000e+00 0.000000e+00 0.000000e+00
    outer loop
      vertex 3.040000e+02 1.120000e+02 5.000000e+01
      vertex 3.040000e+02 2.080000e+02 8.400000e+01
      vertex 3.040000e+02 2.080000e+02 5.000000e+01
    endloop
  endfacet
  facet normal 0.000000e+00 -1.000000e+00 0.000000e+00
    outer loop
      vertex 3.040000e+02 2.080000e+02 5.000000e+01
      vertex 3.040000e+02 2.080000e+02 8.400000e+01
      vertex 2.980000e+02 2.080000e+02 8.400000e+01
    endloop
  endfacet
  facet normal 0.000000e+00 -1.000000e+00 0.000000e+00
    outer loop
      vertex 3.040000e+02 2.080000e+02 5.000000e+01
      vertex 2.980000e+02 2.080000e+02 8.400000e+01
      vertex 2.980000e+02 2.080000e+02 5.000000e+01
    endloop
  endfacet
  facet normal 1.000000e+00 0.000000e+00 0.000000e+00
    outer loop
      vertex 2.980000e+02 2.080000e+02 5.000000e+01
      vertex 2.980000e+02 2.080000e+02 8.400000e+01
      vertex 2.980000e+02 1.120000e+02 8.400000e+01
    endloop
  endfacet
  facet normal 1.000000e+00 0.000000e+00 0.000000e+00
    outer loop
      vertex 2.980000e+02 2.080000e+02 5.000000e+01
      vertex 2.980000e+02 1.120000e+02 8.400000e+01
      vertex 2.980000e+02 1.120000e+02 5.000000e+01
    endloop
  endfacet
  facet normal 0.000000e+00 0.000000e+00 1.000000e+00
    outer loop
      vertex 3.120000e+02 1.120000e+02 5.000000e+01
      vertex 3.180000e+02 1.120000e+02 5.000000e+01
      vertex 3.180000e+02 2.080000e+02 5.000000e+01
    endloop
  endfacet
  facet normal 0.000000e+00 0.000000e+00 1.000000e+00
    outer loop
      vertex 3.120000e+02 1.120000e+02 5.000000e+01
      vertex 3.180000e+02 2.080000e+02 5.000000e+01
      vertex 3.120000e+02 2.080000e+02 5.000000e+01
    endloop
  endfacet
  facet normal 0.000000e+00 0.000000e+00 -1.000000e+00
    outer loop
      vertex 3.120000e+02 1.120000e+02 8.400000e+01
      vertex 3.180000e+02 2.080000e+02 8.400000e+01
      vertex 3.180000e+02 1.120000e+02 8.400000e+01
    endloop
  endfacet
  facet normal 0.000000e+00 0.000000e+00 -1.000000e+00
    outer loop
      vertex 3.120000e+02 1.120000e+02 8.400000e+01
      vertex 3.120000e+02 2.080000e+02 8.400000e+01
      vertex 3.180000e+02 2.080000e+02 8.400000e+01
    endloop
  endfacet
  facet normal 0.000000e+00 1.000000e+00 0.000000e+00
    outer loop
      vertex 3.120000e+02 1.120000e+02 5.000000e+01
      vertex 3.120000e+02 1.120000e+02 8.400000e+01
      vertex 3.180000e+02 1.120000e+02 8.400000e+01
    endloop
  endfacet
  facet normal 0.000000e+00 1.000000e+00 0.000000e+00
    outer loop
      vertex 3.120000e+02 1.120000e+02 5.000000e+01
      vertex 3.180000e+02 1.120000e+02 8.400000e+01
      vertex 3.180000e+02 1.120000e+02 5.000000e+01
    endloop
  endfacet
  facet normal -1.000000e+00 0.000000e+00 0.000000e+00
    outer loop
      vertex 3.180000e+02 1.120000e+02 5.000000e+01
      vertex 3.180000e+02 1.120000e+02 8.400000e+01
      vertex 3.180000e+02 2.080000e+02 8.400000e+01
    endloop
  endfacet
  facet normal -1.000000e+00 0.000000e+00 0.000000e+00
    outer loop
      vertex 3.180000e+02 1.120000e+02 5.000000e+01
      vertex 3.180000e+02 2.080000e+02 8.400000e+01
      vertex 3.180000e+02 2.080000e+02 5.000000e+01
    endloop
  endfacet
  facet normal 0.000000e+00 -1.000000e+00 0.000000e+00
    outer loop
      vertex 3.180000e+02 2.080000e+02 5.000000e+01
      vertex 3.180000e+02 2.080000e+02 8.400000e+01
      vertex 3.120000e+02 2.080000e+02 8.400000e+01
    endloop
  endfacet
  facet normal 0.000000e+00 -1.000000e+00 0.000000e+00
    outer loop
      vertex 3.180000e+02 2.080000e+02 5.000000e+01
      vertex 3.120000e+02 2.080000e+02 8.400000e+01
      vertex 3.120000e+02 2.080000e+02 5.000000e+01
    endloop
  endfacet
  facet normal 1.000000e+00 0.000000e+00 0.000000e+00
    outer loop
      vertex 3.120000e+02 2.080000e+02 5.000000e+01
      vertex 3.120000e+02 2.080000e+02 8.400000e+01
      vertex 3.120000e+02 1.120000e+02 8.400000e+01
    endloop
  endfacet
  facet normal 1.000000e+00 0.000000e+00 0.000000e+00
    outer loop
      vertex 3.120000e+02 2.080000e+02 5.000000e+01
      vertex 3.120000e+02 1.120000e+02 8.400000e+01
      vertex 3.120000e+02 1.120000e+02 5.000000e+01
    endloop
  endfacet
  facet normal 0.000000e+00 0.000000e+00 1.000000e+00
    outer loop
      vertex 2.450000e+02 1.450000e+02 8.600000e+01
      vertex 2.750000e+02 1.450000e+02 8.600000e+01
      vertex 2.750000e+02 1.750000e+02 8.600000e+01
    endloop
  endfacet
  facet normal 0.000000e+00 0.000000e+00 1.000000e+00
    outer loop
      vertex 2.450000e+02 1.450000e+02 8.600000e+01
      vertex 2.750000e+02 1.750000e+02 8.600000e+01
      vertex 2.450000e+02 1.750000e+02 8.600000e+01
    endloop
  endfacet
  facet normal 0.000000e+00 0.000000e+00 -1.000000e+00
    outer loop
      vertex 2.450000e+02 1.450000e+02 9.400000e+01
      vertex 2.750000e+02 1.750000e+02 9.400000e+01
      vertex 2.750000e+02 1.450000e+02 9.400000e+01
    endloop
  endfacet
  facet normal 0.000000e+00 0.000000e+00 -1.000000e+00
    outer loop
      vertex 2.450000e+02 1.450000e+02 9.400000e+01
      vertex 2.450000e+02 1.750000e+02 9.400000e+01
      vertex 2.750000e+02 1.750000e+02 9.400000e+01
    endloop
  endfacet
  facet normal 0.000000e+00 1.000000e+00 0.000000e+00
    outer loop
      vertex 2.450000e+02 1.450000e+02 8.600000e+01
      vertex 2.450000e+02 1.450000e+02 9.400000e+01
      vertex 2.750000e+02 1.450000e+02 9.400000e+01
    endloop
  endfacet
  facet normal 0.000000e+00 1.000000e+00 0.000000e+00
    outer loop
      vertex 2.450000e+02 1.450000e+02 8.600000e+01
      vertex 2.750000e+02 1.450000e+02 9.400000e+01
      vertex 2.750000e+02 1.450000e+02 8.600000e+01
    endloop
  endfacet
  facet normal -1.000000e+00 0.000000e+00 0.000000e+00
    outer loop
      vertex 2.750000e+02 1.450000e+02 8.600000e+01
      vertex 2.750000e+02 1.450000e+02 9.400000e+01
      vertex 2.750000e+02 1.750000e+02 9.400000e+01
    endloop
  endfacet
  facet normal -1.000000e+00 0.000000e+00 0.000000e+00
    outer loop
      vertex 2.750000e+02 1.450000e+02 8.600000e+01
      vertex 2.750000e+02 1.750000e+02 9.400000e+01
      vertex 2.750000e+02 1.750000e+02 8.600000e+01
    endloop
  endfacet
  facet normal 0.000000e+00 -1.000000e+00 0.000000e+00
    outer loop
      vertex 2.750000e+02 1.750000e+02 8.600000e+01
      vertex 2.750000e+02 1.750000e+02 9.400000e+01
      vertex 2.450000e+02 1.750000e+02 9.400000e+01
    endloop
  endfacet
  facet normal 0.000000e+00 -1.000000e+00 0.000000e+00
    outer loop
      vertex 2.750000e+02 1.750000e+02 8.600000e+01
      vertex 2.450000e+02 1.750000e+02 9.400000e+01
      vertex 2.450000e+02 1.750000e+02 8.600000e+01
    endloop
  endfacet
  facet normal 1.000000e+00 0.000000e+00 0.000000e+00
    outer loop
      vertex 2.450000e+02 1.750000e+02 8.600000e+01
      vertex 2.450000e+02 1.750000e+02 9.400000e+01
      vertex 2.450000e+02 1.450000e+02 9.400000e+01
    endloop
  endfacet
  facet normal 1.000000e+00 0.000000e+00 0.000000e+00
    outer loop
      vertex 2.450000e+02 1.750000e+02 8.600000e+01
      vertex 2.450000e+02 1.450000e+02 9.400000e+01
      vertex 2.450000e+02 1.450000e+02 8.600000e+01
    endloop
  endfacet
  facet normal 0.000000e+00 0.000000e+00 1.000000e+00
    outer loop
      vertex 2.200000e+02 1.200000e+02 8.200000e+01
      vertex 3.000000e+02 1.200000e+02 8.200000e+01
      vertex 3.000000e+02 2.000000e+02 8.200000e+01
    endloop
  endfacet
  facet normal 0.000000e+00 0.000000e+00 1.000000e+00
    outer loop
      vertex 2.200000e+02 1.200000e+02 8.200000e+01
      vertex 3.000000e+02 2.000000e+02 8.200000e+01
      vertex 2.200000e+02 2.000000e+02 8.200000e+01
    endloop
  endfacet
  facet normal 0.000000e+00 0.000000e+00 -1.000000e+00
    outer loop
      vertex 2.200000e+02 1.200000e+02 8.800000e+01
      vertex 3.000000e+02 2.000000e+02 8.800000e+01
      vertex 3.000000e+02 1.200000e+02 8.800000e+01
    endloop
  endfacet
  facet normal 0.000000e+00 0.000000e+00 -1.000000e+00
    outer loop
      vertex 2.200000e+02 1.200000e+02 8.800000e+01
      vertex 2.200000e+02 2.000000e+02 8.800000e+01
      vertex 3.000000e+02 2.000000e+02 8.800000e+01
    endloop
  endfacet
  facet normal 0.000000e+00 1.000000e+00 0.000000e+00
    outer loop
      vertex 2.200000e+02 1.200000e+02 8.200000e+01
      vertex 2.200000e+02 1.200000e+02 8.800000e+01
      vertex 3.000000e+02 1.200000e+02 8.800000e+01
    endloop
  endfacet
  facet normal 0.000000e+00 1.000000e+00 0.000000e+00
    outer loop
      vertex 2.200000e+02 1.200000e+02 8.200000e+01
      vertex 3.000000e+02 1.200000e+02 8.800000e+01
      vertex 3.000000e+02 1.200000e+02 8.200000e+01
    endloop
  endfacet
  facet normal -1.000000e+00 0.000000e+00 0.000000e+00
    outer loop
      vertex 3.000000e+02 1.200000e+02 8.200000e+01
      vertex 3.000000e+02 1.200000e+02 8.800000e+01
      vertex 3.000000e+02 2.000000e+02 8.800000e+01
    endloop
  endfacet
  facet normal -1.000000e+00 0.000000e+00 0.000000e+00
    outer loop
      vertex 3.000000e+02 1.200000e+02 8.200000e+01
      vertex 3.000000e+02 2.000000e+02 8.800000e+01
      vertex 3.000000e+02 2.000000e+02 8.200000e+01
    endloop
  endfacet
  facet normal 0.000000e+00 -1.000000e+00 0.000000e+00
    outer loop
      vertex 3.000000e+02 2.000000e+02 8.200000e+01
      vertex 3.000000e+02 2.000000e+02 8.800000e+01
      vertex 2.200000e+02 2.000000e+02 8.800000e+01
    endloop
  endfacet
  facet normal 0.000000e+00 -1.000000e+00 0.000000e+00
    outer loop
      vertex 3.000000e+02 2.000000e+02 8.200000e+01
      vertex 2.200000e+02 2.000000e+02 8.800000e+01
      vertex 2.200000e+02 2.000000e+02 8.200000e+01
    endloop
  endfacet
  facet normal 1.000000e+00 0.000000e+00 0.000000e+00
    outer loop
      vertex 2.200000e+02 2.000000e+02 8.200000e+01
      vertex 2.200000e+02 2.000000e+02 8.800000e+01
      vertex 2.200000e+02 1.200000e+02 8.800000e+01
    endloop
  endfacet
  facet normal 1.000000e+00 0.000000e+00 0.000000e+00
    outer loop
      vertex 2.200000e+02 2.000000e+02 8.200000e+01
      vertex 2.200000e+02 1.200000e+02 8.800000e+01
      vertex 2.200000e+02 1.200000e+02 8.200000e+01
    endloop
  endfacet
  facet normal 0.000000e+00 0.000000e+00 1.000000e+00
    outer loop
      vertex 1.200000e+02 7.000000e+01 1.200000e+01
      vertex 1.340000e+02 7.000000e+01 1.200000e+01
      vertex 1.340000e+02 8.800000e+01 1.200000e+01
    endloop
  endfacet
  facet normal 0.000000e+00 0.000000e+00 1.000000e+00
    outer loop
      vertex 1.200000e+02 7.000000e+01 1.200000e+01
      vertex 1.340000e+02 8.800000e+01 1.200000e+01
      vertex 1.200000e+02 8.800000e+01 1.200000e+01
    endloop
  endfacet
  facet normal 0.000000e+00 0.000000e+00 -1.000000e+00
    outer loop
      vertex 1.200000e+02 7.000000e+01 2.000000e+01
      vertex 1.340000e+02 8.800000e+01 2.000000e+01
      vertex 1.340000e+02 7.000000e+01 2.000000e+01
    endloop
  endfacet
  facet normal 0.000000e+00 0.000000e+00 -1.000000e+00
    outer loop
      vertex 1.200000e+02 7.000000e+01 2.000000e+01
      vertex 1.200000e+02 8.800000e+01 2.000000e+01
      vertex 1.340000e+02 8.800000e+01 2.000000e+01
    endloop
  endfacet
  facet normal 0.000000e+00 1.000000e+00 0.000000e+00
    outer loop
      vertex 1.200000e+02 7.000000e+01 1.200000e+01
      vertex 1.200000e+02 7.000000e+01 2.000000e+01
      vertex 1.340000e+02 7.000000e+01 2.000000e+01
    endloop
  endfacet
  facet normal 0.000000e+00 1.000000e+00 0.000000e+00
    outer loop
      vertex 1.200000e+02 7.000000e+01 1.200000e+01
      vertex 1.340000e+02 7.000000e+01 2.000000e+01
      vertex 1.340000e+02 7.000000e+01 1.200000e+01
    endloop
  endfacet
  facet normal -1.000000e+00 0.000000e+00 0.000000e+00
    outer loop
      vertex 1.340000e+02 7.000000e+01 1.200000e+01
      vertex 1.340000e+02 7.000000e+01 2.000000e+01
      vertex 1.340000e+02 8.800000e+01 2.000000e+01
    endloop
  endfacet
  facet normal -1.000000e+00 0.000000e+00 0.000000e+00
    outer loop
      vertex 1.340000e+02 7.000000e+01 1.200000e+01
      vertex 1.340000e+02 8.800000e+01 2.000000e+01
      vertex 1.340000e+02 8.800000e+01 1.200000e+01
    endloop
  endfacet
  facet normal 0.000000e+00 -1.000000e+00 0.000000e+00
    outer loop
      vertex 1.340000e+02 8.800000e+01 1.200000e+01
      vertex 1.340000e+02 8.800000e+01 2.000000e+01
      vertex 1.200000e+02 8.800000e+01 2.000000e+01
    endloop
  endfacet
  facet normal 0.000000e+00 -1.000000e+00 0.000000e+00
    outer loop
      vertex 1.340000e+02 8.800000e+01 1.200000e+01
      vertex 1.200000e+02 8.800000e+01 2.000000e+01
      vertex 1.200000e+02 8.800000e+01 1.200000e+01
    endloop
  endfacet
  facet normal 1.000000e+00 0.000000e+00 0.000000e+00
    outer loop
      vertex 1.200000e+02 8.800000e+01 1.200000e+01
      vertex 1.200000e+02 8.800000e+01 2.000000e+01
      vertex 1.200000e+02 7.000000e+01 2.000000e+01
    endloop
  endfacet
  facet normal 1.000000e+00 0.000000e+00 0.000000e+00
    outer loop
      vertex 1.200000e+02 8.800000e+01 1.200000e+01
      vertex 1.200000e+02 7.000000e+01 2.000000e+01
      vertex 1.200000e+02 7.000000e+01 1.200000e+01
    endloop
  endfacet
  facet normal 0.000000e+00 0.000000e+00 1.000000e+00
    outer loop
      vertex 1.400000e+02 7.000000e+01 1.200000e+01
      vertex 1.540000e+02 7.000000e+01 1.200000e+01
      vertex 1.540000e+02 8.800000e+01 1.200000e+01
    endloop
  endfacet
  facet normal 0.000000e+00 0.000000e+00 1.000000e+00
    outer loop
      vertex 1.400000e+02 7.000000e+01 1.200000e+01
      vertex 1.540000e+02 8.800000e+01 1.200000e+01
      vertex 1.400000e+02 8.800000e+01 1.200000e+01
    endloop
  endfacet
  facet normal 0.000000e+00 0.000000e+00 -1.000000e+00
    outer loop
      vertex 1.400000e+02 7.000000e+01 2.000000e+01
      vertex 1.540000e+02 8.800000e+01 2.000000e+01
      vertex 1.540000e+02 7.000000e+01 2.000000e+01
    endloop
  endfacet
  facet normal 0.000000e+00 0.000000e+00 -1.000000e+00
    outer loop
      vertex 1.400000e+02 7.000000e+01 2.000000e+01
      vertex 1.400000e+02 8.800000e+01 2.000000e+01
      vertex 1.540000e+02 8.800000e+01 2.000000e+01
    endloop
  endfacet
  facet normal 0.000000e+00 1.000000e+00 0.000000e+00
    outer loop
      vertex 1.400000e+02 7.000000e+01 1.200000e+01
      vertex 1.400000e+02 7.000000e+01 2.000000e+01
      vertex 1.540000e+02 7.000000e+01 2.000000e+01
    endloop
  endfacet
  facet normal 0.000000e+00 1.000000e+00 0.000000e+00
    outer loop
      vertex 1.400000e+02 7.000000e+01 1.200000e+01
      vertex 1.540000e+02 7.000000e+01 2.000000e+01
      vertex 1.540000e+02 7.000000e+01 1.200000e+01
    endloop
  endfacet
  facet normal -1.000000e+00 0.000000e+00 0.000000e+00
    outer loop
      vertex 1.540000e+02 7.000000e+01 1.200000e+01
      vertex 1.540000e+02 7.000000e+01 2.000000e+01
      vertex 1.540000e+02 8.800000e+01 2.000000e+01
    endloop
  endfacet
  facet normal -1.000000e+00 0.000000e+00 0.000000e+00
    outer loop
      vertex 1.540000e+02 7.000000e+01 1.200000e+01
      vertex 1.540000e+02 8.800000e+01 2.000000e+01
      vertex 1.540000e+02 8.800000e+01 1.200000e+01
    endloop
  endfacet
  facet normal 0.000000e+00 -1.000000e+00 0.000000e+00
    outer loop
      vertex 1.540000e+02 8.800000e+01 1.200000e+01
      vertex 1.540000e+02 8.800000e+01 2.000000e+01
      vertex 1.400000e+02 8.800000e+01 2.000000e+01
    endloop
  endfacet
  facet normal 0.000000e+00 -1.000000e+00 0.000000e+00
    outer loop
      vertex 1.540000e+02 8.800000e+01 1.200000e+01
      vertex 1.400000e+02 8.800000e+01 2.000000e+01
      vertex 1.400000e+02 8.800000e+01 1.200000e+01
    endloop
  endfacet
  facet normal 1.000000e+00 0.000000e+00 0.000000e+00
    outer loop
      vertex 1.400000e+02 8.800000e+01 1.200000e+01
      vertex 1.400000e+02 8.800000e+01 2.000000e+01
      vertex 1.400000e+02 7.000000e+01 2.000000e+01
    endloop
  endfacet
  facet normal 1.000000e+00 0.000000e+00 0.000000e+00
    outer loop
      vertex 1.400000e+02 8.800000e+01 1.200000e+01
      vertex 1.400000e+02 7.000000e+01 2.000000e+01
      vertex 1.400000e+02 7.000000e+01 1.200000e+01
    endloop
  endfacet
  facet normal 0.000000e+00 0.000000e+00 1.000000e+00
    outer loop
      vertex 1.600000e+02 7.000000e+01 1.200000e+01
      vertex 1.740000e+02 7.000000e+01 1.200000e+01
      vertex 1.740000e+02 8.800000e+01 1.200000e+01
    endloop
  endfacet
  facet normal 0.000000e+00 0.000000e+00 1.000000e+00
    outer loop
      vertex 1.600000e+02 7.000000e+01 1.200000e+01
      vertex 1.740000e+02 8.800000e+01 1.200000e+01
      vertex 1.600000e+02 8.800000e+01 1.200000e+01
    endloop
  endfacet
  facet normal 0.000000e+00 0.000000e+00 -1.000000e+00
    outer loop
      vertex 1.600000e+02 7.000000e+01 2.000000e+01
      vertex 1.740000e+02 8.800000e+01 2.000000e+01
      vertex 1.740000e+02 7.000000e+01 2.000000e+01
    endloop
  endfacet
  facet normal 0.000000e+00 0.000000e+00 -1.000000e+00
    outer loop
      vertex 1.600000e+02 7.000000e+01 2.000000e+01
      vertex 1.600000e+02 8.800000e+01 2.000000e+01
      vertex 1.740000e+02 8.800000e+01 2.000000e+01
    endloop
  endfacet
  facet normal 0.000000e+00 1.000000e+00 0.000000e+00
    outer loop
      vertex 1.600000e+02 7.000000e+01 1.200000e+01
      vertex 1.600000e+02 7.000000e+01 2.000000e+01
      vertex 1.740000e+02 7.000000e+01 2.000000e+01
    endloop
  endfacet
  facet normal 0.000000e+00 1.000000e+00 0.000000e+00
    outer loop
      vertex 1.600000e+02 7.000000e+01 1.200000e+01
      vertex 1.740000e+02 7.000000e+01 2.000000e+01
      vertex 1.740000e+02 7.000000e+01 1.200000e+01
    endloop
  endfacet
  facet normal -1.000000e+00 0.000000e+00 0.000000e+00
    outer loop
      vertex 1.740000e+02 7.000000e+01 1.200000e+01
      vertex 1.740000e+02 7.000000e+01 2.000000e+01
      vertex 1.740000e+02 8.800000e+01 2.000000e+01
    endloop
  endfacet
  facet normal -1.000000e+00 0.000000e+00 0.000000e+00
    outer loop
      vertex 1.740000e+02 7.000000e+01 1.200000e+01
      vertex 1.740000e+02 8.800000e+01 2.000000e+01
      vertex 1.740000e+02 8.800000e+01 1.200000e+01
    endloop
  endfacet
  facet normal 0.000000e+00 -1.000000e+00 0.000000e+00
    outer loop
      vertex 1.740000e+02 8.800000e+01 1.200000e+01
      vertex 1.740000e+02 8.800000e+01 2.000000e+01
      vertex 1.600000e+02 8.800000e+01 2.000000e+01
    endloop
  endfacet
  facet normal 0.000000e+00 -1.000000e+00 0.000000e+00
    outer loop
      vertex 1.740000e+02 8.800000e+01 1.200000e+01
      vertex 1.600000e+02 8.800000e+01 2.000000e+01
      vertex 1.600000e+02 8.800000e+01 1.200000e+01
    endloop
  endfacet
  facet normal 1.000000e+00 0.000000e+00 0.000000e+00
    outer loop
      vertex 1.600000e+02 8.800000e+01 1.200000e+01
      vertex 1.600000e+02 8.800000e+01 2.000000e+01
      vertex 1.600000e+02 7.000000e+01 2.000000e+01
    endloop
  endfacet
  facet normal 1.000000e+00 0.000000e+00 0.000000e+00
    outer loop
      vertex 1.600000e+02 8.800000e+01 1.200000e+01
      vertex 1.600000e+02 7.000000e+01 2.000000e+01
      vertex 1.600000e+02 7.000000e+01 1.200000e+01
    endloop
  endfacet
  facet normal 0.000000e+00 0.000000e+00 1.000000e+00
    outer loop
      vertex 1.800000e+02 7.000000e+01 1.200000e+01
      vertex 1.940000e+02 7.000000e+01 1.200000e+01
      vertex 1.940000e+02 8.800000e+01 1.200000e+01
    endloop
  endfacet
  facet normal 0.000000e+00 0.000000e+00 1.000000e+00
    outer loop
      vertex 1.800000e+02 7.000000e+01 1.200000e+01
      vertex 1.940000e+02 8.800000e+01 1.200000e+01
      vertex 1.800000e+02 8.800000e+01 1.200000e+01
    endloop
  endfacet
  facet normal 0.000000e+00 0.000000e+00 -1.000000e+00
    outer loop
      vertex 1.800000e+02 7.000000e+01 2.000000e+01
      vertex 1.940000e+02 8.800000e+01 2.000000e+01
      vertex 1.940000e+02 7.000000e+01 2.000000e+01
    endloop
  endfacet
  facet normal 0.000000e+00 0.000000e+00 -1.000000e+00
    outer loop
      vertex 1.800000e+02 7.000000e+01 2.000000e+01
      vertex 1.800000e+02 8.800000e+01 2.000000e+01
      vertex 1.940000e+02 8.800000e+01 2.000000e+01
    endloop
  endfacet
  facet normal 0.000000e+00 1.000000e+00 0.000000e+00
    outer loop
      vertex 1.800000e+02 7.000000e+01 1.200000e+01
      vertex 1.800000e+02 7.000000e+01 2.000000e+01
      vertex 1.940000e+02 7.000000e+01 2.000000e+01
    endloop
  endfacet
  facet normal 0.000000e+00 1.000000e+00 0.000000e+00
    outer loop
      vertex 1.800000e+02 7.000000e+01 1.200000e+01
      vertex 1.940000e+02 7.000000e+01 2.000000e+01
      vertex 1.940000e+02 7.000000e+01 1.200000e+01
    endloop
  endfacet
  facet normal -1.000000e+00 0.000000e+00 0.000000e+00
    outer loop
      vertex 1.940000e+02 7.000000e+01 1.200000e+01
      vertex 1.940000e+02 7.000000e+01 2.000000e+01
      vertex 1.940000e+02 8.800000e+01 2.000000e+01
    endloop
  endfacet
  facet normal -1.000000e+00 0.000000e+00 0.000000e+00
    outer loop
      vertex 1.940000e+02 7.000000e+01 1.200000e+01
      vertex 1.940000e+02 8.800000e+01 2.000000e+01
      vertex 1.940000e+02 8.800000e+01 1.200000e+01
    endloop
  endfacet
  facet normal 0.000000e+00 -1.000000e+00 0.000000e+00
    outer loop
      vertex 1.940000e+02 8.800000e+01 1.200000e+01
      vertex 1.940000e+02 8.800000e+01 2.000000e+01
      vertex 1.800000e+02 8.800000e+01 2.000000e+01
    endloop
  endfacet
  facet normal 0.000000e+00 -1.000000e+00 0.000000e+00
    outer loop
      vertex 1.940000e+02 8.800000e+01 1.200000e+01
      vertex 1.800000e+02 8.800000e+01 2.000000e+01
      vertex 1.800000e+02 8.800000e+01 1.200000e+01
    endloop
  endfacet
  facet normal 1.000000e+00 0.000000e+00 0.000000e+00
    outer loop
      vertex 1.800000e+02 8.800000e+01 1.200000e+01
      vertex 1.800000e+02 8.800000e+01 2.000000e+01
      vertex 1.800000e+02 7.000000e+01 2.000000e+01
    endloop
  endfacet
  facet normal 1.000000e+00 0.000000e+00 0.000000e+00
    outer loop
      vertex 1.800000e+02 8.800000e+01 1.200000e+01
      vertex 1.800000e+02 7.000000e+01 2.000000e+01
      vertex 1.800000e+02 7.000000e+01 1.200000e+01
    endloop
  endfacet
  facet normal 0.000000e+00 0.000000e+00 1.000000e+00
    outer loop
      vertex 2.000000e+02 7.000000e+01 1.200000e+01
      vertex 2.140000e+02 7.000000e+01 1.200000e+01
      vertex 2.140000e+02 8.800000e+01 1.200000e+01
    endloop
  endfacet
  facet normal 0.000000e+00 0.000000e+00 1.000000e+00
    outer loop
      vertex 2.000000e+02 7.000000e+01 1.200000e+01
      vertex 2.140000e+02 8.800000e+01 1.200000e+01
      vertex 2.000000e+02 8.800000e+01 1.200000e+01
    endloop
  endfacet
  facet normal 0.000000e+00 0.000000e+00 -1.000000e+00
    outer loop
      vertex 2.000000e+02 7.000000e+01 2.000000e+01
      vertex 2.140000e+02 8.800000e+01 2.000000e+01
      vertex 2.140000e+02 7.000000e+01 2.000000e+01
    endloop
  endfacet
  facet normal 0.000000e+00 0.000000e+00 -1.000000e+00
    outer loop
      vertex 2.000000e+02 7.000000e+01 2.000000e+01
      vertex 2.000000e+02 8.800000e+01 2.000000e+01
      vertex 2.140000e+02 8.800000e+01 2.000000e+01
    endloop
  endfacet
  facet normal 0.000000e+00 1.000000e+00 0.000000e+00
    outer loop
      vertex 2.000000e+02 7.000000e+01 1.200000e+01
      vertex 2.000000e+02 7.000000e+01 2.000000e+01
      vertex 2.140000e+02 7.000000e+01 2.000000e+01
    endloop
  endfacet
  facet normal 0.000000e+00 1.000000e+00 0.000000e+00
    outer loop
      vertex 2.000000e+02 7.000000e+01 1.200000e+01
      vertex 2.140000e+02 7.000000e+01 2.000000e+01
      vertex 2.140000e+02 7.000000e+01 1.200000e+01
    endloop
  endfacet
  facet normal -1.000000e+00 0.000000e+00 0.000000e+00
    outer loop
      vertex 2.140000e+02 7.000000e+01 1.200000e+01
      vertex 2.140000e+02 7.000000e+01 2.000000e+01
      vertex 2.140000e+02 8.800000e+01 2.000000e+01
    endloop
  endfacet
  facet normal -1.000000e+00 0.000000e+00 0.000000e+00
    outer loop
      vertex 2.140000e+02 7.000000e+01 1.200000e+01
      vertex 2.140000e+02 8.800000e+01 2.000000e+01
      vertex 2.140000e+02 8.800000e+01 1.200000e+01
    endloop
  endfacet
  facet normal 0.000000e+00 -1.000000e+00 0.000000e+00
    outer loop
      vertex 2.140000e+02 8.800000e+01 1.200000e+01
      vertex 2.140000e+02 8.800000e+01 2.000000e+01
      vertex 2.000000e+02 8.800000e+01 2.000000e+01
    endloop
  endfacet
  facet normal 0.000000e+00 -1.000000e+00 0.000000e+00
    outer loop
      vertex 2.140000e+02 8.800000e+01 1.200000e+01
      vertex 2.000000e+02 8.800000e+01 2.000000e+01
      vertex 2.000000e+02 8.800000e+01 1.200000e+01
    endloop
  endfacet
  facet normal 1.000000e+00 0.000000e+00 0.000000e+00
    outer loop
      vertex 2.000000e+02 8.800000e+01 1.200000e+01
      vertex 2.000000e+02 8.800000e+01 2.000000e+01
      vertex 2.000000e+02 7.000000e+01 2.000000e+01
    endloop
  endfacet
  facet normal 1.000000e+00 0.000000e+00 0.000000e+00
    outer loop
      vertex 2.000000e+02 8.800000e+01 1.200000e+01
      vertex 2.000000e+02 7.000000e+01 2.000000e+01
      vertex 2.000000e+02 7.000000e+01 1.200000e+01
    endloop
  endfacet
  facet normal 0.000000e+00 0.000000e+00 1.000000e+00
    outer loop
      vertex 2.200000e+02 7.000000e+01 1.200000e+01
      vertex 2.340000e+02 7.000000e+01 1.200000e+01
      vertex 2.340000e+02 8.800000e+01 1.200000e+01
    endloop
  endfacet
  facet normal 0.000000e+00 0.000000e+00 1.000000e+00
    outer loop
      vertex 2.200000e+02 7.000000e+01 1.200000e+01
      vertex 2.340000e+02 8.800000e+01 1.200000e+01
      vertex 2.200000e+02 8.800000e+01 1.200000e+01
    endloop
  endfacet
  facet normal 0.000000e+00 0.000000e+00 -1.000000e+00
    outer loop
      vertex 2.200000e+02 7.000000e+01 2.000000e+01
      vertex 2.340000e+02 8.800000e+01 2.000000e+01
      vertex 2.340000e+02 7.000000e+01 2.000000e+01
    endloop
  endfacet
  facet normal 0.000000e+00 0.000000e+00 -1.000000e+00
    outer loop
      vertex 2.200000e+02 7.000000e+01 2.000000e+01
      vertex 2.200000e+02 8.800000e+01 2.000000e+01
      vertex 2.340000e+02 8.800000e+01 2.000000e+01
    endloop
  endfacet
  facet normal 0.000000e+00 1.000000e+00 0.000000e+00
    outer loop
      vertex 2.200000e+02 7.000000e+01 1.200000e+01
      vertex 2.200000e+02 7.000000e+01 2.000000e+01
      vertex 2.340000e+02 7.000000e+01 2.000000e+01
    endloop
  endfacet
  facet normal 0.000000e+00 1.000000e+00 0.000000e+00
    outer loop
      vertex 2.200000e+02 7.000000e+01 1.200000e+01
      vertex 2.340000e+02 7.000000e+01 2.000000e+01
      vertex 2.340000e+02 7.000000e+01 1.200000e+01
    endloop
  endfacet
  facet normal -1.000000e+00 0.000000e+00 0.000000e+00
    outer loop
      vertex 2.340000e+02 7.000000e+01 1.200000e+01
      vertex 2.340000e+02 7.000000e+01 2.000000e+01
      vertex 2.340000e+02 8.800000e+01 2.000000e+01
    endloop
  endfacet
  facet normal -1.000000e+00 0.000000e+00 0.000000e+00
    outer loop
      vertex 2.340000e+02 7.000000e+01 1.200000e+01
      vertex 2.340000e+02 8.800000e+01 2.000000e+01
      vertex 2.340000e+02 8.800000e+01 1.200000e+01
    endloop
  endfacet
  facet normal 0.000000e+00 -1.000000e+00 0.000000e+00
    outer loop
      vertex 2.340000e+02 8.800000e+01 1.200000e+01
      vertex 2.340000e+02 8.800000e+01 2.000000e+01
      vertex 2.200000e+02 8.800000e+01 2.000000e+01
    endloop
  endfacet
  facet normal 0.000000e+00 -1.000000e+00 0.000000e+00
    outer loop
      vertex 2.340000e+02 8.800000e+01 1.200000e+01
      vertex 2.200000e+02 8.800000e+01 2.000000e+01
      vertex 2.200000e+02 8.800000e+01 1.200000e+01
    endloop
  endfacet
  facet normal 1.000000e+00 0.000000e+00 0.000000e+00
    outer loop
      vertex 2.200000e+02 8.800000e+01 1.200000e+01
      vertex 2.200000e+02 8.800000e+01 2.000000e+01
      vertex 2.200000e+02 7.000000e+01 2.000000e+01
    endloop
  endfacet
  facet normal 1.000000e+00 0.000000e+00 0.000000e+00
    outer loop
      vertex 2.200000e+02 8.800000e+01 1.200000e+01
      vertex 2.200000e+02 7.000000e+01 2.000000e+01
      vertex 2.200000e+02 7.000000e+01 1.200000e+01
    endloop
  endfacet
  facet normal 0.000000e+00 0.000000e+00 1.000000e+00
    outer loop
      vertex 2.400000e+02 7.000000e+01 1.200000e+01
      vertex 2.540000e+02 7.000000e+01 1.200000e+01
      vertex 2.540000e+02 8.800000e+01 1.200000e+01
    endloop
  endfacet
  facet normal 0.000000e+00 0.000000e+00 1.000000e+00
    outer loop
      vertex 2.400000e+02 7.000000e+01 1.200000e+01
      vertex 2.540000e+02 8.800000e+01 1.200000e+01
      vertex 2.400000e+02 8.800000e+01 1.200000e+01
    endloop
  endfacet
  facet normal 0.000000e+00 0.000000e+00 -1.000000e+00
    outer loop
      vertex 2.400000e+02 7.000000e+01 2.000000e+01
      vertex 2.540000e+02 8.800000e+01 2.000000e+01
      vertex 2.540000e+02 7.000000e+01 2.000000e+01
    endloop
  endfacet
  facet normal 0.000000e+00 0.000000e+00 -1.000000e+00
    outer loop
      vertex 2.400000e+02 7.000000e+01 2.000000e+01
      vertex 2.400000e+02 8.800000e+01 2.000000e+01
      vertex 2.540000e+02 8.800000e+01 2.000000e+01
    endloop
  endfacet
  facet normal 0.000000e+00 1.000000e+00 0.000000e+00
    outer loop
      vertex 2.400000e+02 7.000000e+01 1.200000e+01
      vertex 2.400000e+02 7.000000e+01 2.000000e+01
      vertex 2.540000e+02 7.000000e+01 2.000000e+01
    endloop
  endfacet
  facet normal 0.000000e+00 1.000000e+00 0.000000e+00
    outer loop
      vertex 2.400000e+02 7.000000e+01 1.200000e+01
      vertex 2.540000e+02 7.000000e+01 2.000000e+01
      vertex 2.540000e+02 7.000000e+01 1.200000e+01
    endloop
  endfacet
  facet normal -1.000000e+00 0.000000e+00 0.000000e+00
    outer loop
      vertex 2.540000e+02 7.000000e+01 1.200000e+01
      vertex 2.540000e+02 7.000000e+01 2.000000e+01
      vertex 2.540000e+02 8.800000e+01 2.000000e+01
    endloop
  endfacet
  facet normal -1.000000e+00 0.000000e+00 0.000000e+00
    outer loop
      vertex 2.540000e+02 7.000000e+01 1.200000e+01
      vertex 2.540000e+02 8.800000e+01 2.000000e+01
      vertex 2.540000e+02 8.800000e+01 1.200000e+01
    endloop
  endfacet
  facet normal 0.000000e+00 -1.000000e+00 0.000000e+00
    outer loop
      vertex 2.540000e+02 8.800000e+01 1.200000e+01
      vertex 2.540000e+02 8.800000e+01 2.000000e+01
      vertex 2.400000e+02 8.800000e+01 2.000000e+01
    endloop
  endfacet
  facet normal 0.000000e+00 -1.000000e+00 0.000000e+00
    outer loop
      vertex 2.540000e+02 8.800000e+01 1.200000e+01
      vertex 2.400000e+02 8.800000e+01 2.000000e+01
      vertex 2.400000e+02 8.800000e+01 1.200000e+01
    endloop
  endfacet
  facet normal 1.000000e+00 0.000000e+00 0.000000e+00
    outer loop
      vertex 2.400000e+02 8.800000e+01 1.200000e+01
      vertex 2.400000e+02 8.800000e+01 2.000000e+01
      vertex 2.400000e+02 7.000000e+01 2.000000e+01
    endloop
  endfacet
  facet normal 1.000000e+00 0.000000e+00 0.000000e+00
    outer loop
      vertex 2.400000e+02 8.800000e+01 1.200000e+01
      vertex 2.400000e+02 7.000000e+01 2.000000e+01
      vertex 2.400000e+02 7.000000e+01 1.200000e+01
    endloop
  endfacet
  facet normal 0.000000e+00 0.000000e+00 1.000000e+00
    outer loop
      vertex 2.600000e+02 7.000000e+01 1.200000e+01
      vertex 2.740000e+02 7.000000e+01 1.200000e+01
      vertex 2.740000e+02 8.800000e+01 1.200000e+01
    endloop
  endfacet
  facet normal 0.000000e+00 0.000000e+00 1.000000e+00
    outer loop
      vertex 2.600000e+02 7.000000e+01 1.200000e+01
      vertex 2.740000e+02 8.800000e+01 1.200000e+01
      vertex 2.600000e+02 8.800000e+01 1.200000e+01
    endloop
  endfacet
  facet normal 0.000000e+00 0.000000e+00 -1.000000e+00
    outer loop
      vertex 2.600000e+02 7.000000e+01 2.000000e+01
      vertex 2.740000e+02 8.800000e+01 2.000000e+01
      vertex 2.740000e+02 7.000000e+01 2.000000e+01
    endloop
  endfacet
  facet normal 0.000000e+00 0.000000e+00 -1.000000e+00
    outer loop
      vertex 2.600000e+02 7.000000e+01 2.000000e+01
      vertex 2.600000e+02 8.800000e+01 2.000000e+01
      vertex 2.740000e+02 8.800000e+01 2.000000e+01
    endloop
  endfacet
  facet normal 0.000000e+00 1.000000e+00 0.000000e+00
    outer loop
      vertex 2.600000e+02 7.000000e+01 1.200000e+01
      vertex 2.600000e+02 7.000000e+01 2.000000e+01
      vertex 2.740000e+02 7.000000e+01 2.000000e+01
    endloop
  endfacet
  facet normal 0.000000e+00 1.000000e+00 0.000000e+00
    outer loop
      vertex 2.600000e+02 7.000000e+01 1.200000e+01
      vertex 2.740000e+02 7.000000e+01 2.000000e+01
      vertex 2.740000e+02 7.000000e+01 1.200000e+01
    endloop
  endfacet
  facet normal -1.000000e+00 0.000000e+00 0.000000e+00
    outer loop
      vertex 2.740000e+02 7.000000e+01 1.200000e+01
      vertex 2.740000e+02 7.000000e+01 2.000000e+01
      vertex 2.740000e+02 8.800000e+01 2.000000e+01
    endloop
  endfacet
  facet normal -1.000000e+00 0.000000e+00 0.000000e+00
    outer loop
      vertex 2.740000e+02 7.000000e+01 1.200000e+01
      vertex 2.740000e+02 8.800000e+01 2.000000e+01
      vertex 2.740000e+02 8.800000e+01 1.200000e+01
    endloop
  endfacet
  facet normal 0.000000e+00 -1.000000e+00 0.000000e+00
    outer loop
      vertex 2.740000e+02 8.800000e+01 1.200000e+01
      vertex 2.740000e+02 8.800000e+01 2.000000e+01
      vertex 2.600000e+02 8.800000e+01 2.000000e+01
    endloop
  endfacet
  facet normal 0.000000e+00 -1.000000e+00 0.000000e+00
    outer loop
      vertex 2.740000e+02 8.800000e+01 1.200000e+01
      vertex 2.600000e+02 8.800000e+01 2.000000e+01
      vertex 2.600000e+02 8.800000e+01 1.200000e+01
    endloop
  endfacet
  facet normal 1.000000e+00 0.000000e+00 0.000000e+00
    outer loop
      vertex 2.600000e+02 8.800000e+01 1.200000e+01
      vertex 2.600000e+02 8.800000e+01 2.000000e+01
      vertex 2.600000e+02 7.000000e+01 2.000000e+01
    endloop
  endfacet
  facet normal 1.000000e+00 0.000000e+00 0.000000e+00
    outer loop
      vertex 2.600000e+02 8.800000e+01 1.200000e+01
      vertex 2.600000e+02 7.000000e+01 2.000000e+01
      vertex 2.600000e+02 7.000000e+01 1.200000e+01
    endloop
  endfacet
  facet normal 0.000000e+00 0.000000e+00 1.000000e+00
    outer loop
      vertex 3.800000e+02 4.000000e+01 1.200000e+01
      vertex 4.900000e+02 4.000000e+01 1.200000e+01
      vertex 4.900000e+02 5.600000e+01 1.200000e+01
    endloop
  endfacet
  facet normal 0.000000e+00 0.000000e+00 1.000000e+00
    outer loop
      vertex 3.800000e+02 4.000000e+01 1.200000e+01
      vertex 4.900000e+02 5.600000e+01 1.200000e+01
      vertex 3.800000e+02 5.600000e+01 1.200000e+01
    endloop
  endfacet
  facet normal 0.000000e+00 0.000000e+00 -1.000000e+00
    outer loop
      vertex 3.800000e+02 4.000000e+01 2.400000e+01
      vertex 4.900000e+02 5.600000e+01 2.400000e+01
      vertex 4.900000e+02 4.000000e+01 2.400000e+01
    endloop
  endfacet
  facet normal 0.000000e+00 0.000000e+00 -1.000000e+00
    outer loop
      vertex 3.800000e+02 4.000000e+01 2.400000e+01
      vertex 3.800000e+02 5.600000e+01 2.400000e+01
      vertex 4.900000e+02 5.600000e+01 2.400000e+01
    endloop
  endfacet
  facet normal 0.000000e+00 1.000000e+00 0.000000e+00
    outer loop
      vertex 3.800000e+02 4.000000e+01 1.200000e+01
      vertex 3.800000e+02 4.000000e+01 2.400000e+01
      vertex 4.900000e+02 4.000000e+01 2.400000e+01
    endloop
  endfacet
  facet normal 0.000000e+00 1.000000e+00 0.000000e+00
    outer loop
      vertex 3.800000e+02 4.000000e+01 1.200000e+01
      vertex 4.900000e+02 4.000000e+01 2.400000e+01
      vertex 4.900000e+02 4.000000e+01 1.200000e+01
    endloop
  endfacet
  facet normal -1.000000e+00 0.000000e+00 0.000000e+00
    outer loop
      vertex 4.900000e+02 4.000000e+01 1.200000e+01
      vertex 4.900000e+02 4.000000e+01 2.400000e+01
      vertex 4.900000e+02 5.600000e+01 2.400000e+01
    endloop
  endfacet
  facet normal -1.000000e+00 0.000000e+00 0.000000e+00
    outer loop
      vertex 4.900000e+02 4.000000e+01 1.200000e+01
      vertex 4.900000e+02 5.600000e+01 2.400000e+01
      vertex 4.900000e+02 5.600000e+01 1.200000e+01
    endloop
  endfacet
  facet normal 0.000000e+00 -1.000000e+00 0.000000e+00
    outer loop
      vertex 4.900000e+02 5.600000e+01 1.200000e+01
      vertex 4.900000e+02 5.600000e+01 2.400000e+01
      vertex 3.800000e+02 5.600000e+01 2.400000e+01
    endloop
  endfacet
  facet normal 0.000000e+00 -1.000000e+00 0.000000e+00
    outer loop
      vertex 4.900000e+02 5.600000e+01 1.200000e+01
      vertex 3.800000e+02 5.600000e+01 2.400000e+01
      vertex 3.800000e+02 5.600000e+01 1.200000e+01
    endloop
  endfacet
  facet normal 1.000000e+00 0.000000e+00 0.000000e+00
    outer loop
      vertex 3.800000e+02 5.600000e+01 1.200000e+01
      vertex 3.800000e+02 5.600000e+01 2.400000e+01
      vertex 3.800000e+02 4.000000e+01 2.400000e+01
    endloop
  endfacet
  facet normal 1.000000e+00 0.000000e+00 0.000000e+00
    outer loop
      vertex 3.800000e+02 5.600000e+01 1.200000e+01
      vertex 3.800000e+02 4.000000e+01 2.400000e+01
      vertex 3.800000e+02 4.000000e+01 1.200000e+01
    endloop
  endfacet
  facet normal 0.000000e+00 0.000000e+00 1.000000e+00
    outer loop
      vertex 3.800000e+02 7.000000e+01 1.200000e+01
      vertex 4.900000e+02 7.000000e+01 1.200000e+01
      vertex 4.900000e+02 8.600000e+01 1.200000e+01
    endloop
  endfacet
  facet normal 0.000000e+00 0.000000e+00 1.000000e+00
    outer loop
      vertex 3.800000e+02 7.000000e+01 1.200000e+01
      vertex 4.900000e+02 8.600000e+01 1.200000e+01
      vertex 3.800000e+02 8.600000e+01 1.200000e+01
    endloop
  endfacet
  facet normal 0.000000e+00 0.000000e+00 -1.000000e+00
    outer loop
      vertex 3.800000e+02 7.000000e+01 2.400000e+01
      vertex 4.900000e+02 8.600000e+01 2.400000e+01
      vertex 4.900000e+02 7.000000e+01 2.400000e+01
    endloop
  endfacet
  facet normal 0.000000e+00 0.000000e+00 -1.000000e+00
    outer loop
      vertex 3.800000e+02 7.000000e+01 2.400000e+01
      vertex 3.800000e+02 8.600000e+01 2.400000e+01
      vertex 4.900000e+02 8.600000e+01 2.400000e+01
    endloop
  endfacet
  facet normal 0.000000e+00 1.000000e+00 0.000000e+00
    outer loop
      vertex 3.800000e+02 7.000000e+01 1.200000e+01
      vertex 3.800000e+02 7.000000e+01 2.400000e+01
      vertex 4.900000e+02 7.000000e+01 2.400000e+01
    endloop
  endfacet
  facet normal 0.000000e+00 1.000000e+00 0.000000e+00
    outer loop
      vertex 3.800000e+02 7.000000e+01 1.200000e+01
      vertex 4.900000e+02 7.000000e+01 2.400000e+01
      vertex 4.900000e+02 7.000000e+01 1.200000e+01
    endloop
  endfacet
  facet normal -1.000000e+00 0.000000e+00 0.000000e+00
    outer loop
      vertex 4.900000e+02 7.000000e+01 1.200000e+01
      vertex 4.900000e+02 7.000000e+01 2.400000e+01
      vertex 4.900000e+02 8.600000e+01 2.400000e+01
    endloop
  endfacet
  facet normal -1.000000e+00 0.000000e+00 0.000000e+00
    outer loop
      vertex 4.900000e+02 7.000000e+01 1.200000e+01
      vertex 4.900000e+02 8.600000e+01 2.400000e+01
      vertex 4.900000e+02 8.600000e+01 1.200000e+01
    endloop
  endfacet
  facet normal 0.000000e+00 -1.000000e+00 0.000000e+00
    outer loop
      vertex 4.900000e+02 8.600000e+01 1.200000e+01
      vertex 4.900000e+02 8.600000e+01 2.400000e+01
      vertex 3.800000e+02 8.600000e+01 2.400000e+01
    endloop
  endfacet
  facet normal 0.000000e+00 -1.000000e+00 0.000000e+00
    outer loop
      vertex 4.900000e+02 8.600000e+01 1.200000e+01
      vertex 3.800000e+02 8.600000e+01 2.400000e+01
      vertex 3.800000e+02 8.600000e+01 1.200000e+01
    endloop
  endfacet
  facet normal 1.000000e+00 0.000000e+00 0.000000e+00
    outer loop
      vertex 3.800000e+02 8.600000e+01 1.200000e+01
      vertex 3.800000e+02 8.600000e+01 2.400000e+01
      vertex 3.800000e+02 7.000000e+01 2.400000e+01
    endloop
  endfacet
  facet normal 1.000000e+00 0.000000e+00 0.000000e+00
    outer loop
      vertex 3.800000e+02 8.600000e+01 1.200000e+01
      vertex 3.800000e+02 7.000000e+01 2.400000e+01
      vertex 3.800000e+02 7.000000e+01 1.200000e+01
    endloop
  endfacet
  facet normal 0.000000e+00 0.000000e+00 1.000000e+00
    outer loop
      vertex 7.000000e+01 2.450000e+02 1.200000e+01
      vertex 2.100000e+02 2.450000e+02 1.200000e+01
      vertex 2.100000e+02 2.610000e+02 1.200000e+01
    endloop
  endfacet
  facet normal 0.000000e+00 0.000000e+00 1.000000e+00
    outer loop
      vertex 7.000000e+01 2.450000e+02 1.200000e+01
      vertex 2.100000e+02 2.610000e+02 1.200000e+01
      vertex 7.000000e+01 2.610000e+02 1.200000e+01
    endloop
  endfacet
  facet normal 0.000000e+00 0.000000e+00 -1.000000e+00
    outer loop
      vertex 7.000000e+01 2.450000e+02 3.600000e+01
      vertex 2.100000e+02 2.610000e+02 3.600000e+01
      vertex 2.100000e+02 2.450000e+02 3.600000e+01
    endloop
  endfacet
  facet normal 0.000000e+00 0.000000e+00 -1.000000e+00
    outer loop
      vertex 7.000000e+01 2.450000e+02 3.600000e+01
      vertex 7.000000e+01 2.610000e+02 3.600000e+01
      vertex 2.100000e+02 2.610000e+02 3.600000e+01
    endloop
  endfacet
  facet normal 0.000000e+00 1.000000e+00 0.000000e+00
    outer loop
      vertex 7.000000e+01 2.450000e+02 1.200000e+01
      vertex 7.000000e+01 2.450000e+02 3.600000e+01
      vertex 2.100000e+02 2.450000e+02 3.600000e+01
    endloop
  endfacet
  facet normal 0.000000e+00 1.000000e+00 0.000000e+00
    outer loop
      vertex 7.000000e+01 2.450000e+02 1.200000e+01
      vertex 2.100000e+02 2.450000e+02 3.600000e+01
      vertex 2.100000e+02 2.450000e+02 1.200000e+01
    endloop
  endfacet
  facet normal -1.000000e+00 0.000000e+00 0.000000e+00
    outer loop
      vertex 2.100000e+02 2.450000e+02 1.200000e+01
      vertex 2.100000e+02 2.450000e+02 3.600000e+01
      vertex 2.100000e+02 2.610000e+02 3.600000e+01
    endloop
  endfacet
  facet normal -1.000000e+00 0.000000e+00 0.000000e+00
    outer loop
      vertex 2.100000e+02 2.450000e+02 1.200000e+01
      vertex 2.100000e+02 2.610000e+02 3.600000e+01
      vertex 2.100000e+02 2.610000e+02 1.200000e+01
    endloop
  endfacet
  facet normal 0.000000e+00 -1.000000e+00 0.000000e+00
    outer loop
      vertex 2.100000e+02 2.610000e+02 1.200000e+01
      vertex 2.100000e+02 2.610000e+02 3.600000e+01
      vertex 7.000000e+01 2.610000e+02 3.600000e+01
    endloop
  endfacet
  facet normal 0.000000e+00 -1.000000e+00 0.000000e+00
    outer loop
      vertex 2.100000e+02 2.610000e+02 1.200000e+01
      vertex 7.000000e+01 2.610000e+02 3.600000e+01
      vertex 7.000000e+01 2.610000e+02 1.200000e+01
    endloop
  endfacet
  facet normal 1.000000e+00 0.000000e+00 0.000000e+00
    outer loop
      vertex 7.000000e+01 2.610000e+02 1.200000e+01
      vertex 7.000000e+01 2.610000e+02 3.600000e+01
      vertex 7.000000e+01 2.450000e+02 3.600000e+01
    endloop
  endfacet
  facet normal 1.000000e+00 0.000000e+00 0.000000e+00
    outer loop
      vertex 7.000000e+01 2.610000e+02 1.200000e+01
      vertex 7.000000e+01 2.450000e+02 3.600000e+01
      vertex 7.000000e+01 2.450000e+02 1.200000e+01
    endloop
  endfacet
  facet normal 0.000000e+00 0.000000e+00 1.000000e+00
    outer loop
      vertex 7.000000e+01 2.700000e+02 1.200000e+01
      vertex 2.100000e+02 2.700000e+02 1.200000e+01
      vertex 2.100000e+02 2.860000e+02 1.200000e+01
    endloop
  endfacet
  facet normal 0.000000e+00 0.000000e+00 1.000000e+00
    outer loop
      vertex 7.000000e+01 2.700000e+02 1.200000e+01
      vertex 2.100000e+02 2.860000e+02 1.200000e+01
      vertex 7.000000e+01 2.860000e+02 1.200000e+01
    endloop
  endfacet
  facet normal 0.000000e+00 0.000000e+00 -1.000000e+00
    outer loop
      vertex 7.000000e+01 2.700000e+02 3.600000e+01
      vertex 2.100000e+02 2.860000e+02 3.600000e+01
      vertex 2.100000e+02 2.700000e+02 3.600000e+01
    endloop
  endfacet
  facet normal 0.000000e+00 0.000000e+00 -1.000000e+00
    outer loop
      vertex 7.000000e+01 2.700000e+02 3.600000e+01
      vertex 7.000000e+01 2.860000e+02 3.600000e+01
      vertex 2.100000e+02 2.860000e+02 3.600000e+01
    endloop
  endfacet
  facet normal 0.000000e+00 1.000000e+00 0.000000e+00
    outer loop
      vertex 7.000000e+01 2.700000e+02 1.200000e+01
      vertex 7.000000e+01 2.700000e+02 3.600000e+01
      vertex 2.100000e+02 2.700000e+02 3.600000e+01
    endloop
  endfacet
  facet normal 0.000000e+00 1.000000e+00 0.000000e+00
    outer loop
      vertex 7.000000e+01 2.700000e+02 1.200000e+01
      vertex 2.100000e+02 2.700000e+02 3.600000e+01
      vertex 2.100000e+02 2.700000e+02 1.200000e+01
    endloop
  endfacet
  facet normal -1.000000e+00 0.000000e+00 0.000000e+00
    outer loop
      vertex 2.100000e+02 2.700000e+02 1.200000e+01
      vertex 2.100000e+02 2.700000e+02 3.600000e+01
      vertex 2.100000e+02 2.860000e+02 3.600000e+01
    endloop
  endfacet
  facet normal -1.000000e+00 0.000000e+00 0.000000e+00
    outer loop
      vertex 2.100000e+02 2.700000e+02 1.200000e+01
      vertex 2.100000e+02 2.860000e+02 3.600000e+01
      vertex 2.100000e+02 2.860000e+02 1.200000e+01
    endloop
  endfacet
  facet normal 0.000000e+00 -1.000000e+00 0.000000e+00
    outer loop
      vertex 2.100000e+02 2.860000e+02 1.200000e+01
      vertex 2.100000e+02 2.860000e+02 3.600000e+01
      vertex 7.000000e+01 2.860000e+02 3.600000e+01
    endloop
  endfacet
  facet normal 0.000000e+00 -1.000000e+00 0.000000e+00
    outer loop
      vertex 2.100000e+02 2.860000e+02 1.200000e+01
      vertex 7.000000e+01 2.860000e+02 3.600000e+01
      vertex 7.000000e+01 2.860000e+02 1.200000e+01
    endloop
  endfacet
  facet normal 1.000000e+00 0.000000e+00 0.000000e+00
    outer loop
      vertex 7.000000e+01 2.860000e+02 1.200000e+01
      vertex 7.000000e+01 2.860000e+02 3.600000e+01
      vertex 7.000000e+01 2.700000e+02 3.600000e+01
    endloop
  endfacet
  facet normal 1.000000e+00 0.000000e+00 0.000000e+00
    outer loop
      vertex 7.000000e+01 2.860000e+02 1.200000e+01
      vertex 7.000000e+01 2.700000e+02 3.600000e+01
      vertex 7.000000e+01 2.700000e+02 1.200000e+01
    endloop
  endfacet
  facet normal 0.000000e+00 0.000000e+00 1.000000e+00
    outer loop
      vertex 2.000000e+01 2.000000e+01 1.200000e+01
      vertex 9.000000e+01 2.000000e+01 1.200000e+01
      vertex 9.000000e+01 6.500000e+01 1.200000e+01
    endloop
  endfacet
  facet normal 0.000000e+00 0.000000e+00 1.000000e+00
    outer loop
      vertex 2.000000e+01 2.000000e+01 1.200000e+01
      vertex 9.000000e+01 6.500000e+01 1.200000e+01
      vertex 2.000000e+01 6.500000e+01 1.200000e+01
    endloop
  endfacet
  facet normal 0.000000e+00 0.000000e+00 -1.000000e+00
    outer loop
      vertex 2.000000e+01 2.000000e+01 3.600000e+01
      vertex 9.000000e+01 6.500000e+01 3.600000e+01
      vertex 9.000000e+01 2.000000e+01 3.600000e+01
    endloop
  endfacet
  facet normal 0.000000e+00 0.000000e+00 -1.000000e+00
    outer loop
      vertex 2.000000e+01 2.000000e+01 3.600000e+01
      vertex 2.000000e+01 6.500000e+01 3.600000e+01
      vertex 9.000000e+01 6.500000e+01 3.600000e+01
    endloop
  endfacet
  facet normal 0.000000e+00 1.000000e+00 0.000000e+00
    outer loop
      vertex 2.000000e+01 2.000000e+01 1.200000e+01
      vertex 2.000000e+01 2.000000e+01 3.600000e+01
      vertex 9.000000e+01 2.000000e+01 3.600000e+01
    endloop
  endfacet
  facet normal 0.000000e+00 1.000000e+00 0.000000e+00
    outer loop
      vertex 2.000000e+01 2.000000e+01 1.200000e+01
      vertex 9.000000e+01 2.000000e+01 3.600000e+01
      vertex 9.000000e+01 2.000000e+01 1.200000e+01
    endloop
  endfacet
  facet normal -1.000000e+00 0.000000e+00 0.000000e+00
    outer loop
      vertex 9.000000e+01 2.000000e+01 1.200000e+01
      vertex 9.000000e+01 2.000000e+01 3.600000e+01
      vertex 9.000000e+01 6.500000e+01 3.600000e+01
    endloop
  endfacet
  facet normal -1.000000e+00 0.000000e+00 0.000000e+00
    outer loop
      vertex 9.000000e+01 2.000000e+01 1.200000e+01
      vertex 9.000000e+01 6.500000e+01 3.600000e+01
      vertex 9.000000e+01 6.500000e+01 1.200000e+01
    endloop
  endfacet
  facet normal 0.000000e+00 -1.000000e+00 0.000000e+00
    outer loop
      vertex 9.000000e+01 6.500000e+01 1.200000e+01
      vertex 9.000000e+01 6.500000e+01 3.600000e+01
      vertex 2.000000e+01 6.500000e+01 3.600000e+01
    endloop
  endfacet
  facet normal 0.000000e+00 -1.000000e+00 0.000000e+00
    outer loop
      vertex 9.000000e+01 6.500000e+01 1.200000e+01
      vertex 2.000000e+01 6.500000e+01 3.600000e+01
      vertex 2.000000e+01 6.500000e+01 1.200000e+01
    endloop
  endfacet
  facet normal 1.000000e+00 0.000000e+00 0.000000e+00
    outer loop
      vertex 2.000000e+01 6.500000e+01 1.200000e+01
      vertex 2.000000e+01 6.500000e+01 3.600000e+01
      vertex 2.000000e+01 2.000000e+01 3.600000e+01
    endloop
  endfacet
  facet normal 1.000000e+00 0.000000e+00 0.000000e+00
    outer loop
      vertex 2.000000e+01 6.500000e+01 1.200000e+01
      vertex 2.000000e+01 2.000000e+01 3.600000e+01
      vertex 2.000000e+01 2.000000e+01 1.200000e+01
    endloop
  endfacet
endsolid afo_hardware_system_3d
